/* XPM */
static char * mfaWater_xpm[] = {
"96 64 9 1",
" 	c None",
".	c #663931",
"+	c #306082",
"@	c #5B6EE1",
"#	c #3F3F74",
"$	c #8F563B",
"%	c #99E550",
"&	c #639BFF",
"*	c #323C39",
"                                    .++@++++####++@@.$%                                         ",
"                                    .@@@@+++####++@@.$$%                                        ",
"                                     .@@@+++##++@@&&&.$$%                                       ",
"            %%%    %%%%%%           %.@@@+@+++++@@&&&..$$                                       ",
"           %%$$%%%%$%$$%$%%%        $.&&&@@++++#+++@@@@.$                  %%%%%%               ",
"%         %$$$$$$%$$$$$$$%$$%%%%%%%%$.&&@++######++@@@@@.%%             %%%$$%$%$%%%%           ",
"$%%    %%%$$...$$$$......$$$$$$%$$%$.@@@@++######+++@@@@.$$%           %$%$$$$$$$$$%$%%%%       ",
"$%$%%%%$%$$.@@@....++++++...$$$$$$$$.@@@+++##########+++.$$$          %$$$$......$$$$$%$$%      ",
".$$$%$$$$$.@@@@@@@@@@+++++++........@@@@++########+++#+++..$%         $$...@@@@@@....$$$$$%     ",
"+..$$$$...@@@@@@@@@@@@@@@+++++++++++@@@+++########++++@@@++.$%        $.@@@@@@@@@@@@@....$$%    ",
"@@@....@@@@@@@&&@@@@@@@@@@@@@+++@@@@@@@+++####++###++++@@@@.$%       %.@@@@@@@&&@@@@@@@@@.$$%   ",
"@@@&&&&&&&&&&&&&&&&&++++@@@@@@@@@@@&&&@@@@++++++++++++++@@@@.%       $.&&&&&&&&&&&&&@@@@@@.$%   ",
"@@@@@@@@@&&&&@@@@@@@@@@@@@@&@@@@@@@@+++++++++++++++++@@@@&&&.%       $.@@&&@@@@@@@@@&&&&&&&.%   ",
"+@@@@@@@@@@++++@@@@+++++++++++++++++++++#######++++##++++@@@.        .@@@@+++++@@@@++++@@@@.%   ",
"++@@@@++++++++++#######++++++++++++++###############+++++@@@.        .@@@+++++++###+++++@@@.    ",
"*#####++++++###############***********##############++++@@@.         .@@@+++++######++++@@@.    ",
"**************##########**********************######+++++++.         .+++####*#####++++++++.    ",
"*****###########################*****##############+++++@@@.          .@@@+++#####++++@@@@.     ",
"##################++++############################@@@@+@@@.           .@@@++++####@@@&@@@.      ",
"++++######+++++++++++++++++++++###########++++++++@@@@@&&&.           .@@@@@@@@++@@@&&&..       ",
"++++++#++++++++++++++++++++############++++++++++@@@@@&&&&.            .&&&@@@@@@@@&&&.         ",
"++++++++#########+++#############################@@@+@@@..             .@@@@@++++@&&@.          ",
"###++++++++##################******##############++++@@@.               .@@@@@@@@@@@@.          ",
"+########+++##############***************########+++@@@.                 ..@@@@@@@@@.           ",
"@@@+++++++++#######************##################++#+++.                   .........            ",
"@@@@+++++++++###################################++++@@.                                         ",
"..@@&@@@@@@@@+++####################+++++++++++++++@@@.                                         ",
"  .&&&@@@@@@@+++++++++++++++#####+++++++++++++++@@@&&&.                                         ",
"  .@@@+++@@@@++++++++####################+++++++@@&&&.                                          ",
"   .@@@+++++####################################++@@@.                                          ",
"    .@@+++++##################***###############++@@.                                           ",
"    .+++#+++#########********************#######++@@.%                                          ",
"    .++@++++#################**********#########++@@.%                                          ",
"   $.@@@++++###################***##############++@@.%                                          ",
"   $.@@+++++##+++++++++++#####################++@@&&.%                                          ",
"   .@@@+++@@@++++++++#####################++++++@@&&.%                                          ",
"   .&&&@@@@@@++#####################+++++++++++#++@@.$%                                         ",
"   .&&&@+++++#################++++++++++########++@@.$$%%     %%                                ",
"   .@@@+++++++##################################++@@@.$%$%%%%%$%                                ",
"   .@@@+++++++###*********######################+##+++.$$$%$%$$$                                ",
"   .@@@@++++++#######*********##################+++@@++..$$$$$..                                ",
"    .@@@++++++###########***********#############+++@@@@@.....++                                ",
"    .@@@++++++++#############***##############++#++++@@@@@@@@+++                                ",
"    .&&&&@@@@@++++++###############++++++++++++++@@@++@@@@@@@@@@                                ",
"     .@@@@@@@@++++++++++++++#############++++++++@@@@@@&&&&&@@@@                                ",
"     .@@@+++++#++++############################+++@++++++@@@@@++                                ",
"     .@@@+++++######################################++++++++++++                                ",
"     .@@@+++++#############***********#####################*###*                                ",
"     .+++####*##########**********************##########********                                ",
"      .@@@+++########+++++######*****################++++++#####                                ",
"      .@@@+++#####+@@@++++++++######+++++#########@@@@+++++++++#                                ",
"      .@@@@@@+++++@@@@@@@@@@@@@+++++++++++@@+++++@@@&&&&&&&@@@@+                                ",
"      .&&&@@@++++@@@@@@@@@@++++++++++++@@@@@@@@@@@&&&&&&&&&@@@++                                ",
"      .@@@+++####@@@+++++++++++++++++++++++++++++&&&@@....@@@@@+                                ",
"     $.@@@+++####+++++++++@@@++++##+++++++@@@@@@@@@...    ...+++                                ",
"     $.++@+++####+++++++@@++++++++++####+@@@@@@@@..          ..+                                ",
"     .@@@@+++###+++####++++.....@@@@@@@@@@@@.....              .                                ",
"     .@@@+++####++++@@@@@@.     ...@@@@@@...                                                    ",
"     .&&&@@@+++++++@@@@@..         ......                                                       ",
"    $.&&&@@@++++@@@&&&..                                                                        ",
"    $.@@+@@@++++@@&&&.                                                                          ",
"    .@@@++++####++@@@.                                                                          ",
"    .@@@++++####++@@.                                                                           ",
"    .+++#+++####++@@.%                                                                          "};
