/* XPM */
static char *_650216420432[] = {
/* columns rows colors chars-per-pixel */
"59 50 202 2 ",
"   c black",
".  c #000100",
"X  c #020302",
"o  c #010400",
"O  c #020600",
"+  c #020503",
"@  c #030D00",
"#  c #070F09",
"$  c #051400",
"%  c #0B170E",
"&  c #0E1E08",
"*  c #0F1F0A",
"=  c #0F1F12",
"-  c #0B2C00",
";  c #113F00",
":  c #0F2013",
">  c #1E3217",
",  c #253D1C",
"<  c #1B3921",
"1  c #134900",
"2  c #1C491C",
"3  c #294F1C",
"4  c #276915",
"5  c #1E4025",
"6  c #1F4327",
"7  c #274421",
"8  c #2A4720",
"9  c #2B4822",
"0  c #234B2C",
"q  c #225421",
"w  c #2A5F31",
"e  c #2C5E37",
"r  c #346F41",
"t  c #367242",
"y  c #377544",
"u  c #387846",
"i  c #269300",
"p  c #289800",
"a  c #319913",
"s  c #2DAD00",
"d  c #2FB400",
"f  c #30B409",
"g  c #37B814",
"h  c #35B61B",
"j  c #35B61F",
"k  c #3FBC1E",
"l  c #37AB2C",
"z  c #38B723",
"x  c #51863E",
"c  c #46A92D",
"v  c #40BC23",
"b  c #42BE24",
"n  c #43BE25",
"m  c #54AE38",
"M  c #5ACC3C",
"N  c #558D41",
"B  c #41974B",
"V  c #469657",
"C  c #43BC44",
"Z  c #44BD44",
"A  c #48BF4B",
"S  c #49BF4C",
"D  c #4ABF4D",
"F  c #47A153",
"G  c #47A252",
"H  c #4AAA53",
"J  c #4AA059",
"K  c #4DA45F",
"L  c #4FAF5F",
"P  c #60A049",
"I  c #61A849",
"U  c #5B9C74",
"Y  c #59967E",
"T  c #4DA560",
"R  c #4FAA63",
"E  c #51B263",
"W  c #53B763",
"Q  c #52B066",
"!  c #53B864",
"~  c #54B967",
"^  c #5EB36F",
"/  c #5EB46F",
"(  c #57BA6C",
")  c #58BA6D",
"_  c #59BF6F",
"`  c #5ABF6F",
"'  c #5CA771",
"]  c #5CA572",
"[  c #5CA074",
"{  c #5EBA71",
"}  c #4AC04D",
"|  c #5CCB41",
" . c #5ECF40",
".. c #5FCF42",
"X. c #4CC150",
"o. c #4CC151",
"O. c #4EC251",
"+. c #4CC052",
"@. c #4FC258",
"#. c #5CCB5D",
"$. c #6AD74C",
"%. c #6AD84B",
"&. c #6BD94C",
"*. c #6CD94D",
"=. c #6EDB4E",
"-. c #6DC451",
";. c #77C75B",
":. c #6DDA58",
">. c #79E359",
",. c #7AE459",
"<. c #7CE55B",
"1. c #7DE75D",
"2. c #7FE75F",
"3. c #54C561",
"4. c #54C562",
"5. c #56C667",
"6. c #57C767",
"7. c #5AC06F",
"8. c #59C86B",
"9. c #5ECB6A",
"0. c #5AC86C",
"q. c #5BC96E",
"w. c #5CC96E",
"e. c #5FC073",
"r. c #5FC173",
"t. c #5CCA70",
"y. c #5DCA72",
"u. c #5DCA73",
"i. c #5EC975",
"p. c #5ECB74",
"a. c #5ECA75",
"s. c #5ECB75",
"d. c #5FCB76",
"f. c #6DD967",
"g. c #60CB76",
"h. c #61CC76",
"j. c #61CD76",
"k. c #62CE76",
"l. c #63CE76",
"z. c #66CB7B",
"x. c #6BCA7E",
"c. c #66D076",
"v. c #66D176",
"b. c #69D376",
"n. c #6AD476",
"m. c #6ED776",
"M. c #6FD876",
"N. c #72DC70",
"B. c #7EE66B",
"V. c #7BE276",
"C. c #7CE376",
"Z. c #7EE576",
"A. c #7EE676",
"S. c #80DA62",
"D. c #81EA60",
"F. c #89E769",
"G. c #89E968",
"H. c #88EF6F",
"J. c #89F167",
"K. c #8BF369",
"L. c #8DF46A",
"P. c #91F76E",
"I. c #91F86E",
"U. c #80E776",
"Y. c #80E873",
"T. c #88EE77",
"R. c #89EF77",
"E. c #8CF177",
"W. c #8DF377",
"Q. c #93F671",
"!. c #94F772",
"~. c #94FB71",
"^. c #94FA72",
"/. c #93F877",
"(. c #95FA77",
"). c #97FD77",
"_. c #9AFF76",
"`. c #9AFF77",
"'. c #589581",
"]. c #579986",
"[. c #53A09A",
"{. c #53A19B",
"}. c #78B684",
"|. c #52A7A2",
" X c #52A8A2",
".X c #50B0AA",
"XX c #50B1AB",
"oX c #4EB9B2",
"OX c #4EB9B3",
"+X c #4DBEB7",
"@X c #7BC98A",
"#X c #4DC1BA",
"$X c #81C98E",
"%X c #83C990",
"&X c #90C89A",
"*X c #AEC6B2",
"=X c #B0C6B4",
"-X c #B1C6B4",
";X c #BCC5BE",
":X c #C3C4C3",
">X c gray77",
",X c None",
/* pixels */
",X,X,X,X,X,X,X,X,X,X,X,X,X,X,X,X,X,X,X,X,X,X,X,X,X,X,X,X,X,X,X,X,X,X,X,X,X,X,X,X,X,X,X,X,X,X,X,X,X,X,X,X,X,X,X,X,X,X,X",
",X,X,X,X,X,X,X,X,X,X,X,X,X,X,X,X,X,X,X,X,X,X,X,X,X,X,X,X,X,X,X,X,X,X,X,X,X,X,X,X,X,X,X,X,X,X,X,X,X,X,X,X,X,X,X,X,X,X,X",
",X,X,X,X,X,X,X,X,X,X,X,X,X,X,X,X,X,X,X,X,X,X,X,X,X,X,X,X,X,X,X,X,X,X,X,X,X,X,X,X,X,X,X,X,X,X,X,X,X,X,X,X,X,X,X,X,X,X,X",
",X,X,X,X,X,X,X,X,X,X,X,X,X,X,X,X,X,X,X,X,X,X,X,X,X,X,X,X,X,X,X,X,X,X,X,X,X,X,X,X,X,X,X,X,X,X,X,X,X,X,X,X,X,X,X,X,X,X,X",
",X,X,X,X,X,X,X,X,X,X,X,X,X,X,X,X,X,X,X,X,X,X,X,X,X,X,X,X,X,X,X,X,X,X,X,X,X,X,X,X,X,X,X,X,X,X,X,X,X,X,X,X,X,X,X,X,X,X,X",
",X,X,X,X,X,X,X,X,X,X,X,X,X,X,X,X,X,X,X,X,X,X,X,X,X,X,X,X,X,X,X,X,X,X,X,X,X,X,X,X,X,X,X,X,X,X,X,X,X,X,X,X,X,X,X,X,X,X,X",
",X,X,X,X,X,X,X,X,X,X,X,X,X,X,X,X,X,X,X,X,X,X,X,X,X,X,X,X,X,X,X,X,X,X,X,X,X,X,X,X,X,X,X,X,X,X,X,X,X,X,X,X,X,X,X,X,X,X,X",
",X,X,X,X,X,X,X,X,X,X,X,X,X,X,X,X,X,X,X,X,X,X,X,X,X,X,X,X,X,X,X,X,X,X,X,X,X,X,X,X,X,X,X,X,X,X,X,X,X,X,X,X,X,X,X,X,X,X,X",
",X,X,X,X,X,X,X,X,X,X,X,X,X,X,X,X,X,X,X,X,X,X,X,X,X,X,X,X,X,X,X,X,X,X,X,X,X,X,X,X,X,X,X,X,X,X,X,X,X,X,X,X,X,X,X,X,X,X,X",
",X,X,X,X,X,X,X,X,X,X,X,X,X,X,X,X,X,X,X,X,X,X,X,X,X,X,X,X,X,X,X,X,X,X,X,X,X,X,X,X,X,X,X,X,X,X,X,X,X,X,X,X,X,X,X,X,X,X,X",
",X,X,X,X,X,X,X,X,X,X,X,X,X,X,X,X,X,X,X,X,X,X,X,X,X,X,X,X,X,X,X,X,X,X,X,X,X,X,X,X,X,X,X,X,X,X,X,X,X,X,X,X,X,X,X,X,X,X,X",
",X,X,X,X,X,X,X,X,X,X,X,X,X,X,X,X,X,X,X,X,X,X,X,X,X,X,X,X,X,X,X,X,X,X,X,X,X,X,X,X,X,X,X,X,X,X,X,X,X,X,X,X,X,X,X,X,X,X,X",
",X,X,X,X,X,X,X,X,X,X,X,X,X,X,X,X,X,X,X,X,X,X,X,X,X,X,X,X,X,X,X,X,X,X,X,X,X,X,X,X,X,X,X,X,X,X,X,X,X,X,X,X,X,X,X,X,X,X,X",
",X,X,X,X,X,X,X,X,X,X,X,X,X,X,X,X,X,X,X,X,X,X,X,X,X,X,X,X,X,X,X,X,X,X,X,X,X,X,X,X,X,X,X,X,X,X,X,X,X,X,X,X,X,X,X,X,X,X,X",
",X,X,X,X,X,X,X,X,X,X,X,X,X,X,X,X,X,X,X,X,X,X,X,X,X,X,X,X,X,X,X,X,X,X,X,X,X,X,X,X,X,X,X,X,X,X,X,X,X,X,X,X,X,X,X,X,X,X,X",
",X,X,X,X,X,X,X,X,X,X,X,X,X,X,X,X,X,X,X,X,X,X,X,X,X,X,X,X,X,X,X,X,X,X,X,X,X,X,X,X,X,X,X,X,X,X,X,X,X,X,X,X,X,X,X,X,X,X,X",
",X,X,X,X,X,X,X,X,X,X,X,X,X,X,X,X,X,X,X,X,X,X,X,X,X,X,X,X,X,X      ,X,X,X,X,X,X,X,X,X,X,X,X,X,X,X,X,X,X,X,X,X,X,X,X,X,X",
",X,X,X,X,X,X,X,X,X,X,X,X,X,X,X,X,X,X,X,X,X,X,X,X,X                      ,X,X,X,X,X,X,X,X,X,X,X,X,X,X,X,X,X,X,X,X,X,X,X",
",X,X,X,X,X,X,X,X,X,X,X,X,X,X,X,X,X,X,X,X,X,X,X,X,X      8 x P c -.3           ,X,X,X,X,X,X,X,X,X,X,X,X,X,X,X,X,X,X,X,X",
",X,X,X,X,X,X,X,X,X,X,X,X,X,X,X,X,X,X,X,X,X,X,X,X    a `.`.`.<.=.`.`.Q.I *           ,X,X,X,X,X,X,X,X,X,X,X,X,X,X,X,X,X",
",X,X,X,X,X,X,X,X,X,X,X,X,X,X,X,X,X,X,X,X,X,X,X    N %.`.`.K.M `.`.`.`.`.`.F.4 +         ,X,X,X,X,X,X,X,X,X,X,X,X,X,X,X",
",X,X,X,X,X,X,X,X,X,X,X,X,X,X,X,X,X,X,X,X,X      > B.N.A.E.b `.`.`.`.`.`.^.b i +       ,X,X,X,X,X,X,X,X,X,X,X,X,X,X,X,X",
",X,X,X,X,X,X,X,X,X,X,X,X,X,X,X,X,X,X,X,X      u d.q.d.d.6.d.l.T.`.`.`.%.s ;       ,X,X,X,X,X,X,X,X,X,X,X,X,X,X,X,X,X,X",
",X,X,X,X,X,X,X,X,X,X,X,X,X,X,X,X,X,X,X    + Q d.d.h d.w.f d.d.d.l.H.g @.L +     ,X,X,X  ,X,X,X,X,X,X,X,X,X,X,X,X,X,X,X",
",X,X,X,X,X,X,X,X,X,X,X,X,X,X,X,X,X,X,X    ( d.d.d.d.o.d.d.d.d.d.d.d.d.d.d.!     ,X,X    ,X,X,X,X,X,X,X,X,X,X,X,X,X,X,X",
",X,X,X,X,X,X,X,X,X,X,X,X,X,X,X,X,X,X    T d.d.d.d.d.d.d.d.d.d.d.d.d.d.d.d.d.F           ,X,X,X,X,X,X,X,X,X,X,X,X,X,X,X",
",X,X,X,X,X,X,X,X,X,X,X,X,X,X,X,X,X    0 d.d.d.d.d.d.d.d.d.d.d.d.g.d.d.d.d.d.d.2           ,X,X,X,X,X,X,X,X,X,X,X,X,X,X",
",X,X,X,X,X,X,X,X,X,X,X,X,X,X,X,X,X    ( d.4.d.d.d.d.d.d.d.d.q.C y.d.d.d.d.d.d.W     1     ,X,X,X,X,X,X,X,X,X,X,X,X,X,X",
",X,X,X,X,X,X,X,X,X,X,X,X,X,X,X,X,X  % d.d.:.D d.d.d.d.d.d.d.z d o.d.d.d.d.d.d.d.$ p m     ,X,X,X,X,X,X,X,X,X,X,X,X,X,X",
",X,X,X,X,X,X,X,X,X,X,X,X,X,X,X,X,X  r d.d.).>.} d.d.d.d.d.d.8.C q.y.d.d.d.d.d.d.l L.S.    ,X,X,X,X,X,X,X,X,X,X,X,X,X,X",
",X,X,X,X,X,X,X,X,X,X,X,X,X,X,X,X    V d.d.`.`.>.} d.d.d.d.t.d +.8.y.d.d.d.d.d.d.U.`.G.    ,X,X,X,X,X,X,X,X,X,X,X,X,X,X",
",X,X,X,X,X,X,X,X,X,X,X,X,X,X,X,X    R d.d.`.`.`.1.D d.d.d.d.h 3.d.d.d.d.d.d.d.d.A.`.^.    ,X,X,X,X,X,X,X,X,X,X,X,X,X,X",
",X,X,X,X,X,X,X,X,X,X,X,X,X,X,X,X    R d.l.`.`.`.`.1.D d.d.d.d.d.d.d.d.d.d.d.d.d.V.`.`.    ,X,X,X,X,X,X,X,X,X,X,X,X,X,X",
",X,X,X,X,X,X,X,X,X,X,X,X,X,X,X,X    R d.m.`.`.`.`.`.D.A d.d.d.d.d.d.d.d.d.d.d.d.V.`.`.@   ,X,X,X,X,X,X,X,X,X,X,X,X,X,X",
",X,X,X,X,X,X,X,X,X,X,X,X,X,X,X,X    R d.9.| | | | | | z 5.d.d.' U d.d.{ '.d.d.d.#.| | -   ,X,X,X,X,X,X,X,X,X,X,X,X,X,X",
",X,X,X,X,X,X,X,X,X,X,X,X,X,X,X,X    R d.l.`.`.`._._._.=.f.d.d.|.XXd.d.].#Xe.d.d.V.`.!.    ,X,X,X,X,X,X,X,X,X,X,X,X,X,X",
",X,X,X,X,X,X,X,X,X,X,X,X,X,X,X,X    R d.d.c.E.`.`.`.P.M U.l.d.OX+Xd.d.{.#X^ d.d.V.;.*     ,X,X,X,X,X,X,X,X,X,X,X,X,X,X",
",X,X,X,X,X,X,X,X,X,X,X,X,X,X        R d.d.d.d.A.`.`.k `.U.d.d.OX+Xd.d.{.#X^ d.d.F       ,X,X,X,X,X,X,X,X,X,X,X,X,X,X,X",
",X,X,X,X,X,X,X,X                    R d.d.d.d.n.`.$.K.`.U.d.d.|..Xl.d.].#Xe.d.d.F     ,X,X,X,X,X,X,X,X,X,X,X,X,X,X,X,X",
",X,X,X,X,X,X              6 y w     R d.d.d.d.d.P...`.`.U.d.d.' U %X( }.Y d.d.d.F     ,X,X,X,X,X,X,X,X,X,X,X,X,X,X,X,X",
",X,X,X,X,X,X,X,X      6 ` d.d.H     R d.d.d.d.d.o./.).`.A.d.d.d.d.;Xd.*Xd.d.d.d.G     ,X,X,X,X,X,X,X,X,X,X,X,X,X,X,X,X",
",X,X,X,X,X,X,X,X,X,X      ` d.~     R d.d.d.d.d.l.d.d.d.d.d.d.d.l.>Xz.:X$Xd.d.d.G     ,X,X,X,X,X,X,X,X,X,X,X,X,X,X,X,X",
",X,X,X,X,X,X,X,X,X,X,X    d.d.y.= t ` d.d.d.d.d.d.d.d.d.d.d.d.d.x.*X@X=X&Xd.d.d.G     ,X,X,X,X,X,X,X,X,X,X,X,X,X,X,X,X",
",X,X,X,X,X,X,X,X,X,X,X  e d.d.d.d.d.d.d.d.d.d.d.d.d.d.d.d.d.d.d.d.d.d.d.d.d.d.d.B     ,X,X,X,X,X,X,X,X,X,X,X,X,X,X,X,X",
",X,X,X,X,X,X,X,X,X,X    K d.d.d.d.d.d.d.d.d.d.d.d.d.d.d.d.d.d.d.g.b.b.c.d.d.d.d.q     ,X,X,X,X,X,X,X,X,X,X,X,X,X,X,X,X",
",X,X,X,X,X,X,X,X,X,X    d.d.d.d.d.d.d.d.d.d.d.d.d.d.d.d.d.d.d.m.`.`.`.`.(.d.d.E     ,X,X,X,X,X,X,X,X,X,X,X,X,X,X,X,X,X",
",X,X,X,X,X,X,X,X,X,X  # d.d.d.d.d.d.d.d.d.d.d.d.d.d.d.d.d.d.l.T.`.`.`.`.`.d.J       ,X,X,X,X,X,X,X,X,X,X,X,X,X,X,X,X,X",
",X,X,X,X,X,X,X,X,X    = < < < < < < < < < < < < < < < < < < < 7 9 9 9 9 ,         ,X,X,X,X,X,X,X,X,X,X,X,X,X,X,X,X,X,X",
",X,X,X,X,X,X,X,X,X                                                            ,X,X,X,X,X,X,X,X,X,X,X,X,X,X,X,X,X,X,X,X",
",X,X,X,X,X,X,X,X,X,X,X,X,X,X,X,X,X,X,X,X,X,X,X,X,X,X,X,X,X,X,X,X,X,X,X,X,X,X,X,X,X,X,X,X,X,X,X,X,X,X,X,X,X,X,X,X,X,X,X"
};
