/* XPM */
static char *_650216405658[] = {
/* columns rows colors chars-per-pixel */
"51 51 50 1 ",
"  c #E4CD00",
". c #E5CD00",
"X c #E5CE00",
"o c #E5CF00",
"O c #E6CE00",
"+ c #E6CF00",
"@ c #E7CF00",
"# c #E7D000",
"$ c #E8D100",
"% c #E9D100",
"& c #E9D200",
"* c #EAD200",
"= c #EAD300",
"- c #EBD300",
"; c #EBD400",
": c #ECD400",
"> c #EDD400",
", c #EDD500",
"< c #EED600",
"1 c #EFD700",
"2 c #F0D800",
"3 c #F1D800",
"4 c #F1D900",
"5 c #F2D900",
"6 c #F2DA00",
"7 c #F3DA00",
"8 c #F3DB00",
"9 c #F4DB00",
"0 c #F5DC00",
"q c #F5DD00",
"w c #F6DD00",
"e c #F7DE00",
"r c #F8DE00",
"t c #F8DF00",
"y c #F9DF00",
"u c #F9E000",
"i c #FAE000",
"p c #FAE100",
"a c #FBE100",
"s c #FBE200",
"d c #FCE200",
"f c #FCE300",
"g c #FDE300",
"h c #FDE400",
"j c #FEE400",
"k c #FFE400",
"l c #FEE500",
"z c #FFE500",
"x c #FFE600",
"c c None",
/* pixels */
"ccccccccccccccccccccccccccccccccccccccccccccccccccc",
"ccccccccccccccccccccccccccccccccccccccccccccccccccc",
"ccccccccccccccccccccccccccccccccccccccccccccccccccc",
"ccccccccccccccccccccccccccccccccccccccccccccccccccc",
"ccccccccccccccccccccccccccccccccccccccccccccccccccc",
"ccccccccccccccccccccccccccccccccccccccccccccccccccc",
"ccccccccccccccccccccccccccccccccccccccccccccccccccc",
"ccccccccccccccccccccccccccccccccccccccccccccccccccc",
"ccccccccccccccccccccccccccccccccccccccccccccccccccc",
"ccccccccccccccccccccccccccccccccccccccccccccccccccc",
"ccccccccccccccccccccccccccccccccccccccccccccccccccc",
"ccccccccccccccccccccccccccccccccccccccccccccccccccc",
"ccccccccccccccccccccccllde%..#ccccccccccccccccccccc",
"ccccccccccccccccccclllllllld%...ccccccccccccccccccc",
"cccccccccccccccccclle%.8dllll8.#. ccccccccccccccccc",
"cccccccccccccccccld%.%llllllll8..#.cccccccccccccccc",
"ccccccccccccccccld..%llllllllll< .#cccccccccccccccc",
"ccccccccccccccccl%#.lll<y.llllll#   ccccccccccccccc",
"cccccccccccccccl8..8lll;s.lllllle  ##cccccccccccccc",
"cccccccccccccccl.#.llll%..dllllll#...cccccccccccccc",
"ccccccccccccccly.#<lll%.;#.dlllll3.. #ccccccccccccc",
"ccccccccccccccl<  slld.%s.%8llllls.. #ccccccccccccc",
"ccccccccccccccl.# llle.<y.e.llllll# .#ccccccccccccc",
"cccccccccccccll. #llls#%s.ldllllll##  ccccccccccccc",
"cccccccccccccll..%llll..s.llllllll%...ccccccccccccc",
"cccccccccccccls..%lllle...llllllll<. #ccccccccccccc",
"cccccccccccccld..<lllll-#.%lllllll;.. ccccccccccccc",
"cccccccccccccll..#lllll%s .8llllll;.# ccccccccccccc",
"cccccccccccccll..#lllll<s.8#llllll%##.ccccccccccccc",
"ccccccccccccccl..#lll<3%y.s.llllll....ccccccccccccc",
"ccccccccccccccl<..sll8#;y.8#llllls  .#ccccccccccccc",
"ccccccccccccccls..<lll..8..elllll2##..ccccccccccccc",
"ccccccccccccccll..#llld#..8llllll...#cccccccccccccc",
"cccccccccccccccle..8lll%s.lllllly..#.cccccccccccccc",
"cccccccccccccccll%#.dll%s.llllll# .#ccccccccccccccc",
"ccccccccccccccccll#.%dl8d-lllll8 #..ccccccccccccccc",
"cccccccccccccccccll%..dllllllle.# .cccccccccccccccc",
"cccccccccccccccccclls8;8dllll0.##.ccccccccccccccccc",
"cccccccccccccccccccllllldlll-...ccccccccccccccccccc",
"ccccccccccccccccccccccllls-.@.ccccccccccccccccccccc",
"ccccccccccccccccccccccccccccccccccccccccccccccccccc",
"ccccccccccccccccccccccccccccccccccccccccccccccccccc",
"ccccccccccccccccccccccccccccccccccccccccccccccccccc",
"ccccccccccccccccccccccccccccccccccccccccccccccccccc",
"ccccccccccccccccccccccccccccccccccccccccccccccccccc",
"ccccccccccccccccccccccccccccccccccccccccccccccccccc",
"ccccccccccccccccccccccccccccccccccccccccccccccccccc",
"ccccccccccccccccccccccccccccccccccccccccccccccccccc",
"ccccccccccccccccccccccccccccccccccccccccccccccccccc",
"ccccccccccccccccccccccccccccccccccccccccccccccccccc",
"ccccccccccccccccccccccccccccccccccccccccccccccccccc"
};
