/* XPM */
static char *_650217270553[] = {
/* columns rows colors chars-per-pixel */
"59 46 69 1 ",
"  c black",
". c #020202",
"X c #0C0C0C",
"o c gray5",
"O c gray6",
"+ c #101010",
"@ c #111111",
"# c #131313",
"$ c #1D1D1D",
"% c #202020",
"& c gray13",
"* c gray16",
"= c #2A2A2A",
"- c gray28",
"; c #4B4B4B",
": c gray30",
"> c #4E4E4E",
", c gray31",
"< c gray32",
"1 c #5A5A5A",
"2 c #5B5B5B",
"3 c gray36",
"4 c #5D5D5D",
"5 c gray37",
"6 c #606060",
"7 c gray42",
"8 c #6D6D6D",
"9 c gray43",
"0 c gray44",
"q c #727272",
"w c gray45",
"e c #777777",
"r c #7E7E7E",
"t c #808080",
"y c #818181",
"u c #838383",
"i c #868686",
"p c gray53",
"a c gray55",
"s c #939393",
"d c gray62",
"f c #A0A0A0",
"g c gray65",
"h c #A7A7A7",
"j c #AFAFAF",
"k c gray70",
"l c #B6B6B6",
"z c #B9B9B9",
"x c #C1C1C1",
"c c gray76",
"v c #C3C3C3",
"b c #C5C5C5",
"n c gray78",
"m c gray79",
"M c #CECECE",
"N c #D0D0D0",
"B c #D2D2D2",
"V c LightGray",
"C c gray83",
"Z c #D7D7D7",
"A c gray85",
"S c #E9E9E9",
"D c #EFEFEF",
"F c #F8F8F8",
"G c #F9F9F9",
"H c gray99",
"J c #FDFDFD",
"K c white",
"L c None",
/* pixels */
"LLLLLLLLLLLLLLLLLLLLLLLLLLLLLLLLLLLLLLLLLLLLLLLLLLLLLLLLLLL",
"LLLLLLLLLLLLLLLLLLLLLLLLLLLLLLLLLLLLLLLLLLLLLLLLLLLLLLLLLLL",
"LLLLLLLLLLLLLLLLLLLLLLLLLLLLLLLLLLLLLLLLLLLLLLLLLLLLLLLLLLL",
"LLLLLLLLLLLLLLLLLLLLLLLLLLLLLLLLLLLLLLLLLLLLLLLLLLLLLLLLLLL",
"LLLLLLLLLLLLLLLLLLLLLLLLLLLLLLLLLLLLLLLLLLLLLLLLLLLLLLLLLLL",
"LLLLLLLLLLLLLLLLLLLLLLLLLLLLLLLLLLLLLLLLLLLLLLLLLLLLLLLLLLL",
"LLLLLLLLLLLLLLLLLLLLLLLLLLLLLLLLLLLLLLLLLLLLLLLLLLLLLLLLLLL",
"LLLLLLLLLLLLLLLLLLLLLLLLLLLLLLLLLLLLLLLLLLLLLLLLLLLLLLLLLLL",
"LLLLLLLLLLLLLLLLLLLLLLLLLLLLLLLLLLLLLLLLLLLLLLLLLLLLLLLLLLL",
"LLLLLLLLLLLLLLLLLLLLLLLLLLLLLLLLLLLLLLLLLLLLLLLLLLLLLLLLLLL",
"LLLLLLLLLLLLLLLLLLLLLLLLLLLLLLLLLLLLLLLLLLLLLLLLLLLLLLLLLLL",
"LLLLLLLLLLLLLLLLLLLLLLLLLLLLLLLLLLLLLLLLLLLLLLLLLLLLLLLLLLL",
"LLLLLLLLLLLLLLLLLLLLLLLLLLLLLLLLLLLLLLLLLLLLLLLLLLLLLLLLLLL",
"LLLLLLLLLLLLLLLLLLLLLLLLLLLLLLLLLLLLLLLLLLLLLLLLLLLLLLLLLLL",
"LLLLLLLLLLLLLLLLLLLLLLLLLLLLLLLLLLLLLLLLLLLLLLLLLLLLLLLLLLL",
"LLLLLLLLLLLLLLLLLLLLLLLLLLLLLLLLLLLLLLLLLLLLLLLLLLLLLLLLLLL",
"LLLLLLLLLLLLLLLLLLLLLLLLLLLLLLLLLLLLLLLLLLLLLLLLLLLLLLLLLLL",
"LLLLLLLLLLLLLLLLLLLLLLLLL         LLLLLLLLLLLLLLLLLLLLLLLLL",
"LLLLLLLLLLLLLLLLLLLLLLL             LLLLLLLLLLLLLLLLLLLLLLL",
"LLLLLLLLLLLLLLLLLLLLL    5bCCCCCb5    LLLLLLLLLLLLLLLLLLLLL",
"LLLLLLLLLLLLLLLLLLLL   wCCCCCCCCCCC0   LLLLLLLLLLLLLLLLLLLL",
"LLLLLLLLLLLLLLLLLLL  +mADACCCCCCCCCCb+  LLLLLLLLLLLLLLLLLLL",
"LLLLLLLLLLLLLLLLLL  oBSHHGCCCCCCCCCCCBo  LLLLLLLLLLLLLLLLLL",
"LLLLLLLLLLLLLLLLLL  xCHHHCCCCCCCCCCCCCx  LLLLLLLLLLLLLLLLLL",
"LLLLLLLLLLLLLLLLL  5CCCACCCCCCCCCCCCCCC5  LLLLLLLLLLLLLLLLL",
"LLLLLLLLLLLLLLLLL  BCCGHCCCCCCCCCCCCCCCB  LLLLLLLLLLLLLLLLL",
"LLLLLLLLLLLLLLLLL =CCCCCCCCCCCCCCCCCCCCC= LLLLLLLLLLLLLLLLL",
"LLLLLLLLLLLLLLLL  6CCCCCCCCCCCCCCCCCCCCC6  LLLLLLLLLLLLLLLL",
"LLLLLLLLLLLLLLLL  tCCCCCCCCCCCCCCCCCCCCCr  LLLLLLLLLLLLLLLL",
"LLLLLLLLLLLLLLLL  tCCCCCCCCCCCCCCCCCCCCCt  LLLLLLLLLLLLLLLL",
"LLLLLLLLLLLLLLLL  iCCCCCCCCCCCCCCCCCCCCCi  LLLLLLLLLLLLLLLL",
"LLLLLLLLLLLLLLLL  tCCCCCCCCCCCCs9CCx<CCCt  LLLLLLLLLLLLLLLL",
"LLLLLLLLLLLLLLLL  tCCCCCCCCCCCCo CC; fCCi  LLLLLLLLLLLLLLLL",
"LLLLLLLLLLLLLLLL  iCCCCCCCCCCCC  lB$ 0CCt  LLLLLLLLLLLLLLLL",
"LLLLLLLLLLLLLLLL  tCCCCCCCCCCCC  zC& 0CCi  LLLLLLLLLLLLLLLL",
"LLLLLLLLLLLLLLLL  iCCCCCCCCCCCC+ CB; hCCt  LLLLLLLLLLLLLLLL",
"LLLLLLLLLLLLLLLL  tCCCCCCCCCCCCgtCCm5CCCi  LLLLLLLLLLLLLLLL",
"LLLLLLLLLLLLLLLL  iCCCCCCCCCCCCCCCCCCCCCt  LLLLLLLLLLLLLLLL",
"LLLLLLLLLLLLLLLL  tCCCCCCCCCCCCCCCCCCCCCi  LLLLLLLLLLLLLLLL",
"LLLLLLLLLLLLLLLL  iCCCCCCCCCCCCCCCCCCCCCt  LLLLLLLLLLLLLLLL",
"LLLLLLLLLLLLLLLL  tCCCCCCCCCCCCCCCCCCCCCi  LLLLLLLLLLLLLLLL",
"LLLLLLLLLLLLLLLL  iCCCCCCCCCCCCCCCCBCCCCt  LLLLLLLLLLLLLLLL",
"LLLLLLLLLLLLLLLL  iCCi>0MCBCdtaBCCClepBBi  LLLLLLLLLLLLLLLL",
"LLLLLLLLLLLLLLLL  >2+   ojk&   .9C9   o5>  LLLLLLLLLLLLLLLL",
"LLLLLLLLLLLLLLLL      L             L      LLLLLLLLLLLLLLLL",
"LLLLLLLLLLLLLLLLLLLLLLLLL  LLLLL   LLLLLLLLLLLLLLLLLLLLLLLL"
};
