/* XPM */
static char *_650217281604[] = {
/* columns rows colors chars-per-pixel */
"59 74 24 1 ",
"  c #FF5858",
". c #FF5959",
"X c #FF5A5A",
"o c #FF5C5C",
"O c #FF6060",
"+ c #FF6565",
"@ c #FF6969",
"# c #FF6E6E",
"$ c #FF6F6F",
"% c #FF7272",
"& c #FF9696",
"* c #FF9898",
"= c #FF9F9F",
"- c #FFA4A4",
"; c #FFB9B9",
": c #FFDDDD",
"> c #FFE0E0",
", c #FFF0F0",
"< c #FFF3F3",
"1 c snow",
"2 c #FFFBFB",
"3 c #FFFDFD",
"4 c white",
"5 c None",
/* pixels */
"55555555555555555555555555555555555555555555555555555555555",
"55555555555555555555555555555555555555555555555555555555555",
"55555555555555555555555555555555555555555555555555555555555",
"55555555555555555555555555555555555555555555555555555555555",
"55555555555555555555555555555555555555555555555555555555555",
"55555555555555555555555555555555555555555555555555555555555",
"55555555555555555555555555555555555555555555555555555555555",
"55555555555555555555555555555555555555555555555555555555555",
"55555555555555555555555555555555555555555555555555555555555",
"55555555555555555555555555555555555555555555555555555555555",
"55555555555555555555555555555555555555555555555555555555555",
"55555555555555555555555555555555555555555555555555555555555",
"55555555555555555555555555555555555555555555555555555555555",
"55555555555555555555555555555555555555555555555555555555555",
"55555555555555555555555555555555555555555555555555555555555",
"55555555555555555555555555555555555555555555555555555555555",
"55555555555555555555555555555555555555555555555555555555555",
"55555555555555555555555555555555555555555555555555555555555",
"55555555555555555555555555555555555555555555555555555555555",
"55555555555555555555555555555555555555555555555555555555555",
"55555555555555555555555555555555555555555555555555555555555",
"55555555555555555555555555555555555555555555555555555555555",
"55555555555555555555555555555555555555555555555555555555555",
"55555555555555555555555555555555555555555555555555555555555",
"55555555555555555555555555555555555555555555555555555555555",
"5555555555555555555555XXXXX555555X XX 555555555555555555555",
"55555555555555555555X XX XXX555 X X X X55555555555555555555",
"5555555555555555555XXXo%X X X XXXX X XXXX555555555555555555",
"555555555555555555XXX&33-XX X X X X X X X555555555555555555",
"555555555555555555XX=333&  X X X X X X X X55555555555555555",
"55555555555555555XXo33:$X X X X X X X X X 55555555555555555",
"55555555555555555X ;3>XXXX X X X X X X X XX5555555555555555",
"55555555555555555XX<3$ X X X X XX X X X X X5555555555555555",
"55555555555555555XX33 X X X X X  X X X X X 5555555555555555",
"5555555555555555XX 1,X X X X X XX X X X X X5555555555555555",
"5555555555555555 XX@+XX X X X X  X X X X XX5555555555555555",
"55555555555555555XX  X X X X X XX X X X  X 5555555555555555",
"55555555555555555X XX X X X X X  X X X XX X5555555555555555",
"55555555555555555XX  X X X X X XX X X X  XX5555555555555555",
"55555555555555555X XX X X X X X  X X X XXX55555555555555555",
"555555555555555555XX X X X X X XX X  X X X55555555555555555",
"5555555555555555555XX X X X X X  X XX X X555555555555555555",
"5555555555555555555X X X X X X XX X  XXX5555555555555555555",
"55555555555555555555X X X X X X  X XX XX5555555555555555555",
"555555555555555555555XXX X X X XX X X X55555555555555555555",
"5555555555555555555555X X X X X  X X X555555555555555555555",
"55555555555555555555555X X X X XX X X5555555555555555555555",
"55555555555555555555555XX X X X  X X55555555555555555555555",
"555555555555555555555555XXX  X X XXX55555555555555555555555",
"5555555555555555555555555X XX X X X555555555555555555555555",
"55555555555555555555555555X  X X X5555555555555555555555555",
"555555555555555555555555555XX X X55555555555555555555555555",
"555555555555555555555555555XXXXX555555555555555555555555555",
"5555555555555555555555555555X X5555555555555555555555555555",
"55555555555555555555555555555555555555555555555555555555555",
"55555555555555555555555555555555555555555555555555555555555",
"55555555555555555555555555555555555555555555555555555555555",
"55555555555555555555555555555555555555555555555555555555555",
"55555555555555555555555555555555555555555555555555555555555",
"55555555555555555555555555555555555555555555555555555555555",
"55555555555555555555555555555555555555555555555555555555555",
"55555555555555555555555555555555555555555555555555555555555",
"55555555555555555555555555555555555555555555555555555555555",
"55555555555555555555555555555555555555555555555555555555555",
"55555555555555555555555555555555555555555555555555555555555",
"55555555555555555555555555555555555555555555555555555555555",
"55555555555555555555555555555555555555555555555555555555555",
"55555555555555555555555555555555555555555555555555555555555",
"55555555555555555555555555555555555555555555555555555555555",
"55555555555555555555555555555555555555555555555555555555555",
"55555555555555555555555555555555555555555555555555555555555",
"55555555555555555555555555555555555555555555555555555555555",
"55555555555555555555555555555555555555555555555555555555555",
"55555555555555555555555555555555555555555555555555555555555"
};
