/* XPM */
static char *_651345910899[] = {
/* columns rows colors chars-per-pixel */
"55 60 233 2 ",
"   c #313131",
".  c #313232",
"X  c #323232",
"o  c #323333",
"O  c gray20",
"+  c #343333",
"@  c #343434",
"#  c #353434",
"$  c #353535",
"%  c gray21",
"&  c #373737",
"*  c #3A3736",
"=  c gray22",
"-  c #393939",
";  c #3A3A3A",
":  c gray23",
">  c #3E3A38",
",  c #3C3C3C",
"<  c gray24",
"1  c #3E3E3E",
"2  c #3F3F3F",
"3  c #433D3A",
"4  c #463F3B",
"5  c #48403C",
"6  c #4B423D",
"7  c gray25",
"8  c #414141",
"9  c gray26",
"0  c #434343",
"q  c #464240",
"w  c #444444",
"e  c gray27",
"r  c #464646",
"t  c gray28",
"y  c #4A4442",
"u  c #4F4641",
"i  c #484848",
"p  c #494949",
"a  c gray29",
"s  c #4C4C4C",
"d  c gray30",
"f  c #4E4E4E",
"g  c gray31",
"h  c #564A43",
"j  c #5A4D45",
"k  c #5B4D45",
"l  c #505050",
"z  c gray32",
"x  c #535353",
"c  c #565656",
"v  c gray35",
"b  c #5A5A5A",
"n  c gray36",
"m  c #5D5D5D",
"M  c gray37",
"N  c #5F5F5F",
"B  c #66544A",
"V  c #6F5A4E",
"C  c #7B6255",
"Z  c #606060",
"A  c #626262",
"S  c gray39",
"D  c #646464",
"F  c gray40",
"G  c #676767",
"H  c #686868",
"J  c #6A6A6A",
"K  c gray42",
"L  c #6C6C6C",
"P  c #6D6D6D",
"I  c gray43",
"U  c #6F6F6F",
"Y  c gray44",
"T  c #717171",
"R  c #727272",
"E  c gray45",
"W  c #777777",
"Q  c gray47",
"!  c #7B7B7B",
"~  c gray49",
"^  c #7E7E7E",
"/  c gray50",
"(  c #88756C",
")  c #9F7C68",
"_  c #A37F6B",
"`  c #978176",
"'  c #9E887D",
"]  c #A7826D",
"[  c #A7836F",
"{  c #A78C7D",
"}  c #A88D7F",
"|  c #BA9078",
" . c #808080",
".. c #818181",
"X. c gray51",
"o. c #838383",
"O. c #848484",
"+. c gray52",
"@. c #868686",
"#. c #888888",
"$. c #898989",
"%. c gray54",
"&. c #8B8B8B",
"*. c gray55",
"=. c #8D8D8D",
"-. c #8E8E8E",
";. c gray56",
":. c #909090",
">. c gray57",
",. c #929292",
"<. c #939393",
"1. c gray58",
"2. c #959595",
"3. c gray59",
"4. c #979797",
"5. c gray60",
"6. c #9A9A9A",
"7. c #9B9B9B",
"8. c gray61",
"9. c #9D9D9D",
"0. c gray62",
"q. c #9F9F9F",
"w. c #A68E82",
"e. c #BDA194",
"r. c #A0A0A0",
"t. c gray63",
"y. c #A2A2A2",
"u. c gray64",
"i. c #A4A4A4",
"p. c #A5A5A5",
"a. c gray65",
"s. c #A7A7A7",
"d. c gray66",
"f. c #A9A9A9",
"g. c #AAAAAA",
"h. c gray67",
"j. c #ACACAC",
"k. c gray68",
"l. c #AEAEAE",
"z. c #AFAFAF",
"x. c gray69",
"c. c #B1B1B1",
"v. c #B2B2B2",
"b. c gray70",
"n. c #B4B4B4",
"m. c gray71",
"M. c #B6B6B6",
"N. c #B7B7B7",
"B. c gray72",
"V. c #B9B9B9",
"C. c #BBBBBB",
"Z. c #BCBCBC",
"A. c gray74",
"S. c gray",
"D. c gray75",
"F. c #CC9D82",
"G. c #CD9F84",
"H. c #CFA086",
"J. c #CFA187",
"K. c #C1A496",
"L. c #C3AA9C",
"P. c #CEAE9E",
"I. c #D6AB94",
"U. c #DBB29C",
"Y. c #D5B6A7",
"T. c #E0B8A3",
"R. c #E0BAA6",
"E. c #E3BDA9",
"W. c #E0BEAE",
"Q. c #E7C1AE",
"!. c #E8C3AF",
"~. c #E6C4B2",
"^. c #E9C4B1",
"/. c #EAC6B3",
"(. c #EAC6B4",
"). c #EBC7B5",
"_. c #ECC7B5",
"`. c #ECC8B6",
"'. c #EEC9B7",
"]. c #C0C0C0",
"[. c #C1C1C1",
"{. c gray76",
"}. c #C3C3C3",
"|. c gray77",
" X c #C5C5C5",
".X c #C6C6C6",
"XX c #C8C8C8",
"oX c gray79",
"OX c #CACACA",
"+X c #CBCBCB",
"@X c #CDCDCD",
"#X c #CECECE",
"$X c #D0D0D0",
"%X c gray82",
"&X c #D2D2D2",
"*X c LightGray",
"=X c gray83",
"-X c #D5D5D5",
";X c gray84",
":X c #D7D7D7",
">X c #D8D8D8",
",X c gray85",
"<X c #DADADA",
"1X c gray86",
"2X c gainsboro",
"3X c #DDDDDD",
"4X c gray87",
"5X c #EECFC0",
"6X c gray88",
"7X c #E1E1E1",
"8X c gray89",
"9X c #E4E4E4",
"0X c gray90",
"qX c #E6E6E6",
"wX c #E7E7E7",
"eX c gray91",
"rX c #E9E9E9",
"tX c #EAEAEA",
"yX c gray92",
"uX c #ECECEC",
"iX c gray93",
"pX c #EFEFEF",
"aX c gray95",
"sX c #F3F3F3",
"dX c #F4F4F4",
"fX c gray96",
"gX c gray97",
"hX c #F8F8F8",
"jX c #FBFBFB",
"kX c #FDFDFD",
"lX c #FEFEFE",
"zX c white",
"xX c None",
/* pixels */
"xXxXxXxXxXxXxXxXxXxXxXxXxXxXxXxXxXxXxXxXxXxXxXxXxXxXxXxXxXxXxXxXxXxXxXxXxXxXxXxXxXxXxXxXxXxXxXxXxXxXxXxXxXxXxX",
"xXxXxXxXxXxXxXxXxXxXxXxXxXxXxXxXxXxXxXxXxXxXxXxXxXxXxXxXxXxXxXxXxXxXxXxXxXxXxXxXxXxXxXxXxXxXxXxXxXxXxXxXxXxXxX",
"xXxXxXxXxXxXxXxXxXxXxXxXxXxXxXxXxXxXxXxXxXxXxXxXxXxXxXxXxXxXxXxXxXxXxXxXxXxXxXxXxXxXxXxXxXxXxXxXxXxXxXxXxXxXxX",
"xXxXxXxXxXxXxXxXxXxXxXxXxXxXxXxXxXxXxXxXxXxXxXxXxXxXxXxXxXxXxXxXxXxXxXxXxXxXxXxXxXxXxXxXxXxXxXxXxXxXxXxXxXxXxX",
"xXxXxXxXxXxXxXxXxXxXxXxXxXxXxXxXxXxXxXxXxXxXxXxXxXxXxXxXxXxXxXxXxXxXxXxXxXxXxXxXxXxXxXxXxXxXxXxXxXxXxXxXxXxXxX",
"xXxXxXxXxXxXxXxXxXxXxXxXxXxXxXxXxXxXxXxXxXxXxXxXxXO & r z O O O xXxXxXxXxXxXxXxXxXxXxXxXxXxXxXxXxXxXxXxXxXxXxX",
"xXxXxXxXxXxXxXxXxXxXxXxXxXxXxXxXxXxXxXxXxXxXxXxXxX& ,X,X,X,X,XB.b O xXxXxXxXxXxXxXxXxXxXxXxXxXxXxXxXxXxXxXxXxX",
"xXxXxXxXxXxXxXxXxXxXxXxXxXxXxXxXxXxXxXxXxXxXxXxXxX  ,Xa.a.a.a.f.D.[.r O xXxXxXxXxXxXxXxXxXxXxXxXxXxXxXxXxXxXxX",
"xXxXxXxXxXxXxXxXxXxXxXxXxXxXxXxXxXxXxXxXxXxXxXxXxXO ,Xa.a.a.a.a.a.a.b.@.O xXxXxXxXxXxXxXxXxXxXxXxXxXxXxXxXxXxX",
"xXxXxXxXxXxXxXxXxXxXxXxXxXxXxXxXxXxXxXxXxXxXxXxXxXO ,Xa.a.a.a.a.a.a.a.a.=.O xXxXxXxXxXxXxXxXxXxXxXxXxXxXxXxXxX",
"xXxXxXxXxXxXxXxXxXxXxXxXxXxXxXxXxXxXxXxXxXxXxXxXxXO ,Xf.a.a.a.a.1.P ; O O O O O xXxXxXxXxXxXxXxXxXxXxXxXxXxXxX",
"xXxXxXxXxXxXxXxXxXxXxXxXxXxXxXxXxXxXxXxXxXxXxXxXxXO ,Xl.a.a.W & a @.t.a.a.a.a...& O xXxXxXxXxXxXxXxXxXxXxXxXxX",
"xXxXxXxXxXxXxXxXxXxXxXxXxXxXxXxXxXxXxXxXxXxXxXxXO O ,Xb.T O T a.b.b.f.a.a.a.a.a.a.T O xXxXxXxXxXxXxXxXxXxXxXxX",
"xXxXxXxXxXxXxXxXxXxXxXxXxXxXxXxXxXxXxXxXxXxXxXO $X; ; & @.$X,X,X,X,X,X,X[.a.a.a.a.a.=.O xXxXxXxXxXxXxXxXxXxXxX",
"xXxXxXxXxXxXxXxXxXxXxXxXxXxXxXxXxXxXxXxXxXxX2 fX3X,X:X,X,X,X,X,X,X,X,X,X,X,Xf.a.a.a.a.:.& xXxXxXxXxXxXxXxXxXxX",
"xXxXxXxXxXxXxXxXxXxXxXxXxXxXxXxXxXxXxXxXxXO fX,X,X,X,X,X,X,X,X,X,X,X,X,X,X,X,XN.a.a.a.a.P O xXxXxXxXxXxXxXxXxX",
"xXxXxXxXxXxXxXxXxXxXxXxXxXxXxXxXxXxXxXxXO [.qX,X,X,X,X,X,X,X,X,X,X,X,X,X,X,X,X,Xl.a.a.a.a.O xXxXxXxXxXxXxXxXxX",
"xXxXxXxXxXxXxXxXxXxXxXxXxXxXxXxXxXxXxXxX& kX,X,X:X,X,X,X,X,X,X,X,X,X,X,X,X,X,X,X>Xa.a.a.a.D O xXxXxXxXxXxXxXxX",
"xXxXxXxXxXxXxXxXxXxXxXxXxXxXxXxXxXxXxXO a.qX,Xl.O O O c ..D.:X,X,X,X,X,X,X,X,X,X,XD.a.a.a.=.O xXxXxXxXxXxXxXxX",
"xXxXxXxXxXxXxXxXxXxXxXxXxXxXxXxXxXxXxXO rX,XD H =.N.$XOXb.~ 2 O S t.OX,X,X,XB.@ O D a.a.a.1.O xXxXxXxXxXxXxXxX",
"xXxXxXxXxXxXxXxXxXxXxXxXxXxXxXxXxXxXxXO iX; B.iX..8.1.d a.f..X$X|.1.l @ P N.& pX,XT S a.a.a.O xXxXxXxXxXxXxXxX",
"xXxXxXxXxXxXxXxXxXxXxXxXxXxXxXxXxXxXxXO & 8X..[.~ t.:.a a.O a.P a.j.D.$XD.b l.n.B.B.O a.a.a.O xXxXxXxXxXxXxXxX",
"xXxXxXxXxXxXxXxXxXxXxXxXxXxXxXxXxXxX& 0 $X.X..D...a.:.m a.O a.& a.a.a.a.a.T $X@X@ N.& a.a.a.O xXxXxXxXxXxXxXxX",
"xXxXxXxXxXxXxXxXxXxXxXxXxXxXxXxXxXxXO :X1.a.W [.Q t.%.m a.O a.O i.a.a.a.T O 8.:XN.1.O a.a.a.O xXxXxXxXxXxXxXxX",
"xXxXxXxXxXxXxXxXxXxXxXO d O O O O xX& N.l.[.~ [...f.%.D a.& a.a.a.8.D O O a.& [.f.P m a.a.a.O xXxXxXxXxXxXxXxX",
"xXxXxXxXxXxXxXxXxXxXxXc ,Xb.f.a.a xXxXO a.3XU OXa.a...D a.a.a.=.a * ) F.O $X8.w O S a.a.a.a.O xXxXxXxXxXxXxXxX",
"xXxXxXxXxXxXxXxXxXxXO t.,Xl.a.a..XO xXO k S 3X,X.Xa.a.a.8.D O V | G.U.F.> :X@Xa.a.a.N.a.a.a.O xXxXxXxXxXxXxXxX",
"xXxXxXxXxXxXxXxXxXxXO 8X,X,Xa.f.qX6.O O L.] & :.,X8.T & 6 _ I.E.`.`.`.J.k $X,X,X,X,XN.a.a.a.O xXxXxXxXxXxXxXxX",
"xXxXxXxXxXxXxXxXxXxXO aX,X,XOX$X8XqX2 O 3X`.^.} & u } R.).`.`.`.`.Q.] 3 d :X,X,X,X,XB.a.a.a.O xXxXxXxXxXxXxXxX",
"xXxXxXxXxXxXxXxXxXxXxXd fX,X,XrX8X,X@.O Q Y.).C = K.`.`.`.`.`.`.` O @.8X,X,X,X,X,X:Xf.a.a.c O xXxXxXxXxXxXxXxX",
"xXxXxXxXxXxXxXxXxXxXxX& =.rXrXaX8XN.D.6.$Xy ~.. '.'.`.`.`.`.`.`.O kX8X,X,X,X,X,XOXa.a...O O xXxXxXxXxXxXxXxXxX",
"xXxXxXxXxXxXxXxXxXxXxXxXO OXaXaX8X8X.X..,X& `.w.' '.`.`.`.`.`.`.O kX,X,X,X,X$Xl.a.D O O xXxXxXxXxXxXxXxXxXxXxX",
"xXxXxXxXxXxXxXxXxXxXxXxXxXO aXaX8XrXOXm ,XO T.`.`.`.' ( e.`.`.).6 rX,X,X@Xl.1.m O 7.G O O xXxXxXxXxXxXxXxXxXxX",
"xXxXxXxXxXxXxXxXxXxXxXxXxXxXa hXaXaXf.; N.O G.).`.`.~.`.`.'.W.P.B b.B.:.m O O O 8.C.a.a.6.O xXxXxXxXxXxXxXxXxX",
"xXxXxXxXxXxXxXxXxXxXxXxXxXxXO ..hX8X$Xt.0 O O 3 h q O O O O ; r P O & & t...O =.[.a.a.a.a.D & xXxXxXxXxXxXxXxX",
"xXxXxXxXxXxXxXxXxXxXxXxXxXxXxXO .X3X,Xl.P & 2 2 O xXO O B.O S :X,Xs.L .X,X1.H XXa.a.a.a.a.t.O xXxXxXxXxXxXxXxX",
"xXxXxXxXxXxXxXxXxXxXxXxXxXxXxXxXO iXB.r 0 0 & O O O D.O 8Xm rX,X,Xl.m =.$X2 :Xa.a.a.a.a.a.a.; xXxXxXxXxXxXxXxX",
"xXxXxXxXxXxXxXxXxXxXxXxXxXxXxXxXxX0 & z a ; 6.iXD N.,XO ,Xd :.OX.X%.O O O qX,Xh.a.a.a.a.a.a.H O xXxXxXxXxXxXxX",
"xXxXxXxXxXxXxXxXxXxXxXxXxXxXxXxXO ; c a & O qX,X,X2 N.O ; =.;.a O m f.W :.iX,X,X[.a.a.a.a.a.@.O xXxXxXxXxXxXxX",
"xXxXxXxXxXxXxXxXxXxXxXxXxXxXxXxXO a 0 O @X@.a..X6.$X& O 3Xt.=..XN.%.m & hX,X,X,X,X$Xf.a.a.a.%.O xXxXxXxXxXxXxX",
"xXxXxXxXxXxXxXxXxXxXxXxXxXxXxXxXxXO O O ,X:XO m O W f.O d 1.l.d %.@.@.N.qX,X,X,X,X,X,XD.a.a.Q & xXxXxXxXxXxXxX",
"xXxXxXxXxXxXxXxXxXxXxXxXxXxXxXxXxXxXxXO D ,X:Xf.N.& ..O D ~ =.0 r O O H kX,X,X,X,X,X,X,X$Xf.D O xXxXxXxXxXxXxX",
"xXxXxXxXxXxXxXxXxXxXxXxXxXxXxXxXxXxXxXxX& :.,X,Xl.D O O a 0 2 a d 0 O & ,XiX,X,X,X,X,X,X,XOXO xXxXxXxXxXxXxXxX",
"xXxXxXxXxXxXxXxXxXxXxXxXxXxXxXxXxXxXxXxXxXO 1.a.=.& d O & 2 0 2 ; & ; a & $XfXfXrXqXqX[.m O xXxXxXxXxXxXxXxXxX",
"xXxXxXxXxXxXxXxXxXxXxXxXxXxXxXxXxXxXxXxXxXxXO O O 8.& xXO 0 2 ; O O 0 a 2 & O O O O O O xXxXxXxXxXxXxXxXxXxXxX",
"xXxXxXxXxXxXxXxXxXxXxXxXxXxXxXxXxXxXxXxXxXxXxXxXxXO xXxXO 2 O m ~ ; 1.O & O xXxXxXxXxXxXxXxXxXxXxXxXxXxXxXxXxX",
"xXxXxXxXxXxXxXxXxXxXxXxXxXxXxXxXxXxXxXxXxXxXxXxXxXxXxXxX& %.,XOXT 1.,XOX8.& xXxXxXxXxXxXxXxXxXxXxXxXxXxXxXxXxX",
"xXxXxXxXxXxXxXxXxXxXxXxXxXxXxXxXxXxXxXxXxXxXxXxXxXxXxXxXxXO N.S & & d %.Q O xXxXxXxXxXxXxXxXxXxXxXxXxXxXxXxXxX",
"xXxXxXxXxXxXxXxXxXxXxXxXxXxXxXxXxXxXxXxXxXxXxXxXxXxXxXxXxXO O O xXxXxXO O xXxXxXxXxXxXxXxXxXxXxXxXxXxXxXxXxXxX",
"xXxXxXxXxXxXxXxXxXxXxXxXxXxXxXxXxXxXxXxXxXxXxXxXxXxXxXxXxXxXxXxXxXxXxXxXxXxXxXxXxXxXxXxXxXxXxXxXxXxXxXxXxXxXxX",
"xXxXxXxXxXxXxXxXxXxXxXxXxXxXxXxXxXxXxXxXxXxXxXxXxXxXxXxXxXxXxXxXxXxXxXxXxXxXxXxXxXxXxXxXxXxXxXxXxXxXxXxXxXxXxX",
"xXxXxXxXxXxXxXxXxXxXxXxXxXxXxXxXxXxXxXxXxXxXxXxXxXxXxXxXxXxXxXxXxXxXxXxXxXxXxXxXxXxXxXxXxXxXxXxXxXxXxXxXxXxXxX",
"xXxXxXxXxXxXxXxXxXxXxXxXxXxXxXxXxXxXxXxXxXxXxXxXxXxXxXxXxXxXxXxXxXxXxXxXxXxXxXxXxXxXxXxXxXxXxXxXxXxXxXxXxXxXxX",
"xXxXxXxXxXxXxXxXxXxXxXxXxXxXxXxXxXxXxXxXxXxXxXxXxXxXxXxXxXxXxXxXxXxXxXxXxXxXxXxXxXxXxXxXxXxXxXxXxXxXxXxXxXxXxX",
"xXxXxXxXxXxXxXxXxXxXxXxXxXxXxXxXxXxXxXxXxXxXxXxXxXxXxXxXxXxXxXxXxXxXxXxXxXxXxXxXxXxXxXxXxXxXxXxXxXxXxXxXxXxXxX",
"xXxXxXxXxXxXxXxXxXxXxXxXxXxXxXxXxXxXxXxXxXxXxXxXxXxXxXxXxXxXxXxXxXxXxXxXxXxXxXxXxXxXxXxXxXxXxXxXxXxXxXxXxXxXxX",
"xXxXxXxXxXxXxXxXxXxXxXxXxXxXxXxXxXxXxXxXxXxXxXxXxXxXxXxXxXxXxXxXxXxXxXxXxXxXxXxXxXxXxXxXxXxXxXxXxXxXxXxXxXxXxX",
"xXxXxXxXxXxXxXxXxXxXxXxXxXxXxXxXxXxXxXxXxXxXxXxXxXxXxXxXxXxXxXxXxXxXxXxXxXxXxXxXxXxXxXxXxXxXxXxXxXxXxXxXxXxXxX",
"xXxXxXxXxXxXxXxXxXxXxXxXxXxXxXxXxXxXxXxXxXxXxXxXxXxXxXxXxXxXxXxXxXxXxXxXxXxXxXxXxXxXxXxXxXxXxXxXxXxXxXxXxXxXxX",
"xXxXxXxXxXxXxXxXxXxXxXxXxXxXxXxXxXxXxXxXxXxXxXxXxXxXxXxXxXxXxXxXxXxXxXxXxXxXxXxXxXxXxXxXxXxXxXxXxXxXxXxXxXxXxX"
};
