/* XPM */
static char *_651345973034[] = {
/* columns rows colors chars-per-pixel */
"55 60 236 2 ",
"   c #313131",
".  c #323232",
"X  c #323333",
"o  c gray20",
"O  c #343434",
"+  c #353434",
"@  c #353534",
"#  c #353535",
"$  c #373635",
"%  c gray21",
"&  c #373737",
"*  c #383736",
"=  c #393736",
"-  c gray22",
";  c #393939",
":  c #3A3A3A",
">  c gray23",
",  c #3C3C3C",
"<  c gray24",
"1  c #3F3F3F",
"2  c #433E3B",
"3  c #443E3A",
"4  c #48403C",
"5  c #4D433E",
"6  c #4E443E",
"7  c gray25",
"8  c #414141",
"9  c gray26",
"0  c #434343",
"q  c #444444",
"w  c gray27",
"e  c #464646",
"r  c gray28",
"t  c #484848",
"y  c #494949",
"u  c gray29",
"i  c #4B4B4B",
"p  c #4C4C4C",
"a  c gray30",
"s  c gray31",
"d  c #5A514C",
"f  c #505050",
"g  c #515151",
"h  c gray32",
"j  c #535353",
"k  c gray33",
"l  c #555555",
"z  c #565656",
"x  c #585858",
"c  c gray35",
"v  c #5A5A5A",
"b  c gray36",
"n  c #5D5D5D",
"m  c gray37",
"M  c #5F5F5F",
"N  c #625148",
"B  c #6D594E",
"V  c #655A54",
"C  c #786053",
"Z  c #606060",
"A  c #626262",
"S  c gray39",
"D  c #646464",
"F  c #656565",
"G  c gray40",
"H  c #676767",
"J  c #686868",
"K  c DimGray",
"L  c #6A6A6A",
"P  c gray42",
"I  c #6C6C6C",
"U  c #6D6D6D",
"Y  c gray43",
"T  c #6F6F6F",
"R  c gray44",
"E  c #717171",
"W  c #727272",
"Q  c gray45",
"!  c #767676",
"~  c #777777",
"^  c gray47",
"/  c #797979",
"(  c #7B7B7B",
")  c #7C7C7C",
"_  c gray49",
"`  c #7E7E7E",
"'  c #816658",
"]  c #8B766B",
"[  c #8B776E",
"{  c #917261",
"}  c #997866",
"|  c #947E73",
" . c #927E74",
".. c #A6826D",
"X. c #A4887A",
"o. c #B08872",
"O. c #C2967C",
"+. c #808080",
"@. c #818181",
"#. c gray51",
"$. c #838383",
"%. c #848484",
"&. c #868686",
"*. c #888888",
"=. c #898989",
"-. c gray54",
";. c #8B8B8B",
":. c gray55",
">. c #8D8D8D",
",. c #8E8E8E",
"<. c gray56",
"1. c #909090",
"2. c gray57",
"3. c #929292",
"4. c gray58",
"5. c gray59",
"6. c #979797",
"7. c #989898",
"8. c #9A9A9A",
"9. c #9B9B9B",
"0. c gray61",
"q. c #9D9D9D",
"w. c gray62",
"e. c #9F9F9F",
"r. c #A38C80",
"t. c #AD9488",
"y. c #A0A0A0",
"u. c gray63",
"i. c #A2A2A2",
"p. c gray64",
"a. c #A4A4A4",
"s. c #A5A5A5",
"d. c gray65",
"f. c #A7A7A7",
"g. c gray66",
"h. c #A9A9A9",
"j. c #AAAAAA",
"k. c gray67",
"l. c #ACACAC",
"z. c gray68",
"x. c #AEAEAE",
"c. c #AFAFAF",
"v. c gray69",
"b. c #B1B1B1",
"n. c gray70",
"m. c #B4B4B4",
"M. c gray71",
"N. c #B6B6B6",
"B. c #B7B7B7",
"V. c #BBBBBB",
"C. c #BCBCBC",
"Z. c gray74",
"A. c gray",
"S. c gray75",
"D. c #CC9D82",
"F. c #CD9E83",
"G. c #D0A289",
"H. c #D0A389",
"J. c #CBA895",
"K. c #C3A698",
"L. c #CBAC9C",
"P. c #CDAE9F",
"I. c #D8AD96",
"U. c #DEB6A1",
"Y. c #DEB8A4",
"T. c #DFBDAC",
"R. c #E2BBA6",
"E. c #E1BBA8",
"W. c #E3BDA9",
"Q. c #E0BEAD",
"!. c #E5BFAC",
"~. c #E3C1AF",
"^. c #E7C1AE",
"/. c #EAC5B3",
"(. c #EBC7B4",
"). c #EBC7B5",
"_. c #EBC8B6",
"`. c #ECC8B6",
"'. c #EDC9B7",
"]. c #EEC9B7",
"[. c #C0C0C0",
"{. c #C1C1C1",
"}. c gray76",
"|. c #C3C3C3",
" X c gray77",
".X c #C5C5C5",
"XX c #C6C6C6",
"oX c gray78",
"OX c #C8C8C8",
"+X c gray79",
"@X c #CACACA",
"#X c gray80",
"$X c #CECECE",
"%X c #D0D0D0",
"&X c gray82",
"*X c #D2D2D2",
"=X c LightGray",
"-X c gray83",
";X c #D5D5D5",
":X c gray84",
">X c #D7D7D7",
",X c #D8D8D8",
"<X c gray85",
"1X c #DADADA",
"2X c gray86",
"3X c gainsboro",
"4X c #DDDDDD",
"5X c gray87",
"6X c #DFDFDF",
"7X c #EED0C1",
"8X c gray88",
"9X c #E1E1E1",
"0X c gray89",
"qX c #E4E4E4",
"wX c gray90",
"eX c #E6E6E6",
"rX c #E7E7E7",
"tX c #E9E9E9",
"yX c #EAEAEA",
"uX c gray92",
"iX c #ECECEC",
"pX c gray93",
"aX c #EEEEEE",
"sX c gray94",
"dX c #F1F1F1",
"fX c #F3F3F3",
"gX c #F4F4F4",
"hX c gray96",
"jX c gray97",
"kX c #F8F8F8",
"lX c #F9F9F9",
"zX c gray98",
"xX c gray99",
"cX c #FDFDFD",
"vX c white",
"bX c None",
/* pixels */
"bXbXbXbXbXbXbXbXbXbXbXbXbXbXbXbXbXbXbXbXbXbXbXbXbXbXbXbXbXbXbXbXbXbXbXbXbXbXbXbXbXbXbXbXbXbXbXbXbXbXbXbXbXbXbX",
"bXbXbXbXbXbXbXbXbXbXbXbXbXbXbXbXbXbXbXbXbXbXbXbXbXbXbXbXbXbXbXbXbXbXbXbXbXbXbXbXbXbXbXbXbXbXbXbXbXbXbXbXbXbXbX",
"bXbXbXbXbXbXbXbXbXbXbXbXbXbXbXbXbXbXbXbXbXbXbXbXbXbXbXbXbXbXbXbXbXbXbXbXbXbXbXbXbXbXbXbXbXbXbXbXbXbXbXbXbXbXbX",
"bXbXbXbXbXbXbXbXbXbXbXbXbXbXbXbXbXbXbXbXbXbXbXbXbXbXbXbXbXbXbXbXbXbXbXbXbXbXbXbXbXbXbXbXbXbXbXbXbXbXbXbXbXbXbX",
"bXbXbXbXbXbXbXbXbXbXbXbXbXbXbXbXbXbXbXbXbXbXbXbXbXbXbXbXbXbXbXbXbXbXbXbXbXbXbXbXbXbXbXbXbXbXbXbXbXbXbXbXbXbXbX",
"bXbXbXbXbXbXbXbXbXbXbXbXbXbXbXbXbXbXbXbXbXbXbXbXbXo & q 0 o o o bXbXbXbXbXbXbXbXbXbXbXbXbXbXbXbXbXbXbXbXbXbXbX",
"bXbXbXbXbXbXbXbXbXbXbXbXbXbXbXbXbXbXbXbXbXbXbXbXo &.<X<X<X<X:Xd.0 o bXbXbXbXbXbXbXbXbXbXbXbXbXbXbXbXbXbXbXbXbX",
"bXbXbXbXbXbXbXbXbXbXbXbXbXbXbXbXbXbXbXbXbXbXbXbX& @.:Xd.d.d.d.l.}.v.& o bXbXbXbXbXbXbXbXbXbXbXbXbXbXbXbXbXbXbX",
"bXbXbXbXbXbXbXbXbXbXbXbXbXbXbXbXbXbXbXbXbXbXbXbXo ` <Xd.d.d.d.d.d.d.B.S o bXbXbXbXbXbXbXbXbXbXbXbXbXbXbXbXbXbX",
"bXbXbXbXbXbXbXbXbXbXbXbXbXbXbXbXbXbXbXbXbXbXbXbXbXR <Xd.d.d.d.d.d.d.d.d.! o bXbXbXbXbXbXbXbXbXbXbXbXbXbXbXbXbX",
"bXbXbXbXbXbXbXbXbXbXbXbXbXbXbXbXbXbXbXbXbXbXbXbXbXj <Xd.d.d.d.d.>.c & o & o o o bXbXbXbXbXbXbXbXbXbXbXbXbXbXbX",
"bXbXbXbXbXbXbXbXbXbXbXbXbXbXbXbXbXbXbXbXbXbXbXbXbX& <Xd.d.y.S o m 1.d.d.d.d.d.@.& o bXbXbXbXbXbXbXbXbXbXbXbXbX",
"bXbXbXbXbXbXbXbXbXbXbXbXbXbXbXbXbXbXbXbXbXbXbXbXo o <Xy.m & &.l.B.v.k.d.d.d.d.d.d.P o bXbXbXbXbXbXbXbXbXbXbXbX",
"bXbXbXbXbXbXbXbXbXbXbXbXbXbXbXbXbXbXbXbXbXbX& ; 9Xo 1 o 0.=X<X<X<X<X<X<XC.d.d.d.d.d.=.o bXbXbXbXbXbXbXbXbXbXbX",
"bXbXbXbXbXbXbXbXbXbXbXbXbXbXbXbXbXbXbXbXbXo j kX<X=X:X<X<X<X<X<X<X<X<X<X<X:Xk.d.d.d.d.=.o bXbXbXbXbXbXbXbXbXbX",
"bXbXbXbXbXbXbXbXbXbXbXbXbXbXbXbXbXbXbXbXbX; kX<X<X<X<X<X<X<X<X<X<X<X<X<X<X<X<Xl.d.d.d.d.m o bXbXbXbXbXbXbXbXbX",
"bXbXbXbXbXbXbXbXbXbXbXbXbXbXbXbXbXbXbXbXo 4X4X<X<X<X<X<X<X<X<X<X<X<X<X<X<X<X<X<Xk.d.d.d.d.o bXbXbXbXbXbXbXbXbX",
"bXbXbXbXbXbXbXbXbXbXbXbXbXbXbXbXbXbXbXbXz kX<X<X<X<X<X<X<X<X<X<X<X<X<X<X<X<X<X<X:Xd.d.d.d.y bXbXbXbXbXbXbXbXbX",
"bXbXbXbXbXbXbXbXbXbXbXbXbXbXbXbXbXbXbXo @X9X<Xd.& o & P >.}.:X<X<X<X<X<X<X<X<X:X:Xv.d.d.d.R & bXbXbXbXbXbXbXbX",
"bXbXbXbXbXbXbXbXbXbXbXbXbXbXbXbXbXbXbXo kX:Xm R R $X:X}.d.^ ; o H 0.OX<X<X<X<.; 1 c d.d.d.=.o bXbXbXbXbXbXbXbX",
"bXbXbXbXbXbXbXbXbXbXbXbXbXbXbXbXbXbXbXo tX& C.tXj d.@.P d.k..X:X|.4.x o F 0.m iX,XY Y d.d.4.o bXbXbXbXbXbXbXbX",
"bXbXbXbXbXbXbXbXbXbXbXbXbXbXbXbXbXbXbXo o eXj <X0 d.^ P d.& d.F d.k.C.=X}.b <X9.>.l.o d.d.p.o bXbXbXbXbXbXbXbX",
"bXbXbXbXbXbXbXbXbXbXbXbXbXbXbXbXbXbXo 0 =X=X0 :X0 d.! F d.o d.o d.d.d.g.d.J 4X}.o l.& d.d.d.O bXbXbXbXbXbXbXbX",
"bXbXbXbXbXbXbXbXbXbXbXbXbXbXbXbXbXbXo eX@.C.q =Xq d.R P d.o d.o d.d.d.0.b o v.}.$X0.o d.d.d.o bXbXbXbXbXbXbXbX",
"bXbXbXbXbXbXbXbXbXbXbXbXbXbXbXbXbXbXo :X<.XX0 ;XY d.R Y d.; d.d.d.4.z * o y.O m.y.j ^ d.d.d.o bXbXbXbXbXbXbXbX",
"bXbXbXbXbXbXbXbXbXbXbXbXbXbXbXbXbXbXbXX $X<Xy <X>.d.Y R d.d.d.&.1 5 o.D.o :Xe.s & ` d.d.d.d.o bXbXbXbXbXbXbXbX",
"bXbXbXbXbXbXbXbXbXbXbXbXbXbXbXbXbXbXbXX 4 >.3X<XC.d.d.d.8.D o C O.G.U.F.o <X=Xd.d.v.B.d.d.d.o bXbXbXbXbXbXbXbX",
"bXbXbXbXbXbXbXbXbXbXbXbXbXbXbXbXbXbXbXX J.{ X g.<Xy.R & 5 ..I.!.`.`.).F.* ,X,X<X<X<XB.d.d.d.o bXbXbXbXbXbXbXbX",
"bXbXbXbXbXbXbXbXbXbXbXbXbXbXbXbXbXbXbXo 0X'.T.X.o 2 X.Y.).`.`.`.).R.} & P <X<X<X<X<XB.d.d.d.& bXbXbXbXbXbXbXbX",
"bXbXbXbXbXbXbXbXbXbXbXbXbXbXbXbXbXbXo o <.T.).C o P.`.`.`.`.`.`.] o 0.0X<X<X<X<X<X=Xd.d.8.; o bXbXbXbXbXbXbXbX",
"bXbXbXbXbXbXbXbXbXbXbXbXbXbXbXbXbXbXo y.B.d T.  '.'.`.`.`.`.`.`.o vX4X<X<X<X<X<X}.d.y.F o bXbXbXbXbXbXbXbXbXbX",
"bXbXbXbXbXbXbXbXbXbXbXbXbXbXbXbXbXbX& @.3X% _.X.t.'.`.`.`.`.`._.o vX<X<X<X<X@Xk.0.F o o bXbXbXbXbXbXbXbXbXbXbX",
"bXbXbXbXbXbXbXbXbXbXbXo o o bXbXbXbXbXF <X& R.`.`.`.r.[ K.`.`./.3 iX<X<X.Xk.*.y o o bXbXbXbXbXbXbXbXbXbXbXbXbX",
"bXbXbXbXbXbXbXbXo o c 8.y.Y o bXbXbXbXo }.o G.`.`.`.~._.`.`.Q.P.N l.B.&.j o o bXbXbXbXbXbXbXbXbXbXbXbXbXbXbXbX",
"bXbXbXbXbXbXbXo S @Xk.d.d.4X:XP & bXbXbXo o O N B V & o o o 1 q R o O 0 @X! o bXbXo o bXbXbXbXbXbXbXbXbXbXbXbX",
"bXbXbXbXbXbXbXbXs eXV.d.d.:XeX9XC.c o bXbXo bXbXbXbXo o V.o m <X<Xk.S ,X<X}.y O q 4.C.o bXbXbXbXbXbXbXbXbXbXbX",
"bXbXbXbXbXbXbXbXo hX<X<X}.:X9XeX=XeX0.0 & bXbXo bXbXo o 9XS tX<X<Xl.J Y I & 8.=X}.k.d.8.o bXbXbXbXbXbXbXbXbXbX",
"bXbXbXbXbXbXbXbXo <X<X<X<XtXiXeX=X9Xk.d.>.; o ; & o o o <Xs 1.@X@X=.o q =X<Xl.d.d.d.d.d.1.o bXbXbXbXbXbXbXbXbX",
"bXbXbXbXbXbXbXbXbXm 4XfX<XeXfXfXeXeXd.d.d.0.& 1 o & 8.o & 1.1.y o O .XkX3X:Xd.d.d.d.d.d.8.o bXbXbXbXbXbXbXbXbX",
"bXbXbXbXbXbXbXbXbXbXo ; B.kXhXfXtXfX=Xl.d.c q & ^ >.& o 4X0.>..Xo kX8X<X<X<Xv.d.d.d.d.d.8.o bXbXbXbXbXbXbXbXbX",
"bXbXbXbXbXbXbXbXbXbXbXbXo o &.iXhXfX<X<Xy.& y o iX<X:Xo s 4.l.j o vX<X<X<X<X:Xd.d.d.d.d.=.& bXbXbXbXbXbXbXbXbX",
"bXbXbXbXbXbXbXbXbXbXbXbXbXbXo o j =XhX4XY y y & <X=XP o S ` >.1 o vX<X<X<X<X<Xv.d.d.d.d.F o bXbXbXbXbXbXbXbXbX",
"bXbXbXbXbXbXbXbXbXbXbXbXbXbXbXbXbXo o k.o z ; d.& @.y & y 0 1 y o hX<X<X<X<X<X:Xd.d.d.d.o bXbXbXbXbXbXbXbXbXbX",
"bXbXbXbXbXbXbXbXbXbXbXbXbXbXbXbXbXbXbXo y y o iX:Xk.k.z o 1 0 1 & 0 hX<X<X<X<X<Xl.d.d.@.o bXbXbXbXbXbXbXbXbXbX",
"bXbXbXbXbXbXbXbXbXbXbXbXbXbXbXbXbXbXbXo s 1 & R .X<X=Xo q q ; o o o o =X9X<X<X<X=Xk.y.o bXbXbXbXbXbXbXbXbXbXbX",
"bXbXbXbXbXbXbXbXbXbXbXbXbXbXbXbXbXbXbXbXo o bXo & j P d.S & ; & bXbXo o s @X9X<X<Xl.q o bXbXbXbXbXbXbXbXbXbXbX",
"bXbXbXbXbXbXbXbXbXbXbXbXbXbXbXbXbXbXbXbXbXbXbXbXbXbXo 9X<Xl.Y o bXbXbXo =X` & o 1 & o bXbXbXbXbXbXbXbXbXbXbXbX",
"bXbXbXbXbXbXbXbXbXbXbXbXbXbXbXbXbXbXbXbXbXbXbXbXbXbXo & F 4.; bXbXbXbXo C.^ & o bXbXbXbXbXbXbXbXbXbXbXbXbXbXbX",
"bXbXbXbXbXbXbXbXbXbXbXbXbXbXbXbXbXbXbXbXbXbXbXbXbXbXbXbXo o o bXbXbXbXbXo o bXbXbXbXbXbXbXbXbXbXbXbXbXbXbXbXbX",
"bXbXbXbXbXbXbXbXbXbXbXbXbXbXbXbXbXbXbXbXbXbXbXbXbXbXbXbXbXbXbXbXbXbXbXbXbXbXbXbXbXbXbXbXbXbXbXbXbXbXbXbXbXbXbX",
"bXbXbXbXbXbXbXbXbXbXbXbXbXbXbXbXbXbXbXbXbXbXbXbXbXbXbXbXbXbXbXbXbXbXbXbXbXbXbXbXbXbXbXbXbXbXbXbXbXbXbXbXbXbXbX",
"bXbXbXbXbXbXbXbXbXbXbXbXbXbXbXbXbXbXbXbXbXbXbXbXbXbXbXbXbXbXbXbXbXbXbXbXbXbXbXbXbXbXbXbXbXbXbXbXbXbXbXbXbXbXbX",
"bXbXbXbXbXbXbXbXbXbXbXbXbXbXbXbXbXbXbXbXbXbXbXbXbXbXbXbXbXbXbXbXbXbXbXbXbXbXbXbXbXbXbXbXbXbXbXbXbXbXbXbXbXbXbX",
"bXbXbXbXbXbXbXbXbXbXbXbXbXbXbXbXbXbXbXbXbXbXbXbXbXbXbXbXbXbXbXbXbXbXbXbXbXbXbXbXbXbXbXbXbXbXbXbXbXbXbXbXbXbXbX",
"bXbXbXbXbXbXbXbXbXbXbXbXbXbXbXbXbXbXbXbXbXbXbXbXbXbXbXbXbXbXbXbXbXbXbXbXbXbXbXbXbXbXbXbXbXbXbXbXbXbXbXbXbXbXbX",
"bXbXbXbXbXbXbXbXbXbXbXbXbXbXbXbXbXbXbXbXbXbXbXbXbXbXbXbXbXbXbXbXbXbXbXbXbXbXbXbXbXbXbXbXbXbXbXbXbXbXbXbXbXbXbX",
"bXbXbXbXbXbXbXbXbXbXbXbXbXbXbXbXbXbXbXbXbXbXbXbXbXbXbXbXbXbXbXbXbXbXbXbXbXbXbXbXbXbXbXbXbXbXbXbXbXbXbXbXbXbXbX",
"bXbXbXbXbXbXbXbXbXbXbXbXbXbXbXbXbXbXbXbXbXbXbXbXbXbXbXbXbXbXbXbXbXbXbXbXbXbXbXbXbXbXbXbXbXbXbXbXbXbXbXbXbXbXbX",
"bXbXbXbXbXbXbXbXbXbXbXbXbXbXbXbXbXbXbXbXbXbXbXbXbXbXbXbXbXbXbXbXbXbXbXbXbXbXbXbXbXbXbXbXbXbXbXbXbXbXbXbXbXbXbX",
"bXbXbXbXbXbXbXbXbXbXbXbXbXbXbXbXbXbXbXbXbXbXbXbXbXbXbXbXbXbXbXbXbXbXbXbXbXbXbXbXbXbXbXbXbXbXbXbXbXbXbXbXbXbXbX"
};
