/* XPM */
static char *_650217291734[] = {
/* columns rows colors chars-per-pixel */
"59 50 138 2 ",
"   c black",
".  c #010000",
"X  c #010101",
"o  c #030000",
"O  c #060001",
"+  c #040404",
"@  c gray4",
"#  c gray5",
"$  c #140202",
"%  c #1B0203",
"&  c #101010",
"*  c gray8",
"=  c #181818",
"-  c #1E1E1E",
";  c #320406",
":  c #2A2A2A",
">  c #2C2C2C",
",  c #323232",
"<  c gray20",
"1  c #353535",
"2  c gray21",
"3  c #393939",
"4  c gray23",
"5  c #4E060A",
"6  c #57070B",
"7  c #58070B",
"8  c #6F090E",
"9  c #72090E",
"0  c gray29",
"q  c #4E4E4E",
"w  c #565656",
"e  c #5D5C5C",
"r  c gray40",
"t  c #686868",
"y  c #6C6C6C",
"u  c gray43",
"i  c #717070",
"p  c #727272",
"a  c #747474",
"s  c #7D7C7C",
"d  c #7F7E7E",
"f  c #810B10",
"g  c #840B11",
"h  c #850B11",
"j  c #870B11",
"k  c #8B0B11",
"l  c #900C12",
"z  c #910C12",
"x  c #980D13",
"c  c #9F0D14",
"v  c #B20000",
"b  c #A10D14",
"n  c #A60D15",
"m  c #A50E15",
"M  c #B00E16",
"N  c #BD1018",
"B  c #B93C3C",
"V  c #C61019",
"C  c #C71019",
"Z  c #C81019",
"A  c #D2111A",
"S  c #D3111A",
"D  c #D4111B",
"F  c #D21D1D",
"G  c #D31D1D",
"H  c #E2131C",
"J  c #E4131D",
"K  c #E7131D",
"L  c #EB131D",
"P  c #EE141E",
"I  c #F1141E",
"U  c #F3141F",
"Y  c #F5141F",
"T  c #FB151F",
"R  c #FD1520",
"E  c #FE1520",
"W  c #FF1520",
"Q  c #C03B3B",
"!  c #E52626",
"~  c #E72727",
"^  c #FF3232",
"/  c #B05F5F",
"(  c #AF7474",
")  c #AF7777",
"_  c #EA4747",
"`  c #F24347",
"'  c #F24D4D",
"]  c #F34E4E",
"[  c #EE5A5A",
"{  c #E85C5F",
"}  c #EE5D5D",
"|  c #EE5F5F",
" . c #E96969",
".. c #818080",
"X. c #838383",
"o. c #858484",
"O. c #868686",
"+. c #898989",
"@. c #8A8989",
"#. c gray54",
"$. c #8B8B8B",
"%. c gray55",
"&. c gray56",
"*. c #929292",
"=. c gray58",
"-. c #959595",
";. c #979696",
":. c #979797",
">. c #989898",
",. c gray62",
"<. c #9F9F9F",
"1. c #AF8888",
"2. c #B08686",
"3. c #AE9595",
"4. c #A09F9F",
"5. c #AE9898",
"6. c #AE9E9E",
"7. c #BB9D9E",
"8. c #A0A0A0",
"9. c #A2A2A2",
"0. c #A4A4A4",
"q. c #A7A7A7",
"w. c #ADA6A6",
"e. c gray66",
"r. c #A9A9A9",
"t. c #AAAAAA",
"y. c gray67",
"u. c #ADABAB",
"i. c #ACACAC",
"p. c gray68",
"a. c #B0A9A9",
"s. c #B2A8A8",
"d. c #C38888",
"f. c #CD8C8C",
"g. c #C79494",
"h. c #C69595",
"j. c #CB9090",
"k. c None",
/* pixels */
"k.k.k.k.k.k.k.k.k.k.k.k.k.k.k.k.k.k.k.k.k.k.k.k.k.k.k.k.k.k.k.k.k.k.k.k.k.k.k.k.k.k.k.k.k.k.k.k.k.k.k.k.k.k.k.k.k.k.k.",
"k.k.k.k.k.k.k.k.k.k.k.k.k.k.k.k.k.k.k.k.k.k.k.k.k.k.k.k.k.k.k.k.k.k.k.k.k.k.k.k.k.k.k.k.k.k.k.k.k.k.k.k.k.k.k.k.k.k.k.",
"k.k.k.k.k.k.k.k.k.k.k.k.k.        k.k.k.k.k.k.k.k.k.k.k.k.k.k.k.k.k.k.k.k.k.k.k.k.k.k.k.k.k.k.k.k.k.k.k.k.k.k.k.k.k.k.",
"k.k.k.k.k.k.k.k.k.k.k.k.                k.k.k.k.k.k.k.k.k.k.k.k.k.k.k.k.k.k.k.k.k.k.k.k.k.k.k.k.k.k.k.k.k.k.k.k.k.k.k.",
"k.k.k.k.k.k.k.k.k.k.k.    D R R L k       k.k.k.k.k.k.k.k.k.k.k.k.k.k.k.k.k.k.k.k.k.k.k.k.k.k.k.k.k.k.k.k.k.k.k.k.k.k.",
"k.k.k.k.k.k.k.k.k.k.    V R R R R R U 6     k.      k.k.k.k.k.k.k.k.k.k.k.k.k.k.k.k.k.k.k.k.k.k.k.k.k.k.k.k.k.k.k.k.k.",
"k.k.k.k.k.k.k.k.k.k.    T T R R R R R R l             k.k.k.k.k.k.k.k.k.k.k.k.k.k.k.k.k.k.k.k.k.k.k.k.k.k.k.k.k.k.k.k.",
"k.k.k.k.k.k.k.k.k.k.    R R R R R R R R R b   g U x     k.k.k.k.k.k.k.k.k.k.k.k.k.k.k.k.k.k.k.k.k.k.k.k.k.k.k.k.k.k.k.",
"k.k.k.k.k.k.k.k.k.k.    Y R R R R R R R R R k R R R 7   k.k.k.k.k.k.k.k.k.k.k.k.k.k.k.k.k.k.k.k.k.k.k.k.k.k.k.k.k.k.k.",
"k.k.k.k.k.k.k.k.k.k.    Z R R R R R R R R R R R R R K     k.k.k.k.k.k.k.k.k.k.k.k.k.k.k.k.k.k.k.k.k.k.k.k.k.k.k.k.k.k.",
"k.k.k.k.k.k.k.k.k.k.k.  7 R R R R R R R R R R R R R R O   k.k.k.k.k.k.k.k.k.k.k.k.k.k.k.k.k.k.k.k.k.k.k.k.k.k.k.k.k.k.",
"k.k.k.k.k.k.k.k.k.k.k.    U R R R R R R R R R R R R R 9   k.k.k.k.k.k.k.k.k.k.k.k.k.k.k.k.k.k.k.k.k.k.k.k.k.k.k.k.k.k.",
"k.k.k.k.k.k.k.k.k.k.k.    8 R R R R R R R R R R R R T n   k.k.k.k.k.k.k.k.k.k.k.k.k.k.k.k.k.k.k.k.k.k.k.k.k.k.k.k.k.k.",
"k.k.k.k.k.k.k.k.k.k.k.k.    H R R R R R R R R R R R R Z     k.k.k.k.k.k.k.k.k.k.k.k.k.k.k.k.k.k.k.k.k.k.k.k.k.k.k.k.k.",
"k.k.k.k.k.k.k.k.k.k.k.k.    % R R R R R R R R R R R R D     k.k.k.k.k.k.k.k.k.k.k.k.k.k.k.k.k.k.k.k.k.k.k.k.k.k.k.k.k.",
"k.k.k.k.k.k.k.k.k.k.k.k.    l K R R R R R R R R R R R A     k.k.k.k.k.k.k.k.k.k.k.k.k.k.k.k.k.k.k.k.k.k.k.k.k.k.k.k.k.",
"k.k.k.k.k.k.k.k.k.k.k.k.  g R R R R R R R R R R R R R Z     k.k.k.k.k.k.k.k.k.k.k.k.k.k.k.k.k.k.k.k.k.k.k.k.k.k.k.k.k.",
"k.k.k.k.k.k.k.k.k.k.k.k.  ; R R R R R R R R R R R R T b   k.k.k.k.k.k.k.k.k.k.k.k.k.k.k.k.k.k.k.k.k.k.k.k.k.k.k.k.k.k.",
"k.k.k.k.k.k.k.k.k.k.k.k.    x R R R R R R R R R R R R 8         k.k.k.k.k.k.k.k.k.k.k.k.k.k.k.k.k.k.k.k.k.k.k.k.k.k.k.",
"k.k.k.k.k.k.k.k.k.k.k.k.k.    7 Y R R R R R R R R R ` O               k.k.k.k.k.k.k.k.k.k.k.k.k.k.k.k.k.k.k.k.k.k.k.k.",
"k.k.k.k.k.k.k.k.k.k.k.k.k.k.      j P R R R T { 7.p.p.*.%.;.$.r >         k.k.k.k.k.k.k.k.k.k.k.k.k.k.k.k.k.k.k.k.k.k.",
"k.k.k.k.k.k.k.k.k.k.k.k.k.k.k.        $ j n M p.p.p.p.p.p.p.p.p.p.e.u       k.k.k.k.k.k.k.k.k.k.k.k.k.k.k.k.k.k.k.k.k.",
"k.k.k.k.k.k.k.k.k.k.k.k.k.k.k.k.k.          < p.p.p.p.p.p.p.p.p.p.p.p.e.,     k.k.k.k.k.k.k.k.k.k.k.k.k.k.k.k.k.k.k.k.",
"k.k.k.k.k.k.k.k.k.k.k.k.k.k.k.k.k.k.k.    0 p.p.p.p.p.p.p.p.p.p.p.p.p.p.p.0     k.k.k.k.k.k.k.k.k.k.k.k.k.k.k.k.k.k.k.",
"k.k.k.k.k.k.k.k.k.k.k.k.k.k.k.k.k.k.    , p.p.p.p.p.p.p.p.p.p.p.p.p.p.p.p.p.2     k.k.k.k.k.k.k.k.k.k.k.k.k.k.k.k.k.k.",
"k.k.k.k.k.k.k.k.k.k.k.k.k.k.k.k.k.k.    e.p.p.p.p.p.p.p.p.p.p.p.p.p.p.p.p.p.e.    k.k.k.k.k.k.k.k.k.k.k.k.k.k.k.k.k.k.",
"k.k.k.k.k.k.k.k.k.k.k.k.k.k.k.k.k.    u p.p.p.p.p.p.p.p.p.p.p.p.p.p.p.p.p.p.p.a     k.k.k.k.k.k.k.k.k.k.k.k.k.k.k.k.k.",
"k.k.k.k.k.k.k.k.k.k.k.k.k.k.k.k.k.    e.p.p.p.p.p.p.p.p.p.p.p.p.p.p.p.p.p.p.p.e.    k.k.k.k.k.k.k.k.k.k.k.k.k.k.k.k.k.",
"k.k.k.k.k.k.k.k.k.k.k.k.k.k.k.k.k.  > p.p.p.p.p.p.4.4.4.4.4.4.4.4.4.4.4.4.4.9.e.2   k.k.k.k.k.k.k.k.k.k.k.k.k.k.k.k.k.",
"k.k.k.k.k.k.k.k.k.k.k.k.k.k.k.k.    t p.p.p.p.:.i s 9.q.q.q.q.q.q.e.q.q.q.q.q.,.e     k.k.k.k.k.k.k.k.k.k.k.k.k.k.k.k.",
"k.k.k.k.k.k.k.k.k.k.k.k.k.k.k.k.    o.p.p.p.p.i d p.p.s.f.1.p.p.h.d.3.p.a.f.1.u.p.-   k.k.k.k.k.k.k.k.k.k.k.k.k.k.k.k.",
"k.k.k.k.k.k.k.k.k.k.k.k.k.k.k.k.    %.p.p.p.9.i 0.p.p.| ^ G 3.p.^ ^ v p. .^ ~ ) p.o.    k.k.k.k.k.k.k.k.k.k.k.k.k.k.k.",
"k.k.k.k.k.k.k.k.k.k.k.k.k.k.k.k.    %.p.p.p.9.i e.p.p.| ^ G 3.p.^ ^ v p. .^ ~ ( p.;.    k.k.k.k.k.k.k.k.k.k.k.k.k.k.k.",
"k.k.k.k.k.k.k.k.k.k.k.k.k.k.k.k.    %.p.p.p.9.i e.p.p.| ^ G 3.p.^ ^ v p. .^ ~ ( p.*.    k.k.k.k.k.k.k.k.k.k.k.k.k.k.k.",
"k.k.k.k.k.k.k.k.k.k.k.k.k.k.k.k.    %.p.p.p.9.i e.p.p.| ^ G 3.p.^ ^ v p. .^ ~ ( p.=.    k.k.k.k.k.k.k.k.k.k.k.k.k.k.k.",
"k.k.k.k.k.k.k.k.k.k.k.k.k.k.k.k.    %.p.p.p.9.i e.p.p.[ ^ G 3.p.^ ^ v p. .^ ~ ( p.=.    k.k.k.k.k.k.k.k.k.k.k.k.k.k.k.",
"k.k.k.k.k.k.k.k.k.k.k.k.k.k.k.k.    %.p.p.p.9.i e.a.p.| ^ F 3.p.^ ^ v p. .^ ~ ( p.*.    k.k.k.k.k.k.k.k.k.k.k.k.k.k.k.",
"k.k.k.k.k.k.k.k.k.k.k.k.k.k.k.k.    %.p.p.p.9.i y.p.p.| ^ F 3.p.^ ^ v p. .^ ~ ( p.;.    k.k.k.k.k.k.k.k.k.k.k.k.k.k.k.",
"k.k.k.k.k.k.k.k.k.k.k.k.k.k.k.k.    %.p.p.p.9.i e.p.p.| ^ F 3.p.^ ^ v p. .^ ~ ( p.=.    k.k.k.k.k.k.k.k.k.k.k.k.k.k.k.",
"k.k.k.k.k.k.k.k.k.k.k.k.k.k.k.    @ *.p.p.p.e.i ;.p.p.j.' B w.u.[ _ / p.h.] Q 6.p.w     k.k.k.k.k.k.k.k.k.k.k.k.k.k.k.",
"k.k.k.k.k.k.k.k.k.k.k.k.k.k.    y p.p.p.p.p.p...i 9.p.e.p.u.p.p.p.u.p.p.p.u.p.p.=.    k.k.k.k.k.k.k.k.k.k.k.k.k.k.k.k.",
"k.k.k.k.k.k.k.k.k.k.k.k.k.k.  # p.p.p.p.p.p.p.p.>.o.o.$.$.$.$.$.$.$.$.$.$.$.$.>.;.    k.k.k.k.k.k.k.k.k.k.k.k.k.k.k.k.",
"k.k.k.k.k.k.k.k.k.k.k.k.k.k.  3 p.p.p.p.p.p.p.p.p.p.p.p.u.p.p.p.u.p.p.p.e.p.p.p.;.    k.k.k.k.k.k.k.k.k.k.k.k.k.k.k.k.",
"k.k.k.k.k.k.k.k.k.k.k.k.k.k.    p.p.p.p.p.p.p.p.p.p.p.p.p.p.p.p.p.p.p.p.p.p.p.p.$.    k.k.k.k.k.k.k.k.k.k.k.k.k.k.k.k.",
"k.k.k.k.k.k.k.k.k.k.k.k.k.k.    4 e.p.p.p.p.p.p.p.p.p.p.p.p.p.p.p.p.p.p.p.p.p.p.q     k.k.k.k.k.k.k.k.k.k.k.k.k.k.k.k.",
"k.k.k.k.k.k.k.k.k.k.k.k.k.k.k.      a p.p.p.p.p.p.p.p.p.p.p.p.p.p.p.p.p.p.p.p.>.    k.k.k.k.k.k.k.k.k.k.k.k.k.k.k.k.k.",
"k.k.k.k.k.k.k.k.k.k.k.k.k.k.k.k.    + <.p.p.p.p.p.p.p.p.p.p.p.p.p.p.p.p.p.p.o.      k.k.k.k.k.k.k.k.k.k.k.k.k.k.k.k.k.",
"k.k.k.k.k.k.k.k.k.k.k.k.k.k.k.k.k.      & = = = = = = = = = = = = = = * *         k.k.k.k.k.k.k.k.k.k.k.k.k.k.k.k.k.k.",
"k.k.k.k.k.k.k.k.k.k.k.k.k.k.k.k.k.k.                                          k.k.k.k.k.k.k.k.k.k.k.k.k.k.k.k.k.k.k.k.",
"k.k.k.k.k.k.k.k.k.k.k.k.k.k.k.k.k.k.k.k.k.k.k.k.k.k.k.k.k.k.k.k.k.k.k.k.k.k.k.k.k.k.k.k.k.k.k.k.k.k.k.k.k.k.k.k.k.k.k."
};
