/* XPM */
static char *_651345947742[] = {
/* columns rows colors chars-per-pixel */
"55 60 238 2 ",
"   c #313131",
".  c #323232",
"X  c #333233",
"o  c gray20",
"O  c #343433",
"+  c #343434",
"@  c #353535",
"#  c #363534",
"$  c gray21",
"%  c #373737",
"&  c #393736",
"*  c gray22",
"=  c #393939",
"-  c #3A3A3A",
";  c gray23",
":  c #3C3C3C",
">  c gray24",
",  c #3E3E3E",
"<  c #3F3F3F",
"1  c #453E3A",
"2  c #4B423D",
"3  c gray25",
"4  c #414141",
"5  c gray26",
"6  c #434343",
"7  c #444444",
"8  c gray27",
"9  c #464646",
"0  c gray28",
"q  c #484848",
"w  c #494949",
"e  c gray29",
"r  c #4B4B4B",
"t  c #4C4C4C",
"y  c gray30",
"u  c #4E4E4E",
"i  c gray31",
"p  c #534740",
"a  c #584A43",
"s  c #505050",
"d  c #515151",
"f  c gray32",
"g  c #535353",
"h  c gray33",
"j  c #555555",
"k  c #565656",
"l  c gray34",
"z  c #585858",
"x  c gray35",
"c  c #5A5A5A",
"v  c #5B5B5B",
"b  c gray36",
"n  c #5D5D5D",
"m  c gray37",
"M  c #5F5F5F",
"N  c #635148",
"B  c #63524A",
"V  c #6B574C",
"C  c #735D50",
"Z  c #786052",
"A  c #7B6255",
"S  c #74655E",
"D  c #7F6658",
"F  c #606060",
"G  c gray38",
"H  c #626262",
"J  c #656565",
"K  c gray40",
"L  c #676767",
"P  c #686868",
"I  c DimGray",
"U  c #6A6A6A",
"Y  c gray42",
"T  c #6C6C6C",
"R  c #6D6D6D",
"E  c gray43",
"W  c #6F6F6F",
"Q  c #7A6961",
"!  c #7C6C64",
"~  c #717171",
"^  c #727272",
"/  c #747474",
"(  c gray46",
")  c #767676",
"_  c #777777",
"`  c #797979",
"'  c #7B7B7B",
"]  c gray50",
"[  c #866A5B",
"{  c #837269",
"}  c #967664",
"|  c #977765",
" . c #9C867B",
".. c #A8836E",
"X. c #B68D76",
"o. c #C5987E",
"O. c #808080",
"+. c #818181",
"@. c gray51",
"#. c #838383",
"$. c gray52",
"%. c #868686",
"&. c gray53",
"*. c #888888",
"=. c gray54",
"-. c gray55",
";. c #8D8D8D",
":. c #8E8E8E",
">. c gray56",
",. c #909090",
"<. c gray57",
"1. c #929292",
"2. c #939393",
"3. c gray58",
"4. c #959595",
"5. c gray59",
"6. c #989898",
"7. c gray60",
"8. c #9A9A9A",
"9. c #9B9B9B",
"0. c #9D9B9A",
"q. c #9D9D9D",
"w. c gray62",
"e. c #9F9F9F",
"r. c #A28B80",
"t. c #A68E82",
"y. c #AE9689",
"u. c #A0A0A0",
"i. c gray63",
"p. c #A2A2A2",
"a. c gray64",
"s. c #A4A4A4",
"d. c #A5A5A5",
"f. c gray65",
"g. c #A7A7A7",
"h. c gray66",
"j. c #A9A9A9",
"k. c #AAAAAA",
"l. c gray67",
"z. c #ACACAC",
"x. c gray68",
"c. c #AEAEAE",
"v. c #AFAFAF",
"b. c gray69",
"n. c #B1B1B1",
"m. c #B2B2B2",
"M. c gray70",
"N. c #B4B4B4",
"B. c gray71",
"V. c #B6B6B6",
"C. c #B7B7B7",
"Z. c gray72",
"A. c gray73",
"S. c #BBBBBB",
"D. c #BCBCBC",
"F. c gray74",
"G. c gray",
"H. c gray75",
"J. c #C29B84",
"K. c #CC9D82",
"L. c #D2A58C",
"P. c #D2A58D",
"I. c #C7A99A",
"U. c #D9AF99",
"Y. c #DAB29C",
"T. c #D0B1A2",
"R. c #D6B3A1",
"E. c #D7B6A6",
"W. c #DCB5A1",
"Q. c #DFB6A1",
"!. c #DFB7A1",
"~. c #DFB7A2",
"^. c #DEBDAC",
"/. c #E3BDA9",
"(. c #E8C2B0",
"). c #E9C4B2",
"_. c #EAC5B2",
"`. c #EBC7B5",
"'. c #ECC8B6",
"]. c #EDC9B6",
"[. c #EEC9B7",
"{. c #EDCAB9",
"}. c #EECFBF",
"|. c #C0C0C0",
" X c #C1C1C1",
".X c #C3C3C3",
"XX c gray77",
"oX c #C5C5C5",
"OX c #C6C6C6",
"+X c #CCC9C7",
"@X c gray79",
"#X c #CACACA",
"$X c #CBCBCB",
"%X c gray80",
"&X c #CDCDCD",
"*X c gray81",
"=X c #D0D0D0",
"-X c gray82",
";X c #D2D2D2",
":X c LightGray",
">X c gray83",
",X c #D5D5D5",
"<X c gray84",
"1X c #D7D7D7",
"2X c #D8D8D8",
"3X c gray85",
"4X c #DADADA",
"5X c gray86",
"6X c gainsboro",
"7X c #DDDDDD",
"8X c gray87",
"9X c #DFDFDF",
"0X c gray88",
"qX c #E1E1E1",
"wX c #E2E2E2",
"eX c gray89",
"rX c #E4E4E4",
"tX c gray90",
"yX c #E7E7E7",
"uX c gray91",
"iX c #E9E9E9",
"pX c #EAEAEA",
"aX c gray92",
"sX c #ECECEC",
"dX c gray93",
"fX c #EEEEEE",
"gX c #EFEFEF",
"hX c #F1F1F1",
"jX c gray95",
"kX c #F3F3F3",
"lX c gray96",
"zX c gray97",
"xX c #F8F8F8",
"cX c #F9F9F9",
"vX c #FBFBFB",
"bX c #FDFDFD",
"nX c white",
"mX c None",
/* pixels */
"mXmXmXmXmXmXmXmXmXmXmXmXmXmXmXmXmXmXmXmXmXmXmXmXmXmXmXmXmXmXmXmXmXmXmXmXmXmXmXmXmXmXmXmXmXmXmXmXmXmXmXmXmXmXmX",
"mXmXmXmXmXmXmXmXmXmXmXmXmXmXmXmXmXmXmXmXmXmXmXmXmXmXmXmXmXmXmXmXmXmXmXmXmXmXmXmXmXmXmXmXmXmXmXmXmXmXmXmXmXmXmX",
"mXmXmXmXmXmXmXmXmXmXmXmXmXmXmXmXmXmXmXmXmXmXmXmXmXmXmXmXmXmXmXmXmXmXmXmXmXmXmXmXmXmXmXmXmXmXmXmXmXmXmXmXmXmXmX",
"mXmXmXmXmXmXmXmXmXmXmXmXmXmXmXmXmXmXmXmXmXmXmXmXmXmXmXmXmXmXmXmXmXmXmXmXmXmXmXmXmXmXmXmXmXmXmXmXmXmXmXmXmXmXmX",
"mXmXmXmXmXmXmXmXmXmXmXmXmXmXmXmXmXmXmXmXmXmXmXmXmXmXmX. + . mXmXmXmXmXmXmXmXmXmXmXmXmXmXmXmXmXmXmXmXmXmXmXmXmX",
"mXmXmXmXmXmXmXmXmXmXmXmXmXmXmXmXmXmXmXmXmXmXmXmXmX. E %.-.+.d . . mXmXmXmXmXmXmXmXmXmXmXmXmXmXmXmXmXmXmXmXmXmX",
"mXmXmXmXmXmXmXmXmXmXmXmXmXmXmXmXmXmXmXmXmXmXmXmXmX. F.3X,X;X,X3Xm.3 + mXmXmXmXmXmXmXmXmXmXmXmXmXmXmXmXmXmXmXmX",
"mXmXmXmXmXmXmXmXmXmXmXmXmXmXmXmXmXmXmXmXmXmXmXmXmX+ F.@Xf.f.f.f.h.|.a.. mXmXmXmXmXmXmXmXmXmXmXmXmXmXmXmXmXmXmX",
"mXmXmXmXmXmXmXmXmXmXmXmXmXmXmXmXmXmXmXmXmXmXmXmXmX. Z.%Xf.f.f.f.f.f.f.Z., . mXmXmXmXmXmXmXmXmXmXmXmXmXmXmXmXmX",
"mXmXmXmXmXmXmXmXmXmXmXmXmXmXmXmXmXmXmXmXmXmXmXmXmX+ Z.@Xf.f.f.f.f.f.f.f.h.0 . mXmXmXmXmXmXmXmXmXmXmXmXmXmXmXmX",
"mXmXmXmXmXmXmXmXmXmXmXmXmXmXmXmXmXmXmXmXmXmXmXmXmX+ m.@Xf.f.f.f.4.P ; . + + . . mXmXmXmXmXmXmXmXmXmXmXmXmXmXmX",
"mXmXmXmXmXmXmXmXmXmXmXmXmXmXmXmXmXmXmXmXmXmXmXmXmX. f.%Xf.f.` + i %.a.f.f.f.f.9.d + mXmXmXmXmXmXmXmXmXmXmXmXmX",
"mXmXmXmXmXmXmXmXmXmXmXmXmXmXmXmXmXmXmXmXmXmXmXmX. ; 9.%XE + ^ x.V.Z.V.f.f.f.f.f.f.4.. + mXmXmXmXmXmXmXmXmXmXmX",
"mXmXmXmXmXmXmXmXmXmXmXmXmXmXmXmXmXmXmXmXmXmXmX. 3X|.. + 1.;X3X3X3X3X3X3X;Xx.f.f.f.f.a., . mXmXmXmXmXmXmXmXmXmX",
"mXmXmXmXmXmXmXmXmXmXmXmXmXmXmXmXmXmXmXmXmXmX; lX7X3X3X3X3X3X3X3X3X3X3X3X3X3XF.f.f.f.f.a.+ mXmXmXmXmXmXmXmXmXmX",
"mXmXmXmXmXmXmXmXmXmXmXmXmXmXmXmXmXmXmXmXmX. iX7X3X3X3X3X3X3X3X3X3X3X3X3X3X3X3X@Xf.f.f.f.4.. mXmXmXmXmXmXmXmXmX",
"mXmXmXmXmXmXmXmXmXmXmXmXmXmXmXmXmXmXmXmX. f.iX3X3X3X3X3X3X3X3X3X3X3X3X3X3X3X3X3X|.f.f.f.f.i mXmXmXmXmXmXmXmXmX",
"mXmXmXmXmXmXmXmXmXmXmXmXmXmXmXmXmXmXmXmX+ bX3X3X%XV.%X3X3X3X3X3X3X3X3X3X3X3X3X3X3Xx.f.f.f.-.. mXmXmXmXmXmXmXmX",
"mXmXmXmXmXmXmXmXmXmXmXmXmXmXmXmXmXmXmXmX' jX3X1.+ d h . , ` V.;X3X3X3X3X3X3X3X3X3X=Xf.f.f.f.. mXmXmXmXmXmXmXmX",
"mXmXmXmXmXmXmXmXmXmXmXmXmXmXmXmXmXmXmX+ @X3Xq 4.3X' F.oX;XF.+.3 . ^ N.3X3X3X=X3 + i a.f.f.f.+ mXmXmXmXmXmXmXmX",
"mXmXmXmXmXmXmXmXmXmXmXmXmXmXmXmXmXmXmX+ |.+ %X7XV.+.f.+ f.4.x.oX>XF.O.+ 0 4.* 9X6Xe., f.f.f.. mXmXmXmXmXmXmXmX",
"mXmXmXmXmXmXmXmXmXmXmXmXmXmXmXmXmXmXmX. i jXx.1.x.-.f.. f., 1.E 9.f.m.@X%X-.` |.@Xx.7 e.f.f.. mXmXmXmXmXmXmXmX",
"mXmXmXmXmXmXmXmXmXmXmXmXmXmXmXmXmXmX. G 7X+.f.9.a.-.a.. f.+ 4.i ,.f.f.f.f.4.4.2X+ x.P 1.f.f.; mXmXmXmXmXmXmXmX",
"mXmXmXmXmXmXmXmXmXmXmXmXmXmXmXmXmXmX+ 9.F.+.9.w.w.1.9.+ f.. w.b 4.f.f.s.) + b 6Xe.4.q w.f.f.q mXmXmXmXmXmXmXmX",
"mXmXmXmXmXmXmXmXmXmXmXmXmXmXmXmXmXmXmXq eX%X>.x.V.4.4.+ f.K f.f.f.9.v O 1 w.q m.h.%.0 f.f.f.h mXmXmXmXmXmXmXmX",
"mXmXmXmXmXmXmXmXmXmX. + + . + . mXmXmX+ * 7XV.@XoXf.9.c f.f.f.` % 2 ..K.V |.h.d + i a.f.f.h.q mXmXmXmXmXmXmXmX",
"mXmXmXmXmXmXmXmXmXmX. rX|.m.f.P . mXmX. } + f.7X3Xh.f.f.*.q O [ o.P.~.K.C |.,Xh.f.f.F.f.f.f.q mXmXmXmXmXmXmXmX",
"mXmXmXmXmXmXmXmXmXmX; iXm.f.f.oXi mXmX+ +XY.D + x.' 0 + A J.!.).'.'.[.P.Z F.3X3X3X3XoXf.f.f., mXmXmXmXmXmXmXmX",
"mXmXmXmXmXmXmXmXmX. -.eX3Xh.f.eX7X. mX. XX}.'.W.B ! R.`.[.'.'.'.[./.} & c ;X3X3X3X3XF.f.f.f.; mXmXmXmXmXmXmXmX",
"mXmXmXmXmXmXmXmXmX. f.7X3X3Xx.rXeXV.+ h . { `.a 0.y.'.'.[.'.'.'.Q + e.yX3X3X3X3X3X3Xx.f.f.E . mXmXmXmXmXmXmXmX",
"mXmXmXmXmXmXmXmXmXmX. gX3X3XiXrXrXF.1.%.jX. '.. {.'.'.'.'.'.'.'.+ bX7X3X3X3X3X3X@Xf.f.*.+ + mXmXmXmXmXmXmXmXmX",
"mXmXmXmXmXmXmXmXmXmXmX; lX3XjXgX;X7X;XK 3X. (.^.r.'.'.'.'.'.'.'.+ bX3X3X3X3X;Xx.f.+.; + mXmXmXmXmXmXmXmXmXmXmX",
"mXmXmXmXmXmXmXmXmXmXmX. i cXjXlX@XrX,X, 3X. U.).'.[.S .  .'.'.`.B eX3X3X@Xz.>.v o w 4 o o mXmXmXmXmXmXmXmXmXmX",
"mXmXmXmXmXmXmXmXmXmXmXmX. b cXgXjXrXx.P K . X./.).[.[.).E.T.I.t.2 d.z.#.s o o o F :Xg.q.P o mXmXmXmXmXmXmXmXmX",
"mXmXmXmXmXmXmXmXmXmXmXmXmX. ^ jXjXgXh.f.` + . . + . O O . E ; c -.O & c B.3.o ` $Xd.g.d.f.6 mXmXmXmXmXmXmXmXmX",
"mXmXmXmXmXmXmXmXmXmXmXmXmXmX. 1.cX3X3Xf.a., ; 3 . mXO . >X: 9.3X3Xg.L ,X3X+./ $Xg.g.d.g.f.-.@ mXmXmXmXmXmXmXmX",
"mXmXmXmXmXmXmXmXmXmXmXmXmXmXmX. f.rX3X9.. 0 , + + . V.. rXG iX3X3XM.d v s.H =Xg.f.f.f.f.f.f.o mXmXmXmXmXmXmXmX",
"mXmXmXmXmXmXmXmXmXmXmXmXmXmXmXmX+ |.f.+ d 0 , 3Xb 4.7X. oX, h h.V.E : - 4 vX:Xg.f.f.f.f.f.f.o mXmXmXmXmXmXmXmX",
"mXmXmXmXmXmXmXmXmXmXmXmXmXmXmXmXmX. + h q . ;X3X3Xh 9.+ , x.N.E l ] n.@ gX5X3X2Xz.f.f.f.f.f.q mXmXmXmXmXmXmXmX",
"mXmXmXmXmXmXmXmXmXmXmXmXmXmXmXmX. ; c 0 . 9.*.,Xa.3Xb + @XE h h. .d o z.yX3X3X3X3XV.f.f.f.f.q mXmXmXmXmXmXmXmX",
"mXmXmXmXmXmXmXmXmXmXmXmXmXmXmXmXmX. 3 + oX3X; %.0 0 F.. P V.|.P f.*.o bX3X3X3X3X3X3XXXf.f.f.o mXmXmXmXmXmXmXmX",
"mXmXmXmXmXmXmXmXmXmXmXmXmXmXmXmXmXmX+ . c ,X,X+.-.E P + + h G . . + + ;XgX3X3X3X3X3X3X*Xf.f.o mXmXmXmXmXmXmXmX",
"mXmXmXmXmXmXmXmXmXmXmXmXmXmXmXmXmXmXmXmX. E 3X3X,Xf.. . q q q i i 3 o 3 bX3X3X3X3X3X3X3X,X9.o mXmXmXmXmXmXmXmX",
"mXmXmXmXmXmXmXmXmXmXmXmXmXmXmXmXmXmXmXmXmX. E h.f.) d . . ; + ; + . + + ) eXcXrX0X7X0X;X-.o mXmXmXmXmXmXmXmXmX",
"mXmXmXmXmXmXmXmXmXmXmXmXmXmXmXmXmXmXmXmXmXmX+ h 3 . -.+ 3 0 + . . . , t 0 + o + 3 % o o o mXmXmXmXmXmXmXmXmXmX",
"mXmXmXmXmXmXmXmXmXmXmXmXmXmXmXmXmXmXmXmXmXmXmX+ mX. + + b 9.m.w.o . b . + + . mXmXmXmXmXmXmXmXmXmXmXmXmXmXmXmX",
"mXmXmXmXmXmXmXmXmXmXmXmXmXmXmXmXmXmXmXmXmXmXmXmXmXmXmXmX+.3X|.1.o o gX3Xx.P o mXmXmXmXmXmXmXmXmXmXmXmXmXmXmXmX",
"mXmXmXmXmXmXmXmXmXmXmXmXmXmXmXmXmXmXmXmXmXmXmXmXmXmXmXmX. + . + mX+ h -.2.g mXmXmXmXmXmXmXmXmXmXmXmXmXmXmXmXmX",
"mXmXmXmXmXmXmXmXmXmXmXmXmXmXmXmXmXmXmXmXmXmXmXmXmXmXmXmXmXmXmXmXmXmXmXo o o mXmXmXmXmXmXmXmXmXmXmXmXmXmXmXmXmX",
"mXmXmXmXmXmXmXmXmXmXmXmXmXmXmXmXmXmXmXmXmXmXmXmXmXmXmXmXmXmXmXmXmXmXmXmXmXmXmXmXmXmXmXmXmXmXmXmXmXmXmXmXmXmXmX",
"mXmXmXmXmXmXmXmXmXmXmXmXmXmXmXmXmXmXmXmXmXmXmXmXmXmXmXmXmXmXmXmXmXmXmXmXmXmXmXmXmXmXmXmXmXmXmXmXmXmXmXmXmXmXmX",
"mXmXmXmXmXmXmXmXmXmXmXmXmXmXmXmXmXmXmXmXmXmXmXmXmXmXmXmXmXmXmXmXmXmXmXmXmXmXmXmXmXmXmXmXmXmXmXmXmXmXmXmXmXmXmX",
"mXmXmXmXmXmXmXmXmXmXmXmXmXmXmXmXmXmXmXmXmXmXmXmXmXmXmXmXmXmXmXmXmXmXmXmXmXmXmXmXmXmXmXmXmXmXmXmXmXmXmXmXmXmXmX",
"mXmXmXmXmXmXmXmXmXmXmXmXmXmXmXmXmXmXmXmXmXmXmXmXmXmXmXmXmXmXmXmXmXmXmXmXmXmXmXmXmXmXmXmXmXmXmXmXmXmXmXmXmXmXmX",
"mXmXmXmXmXmXmXmXmXmXmXmXmXmXmXmXmXmXmXmXmXmXmXmXmXmXmXmXmXmXmXmXmXmXmXmXmXmXmXmXmXmXmXmXmXmXmXmXmXmXmXmXmXmXmX",
"mXmXmXmXmXmXmXmXmXmXmXmXmXmXmXmXmXmXmXmXmXmXmXmXmXmXmXmXmXmXmXmXmXmXmXmXmXmXmXmXmXmXmXmXmXmXmXmXmXmXmXmXmXmXmX",
"mXmXmXmXmXmXmXmXmXmXmXmXmXmXmXmXmXmXmXmXmXmXmXmXmXmXmXmXmXmXmXmXmXmXmXmXmXmXmXmXmXmXmXmXmXmXmXmXmXmXmXmXmXmXmX",
"mXmXmXmXmXmXmXmXmXmXmXmXmXmXmXmXmXmXmXmXmXmXmXmXmXmXmXmXmXmXmXmXmXmXmXmXmXmXmXmXmXmXmXmXmXmXmXmXmXmXmXmXmXmXmX",
"mXmXmXmXmXmXmXmXmXmXmXmXmXmXmXmXmXmXmXmXmXmXmXmXmXmXmXmXmXmXmXmXmXmXmXmXmXmXmXmXmXmXmXmXmXmXmXmXmXmXmXmXmXmXmX",
"mXmXmXmXmXmXmXmXmXmXmXmXmXmXmXmXmXmXmXmXmXmXmXmXmXmXmXmXmXmXmXmXmXmXmXmXmXmXmXmXmXmXmXmXmXmXmXmXmXmXmXmXmXmXmX"
};
