/* XPM */
static char *_651345575843[] = {
/* columns rows colors chars-per-pixel */
"55 60 243 2 ",
"   c #313131",
".  c #323232",
"X  c #323333",
"o  c gray20",
"O  c #343333",
"+  c #343433",
"@  c #343434",
"#  c #353535",
"$  c #363534",
"%  c #363535",
"&  c gray21",
"*  c #373737",
"=  c gray22",
"-  c #393939",
";  c #3A3A3A",
":  c gray23",
">  c #3E3A38",
",  c #3C3C3C",
"<  c gray24",
"1  c #3E3E3E",
"2  c #3F3F3F",
"3  c #413C39",
"4  c #443D3A",
"5  c #463F3C",
"6  c #47403C",
"7  c #4B433E",
"8  c gray25",
"9  c #414141",
"0  c gray26",
"q  c #434343",
"w  c #444444",
"e  c gray27",
"r  c #464646",
"t  c gray28",
"y  c #4D4744",
"u  c #484848",
"i  c #494949",
"p  c gray29",
"a  c #4B4B4B",
"s  c #4C4C4C",
"d  c gray30",
"f  c #4E4E4E",
"g  c gray31",
"h  c #514640",
"j  c #5A4C44",
"k  c #515151",
"l  c gray32",
"z  c #535353",
"x  c gray33",
"c  c #555555",
"v  c #565656",
"b  c gray34",
"n  c #585858",
"m  c gray35",
"M  c #5A5A5A",
"N  c #5B5B5B",
"B  c gray36",
"V  c gray37",
"C  c #5F5F5F",
"Z  c #604F47",
"A  c #7B6355",
"S  c #73635B",
"D  c #606060",
"F  c gray38",
"G  c #626262",
"H  c #646464",
"J  c #656565",
"K  c gray40",
"L  c #676767",
"P  c #686868",
"I  c DimGray",
"U  c #6A6A6A",
"Y  c gray42",
"T  c #6C6C6C",
"R  c #6D6D6D",
"E  c gray43",
"W  c #6F6F6F",
"Q  c #7A6A63",
"!  c gray44",
"~  c #717171",
"^  c #727272",
"/  c gray45",
"(  c #777777",
")  c gray47",
"_  c gray48",
"`  c #7B7B7B",
"'  c #7C7C7C",
"]  c gray49",
"[  c #7E7E7E",
"{  c gray50",
"}  c #886C5C",
"|  c #87736A",
" . c #8E7A6F",
".. c #997866",
"X. c #947D71",
"o. c #998379",
"O. c #A5816C",
"+. c #AE8C7A",
"@. c #B38B74",
"#. c #B78E76",
"$. c #808080",
"%. c #818181",
"&. c gray51",
"*. c #848484",
"=. c gray52",
"-. c #868686",
";. c gray53",
":. c #898989",
">. c gray54",
",. c #8B8B8B",
"<. c gray55",
"1. c #8E8E8E",
"2. c gray56",
"3. c #909090",
"4. c gray57",
"5. c #929292",
"6. c #939393",
"7. c gray58",
"8. c #959595",
"9. c gray59",
"0. c #979797",
"q. c #989898",
"w. c gray60",
"e. c #9A9A9A",
"r. c #9B9B9B",
"t. c gray61",
"y. c #9D9D9D",
"u. c gray62",
"i. c #9F9F9F",
"p. c #A28C80",
"a. c #A99185",
"s. c #B79D8F",
"d. c #A0A0A0",
"f. c gray63",
"g. c #A2A2A2",
"h. c gray64",
"j. c #A4A4A4",
"k. c #A5A5A5",
"l. c gray65",
"z. c #A7A7A7",
"x. c gray66",
"c. c #A9A9A9",
"v. c #AAAAAA",
"b. c gray67",
"n. c #ACACAC",
"m. c gray68",
"M. c #AEAEAE",
"N. c #AFAFAF",
"B. c gray69",
"V. c #B1B1B1",
"C. c #B2B2B2",
"Z. c gray70",
"A. c #B4B4B4",
"S. c gray71",
"D. c #B6B6B6",
"F. c #B7B7B7",
"G. c gray72",
"H. c #B9B9B9",
"J. c gray73",
"K. c #BCBCBC",
"L. c gray74",
"P. c gray75",
"I. c #CC9D82",
"U. c #CD9E83",
"Y. c #CFA288",
"T. c #D2A68D",
"R. c #C9A795",
"E. c #D1A892",
"W. c #D2A892",
"Q. c #D1B2A2",
"!. c #D3B4A4",
"~. c #DDBBAB",
"^. c #E0B8A3",
"/. c #E1BAA5",
"(. c #E0BBA8",
"). c #E3BCA8",
"_. c #E5BEAA",
"`. c #E4BEAB",
"'. c #E0BDAC",
"]. c #E2C0AF",
"[. c #E5C2B0",
"{. c #E8C3B0",
"}. c #E9C3B1",
"|. c #EBC7B4",
" X c #ECC7B5",
".X c #ECC8B6",
"XX c #EDCBBA",
"oX c #C0C0C0",
"OX c #C1C1C1",
"+X c gray76",
"@X c #C3C3C3",
"#X c gray77",
"$X c #C5C5C5",
"%X c gray78",
"&X c #C8C8C8",
"*X c gray79",
"=X c #CACACA",
"-X c #CBCBCB",
";X c gray80",
":X c #CDCDCD",
">X c #CECECE",
",X c gray81",
"<X c #D0D0D0",
"1X c gray82",
"2X c #D2D2D2",
"3X c LightGray",
"4X c gray83",
"5X c #D5D5D5",
"6X c gray84",
"7X c #D7D7D7",
"8X c #D8D8D8",
"9X c gray85",
"0X c #DADADA",
"qX c gray86",
"wX c #DDDDDD",
"eX c gray87",
"rX c gray88",
"tX c #E1E1E1",
"yX c gray89",
"uX c #E4E4E4",
"iX c gray90",
"pX c #E6E6E6",
"aX c #E7E7E7",
"sX c gray91",
"dX c #E9E9E9",
"fX c #EAEAEA",
"gX c gray92",
"hX c #ECECEC",
"jX c gray93",
"kX c #EEEEEE",
"lX c #EFEFEF",
"zX c gray94",
"xX c #F3F3F3",
"cX c #F4F4F4",
"vX c gray96",
"bX c #F6F6F6",
"nX c gray97",
"mX c #F9F9F9",
"MX c gray98",
"NX c #FBFBFB",
"BX c gray99",
"VX c #FEFEFE",
"CX c None",
/* pixels */
"CXCXCXCXCXCXCXCXCXCXCXCXCXCXCXCXCXCXCXCXCXCXCXCXCXCXCXCXCXCXCXCXCXCXCXCXCXCXCXCXCXCXCXCXCXCXCXCXCXCXCXCXCXCXCX",
"CXCXCXCXCXCXCXCXCXCXCXCXCXCXCXCXCXCXCXCXCXCXCXCXCXCXCXCXCXCXCXCXCXCXCXCXCXCXCXCXCXCXCXCXCXCXCXCXCXCXCXCXCXCXCX",
"CXCXCXCXCXCXCXCXCXCXCXCXCXCXCXCXCXCXCXCXCXCXCXCXCXCXCXCXCXCXCXCXCXCXCXCXCXCXCXCXCXCXCXCXCXCXCXCXCXCXCXCXCXCXCX",
"CXCXCXCXCXCXCXCXCXCXCXCXCXCXCXCXCXCXCXCXCXCXCXCXCXCXCXCXCXCXCXCXCXCXCXCXCXCXCXCXCXCXCXCXCXCXCXCXCXCXCXCXCXCXCX",
"CXCXCXCXCXCXCXCXCXCXCXCXCXCXCXCXCXCXCXCXCXCXCXCXCXCXCX@ CXCXCXCXCXCXCXCXCXCXCXCXCXCXCXCXCXCXCXCXCXCXCXCXCXCXCX",
"CXCXCXCXCXCXCXCXCXCXCXCXCXCXCXCXCXCXCXCXCXCXCXCXo s ) { ^ - o o CXCXCXCXCXCXCXCXCXCXCXCXCXCXCXCXCXCXCXCXCXCXCX",
"CXCXCXCXCXCXCXCXCXCXCXCXCXCXCXCXCXCXCXCXCXCXCXCXo 0X0X0X7X7X7Xk.- @ CXCXCXCXCXCXCXCXCXCXCXCXCXCXCXCXCXCXCXCXCX",
"CXCXCXCXCXCXCXCXCXCXCXCXCXCXCXCXCXCXCXCXCXCXCXCXo 7Xk.k.k.k.k.x.P.i.o CXCXCXCXCXCXCXCXCXCXCXCXCXCXCXCXCXCXCXCX",
"CXCXCXCXCXCXCXCXCXCXCXCXCXCXCXCXCXCXCXCXCXCXCXCXo 0XC.k.k.k.k.x.k.z.Z.a o CXCXCXCXCXCXCXCXCXCXCXCXCXCXCXCXCXCX",
"CXCXCXCXCXCXCXCXCXCXCXCXCXCXCXCXCXCXCXCXCXCXCXCXo 0XF.k.k.x.k.k.z.k.6.,.@ o CXCXCXCXCXCXCXCXCXCXCXCXCXCXCXCXCX",
"CXCXCXCXCXCXCXCXCXCXCXCXCXCXCXCXCXCXCXCXCXCXCXCXo <XG.k.k.k.k.{ : o C W ) L : o CXCXCXCXCXCXCXCXCXCXCXCXCXCXCX",
"CXCXCXCXCXCXCXCXCXCXCXCXCXCXCXCXCXCXCXCXCXCXCXCXo oXoXk.k.H o W i.k.z.k.z.k.z.w.a o CXCXCXCXCXCXCXCXCXCXCXCXCX",
"CXCXCXCXCXCXCXCXCXCXCXCXCXCXCXCXCXCXCXCXCXCXCXo o G.%X^ o $.F.%X;X;XF.k.k.z.k.z.z.] o CXCXCXCXCXCXCXCXCXCXCXCX",
"CXCXCXCXCXCXCXCXCXCXCXCXCXCXCXCXCXCXCXCXCXCXo y.f.o o =.7X7X0X0X7X0X0X0X%Xk.z.k.z.k.3.o CXCXCXCXCXCXCXCXCXCXCX",
"CXCXCXCXCXCXCXCXCXCXCXCXCXCXCXCXCXCXCXCXCXo &XaX0X0X7X0X0X0X0X7X7X0X0X0X7X7Xb.k.k.z.z.*.o CXCXCXCXCXCXCXCXCXCX",
"CXCXCXCXCXCXCXCXCXCXCXCXCXCXCXCXCXCXCXCXo k.hX7X0X0X0X0X7X7X0X0X0X0X7X7X0X0X0XM.z.k.z.k.f CXCXCXCXCXCXCXCXCXCX",
"CXCXCXCXCXCXCXCXCXCXCXCXCXCXCXCXCXCXCXCX1 BX0X0X7X0X0X0X0X0X7X0X9X9X9X9X9X9X9X9Xx.l.l.l.8.o CXCXCXCXCXCXCXCXCX",
"CXCXCXCXCXCXCXCXCXCXCXCXCXCXCXCXCXCXCXo &XrX0X0X<X0X0X0X7X0X7X0X9X9X9X9X9X9X9X9X,Xk.l.l.z.o CXCXCXCXCXCXCXCXCX",
"CXCXCXCXCXCXCXCXCXCXCXCXCXCXCXCXCXCXCXo BX0X7XN o o o i ) f.oX0X9X9X9X9X9X9X*X' e.x.l.l.z.* CXCXCXCXCXCXCXCXCX",
"CXCXCXCXCXCXCXCXCXCXCXCXCXCXCXCXCXCXCXs bXP.o &X0 ;X<X<XP.7.W @ X U g.*X9XoX; 5X>.2 l.l.z.G CXCXCXCXCXCXCXCXCX",
"CXCXCXCXCXCXCXCXCXCXCXCXCXCXCXCXCXCXo 7.F.1 hXeXw k.0 7.f.y.F.&X5X+X8.k X X fX9X-XY $.l.l./ # CXCXCXCXCXCXCXCX",
"CXCXCXCXCXCXCXCXCXCXCXCXCXCXCXCXCXCXo i N bX@ 0Xw k.1 5.>.F 7.V l.l.b.K.2XX lXd ' 8.H l.l.,.& CXCXCXCXCXCXCXCX",
"CXCXCXCXCXCXCXCXCXCXCXCXCXCXCXCXCXCX@ W oX0Xo 0X1 k.0 5.<.V 7.w l.l.l.x.f.X zX:.T e.b l.l.5.X CXCXCXCXCXCXCXCX",
"CXCXCXCXCXCXCXCXCXCXCXCXCXCXCXCXCXCX@ bXo 0Xo 7X@ k.0 5.<.F y.v l.k.f.D X k C.,XN.I ' k.l.t.X CXCXCXCXCXCXCXCX",
"CXCXCXCXCXCXCXCXCXCXCXCXCXCXCXCXCXCXo bXv 0Xo 0X- k.w 5.w.{ k.k.t.N + ..t x.q L v i k.x.k.f.o CXCXCXCXCXCXCXCX",
"CXCXCXCXCXCXCXCXCXCXCXCXCXCXCXCXCXCXo : rX7Xo 0X^ k.v 7.k.k.5.i 3 O.I.I.o 9Xx.8.5.x.k.k.k.k.o CXCXCXCXCXCXCXCX",
"CXCXCXCXCXCXCXCXCXCXCXCXCXCXCXCXCXCXCXo o z.eX0XM.k.k.k.{ @ Z #.T.^.}.I.O 9X7X!.P.7Xx.k.k.x.o CXCXCXCXCXCXCXCX",
"CXCXCXCXCXCXCXCXCXCXCXCXCXCXCXCXCXCXCXo E.A @ N.;X5.l + } W.`..X|.|.~.@.O 9X9X9X0X7Xx.k.k.x.@ CXCXCXCXCXCXCXCX",
"CXCXCXCXCXCXCXCXCXCXCXCXCXCXCXCXCXCXCXo BX.X(.X.o S R.}.|..X.X.X.X+.4 H %X0X0X0X7X0Xk.k.k.I @ CXCXCXCXCXCXCXCX",
"CXCXCXCXCXCXCXCXCXCXCXCXCXCXCXCXCXCXo o x.[.}.j 0 !..X.X|..X.X~.@ { hXeX7X0X0X0X7XM.k.y.1 o CXCXCXCXCXCXCXCXCX",
"CXCXCXCXCXCXCXCXCXCXCXCXo CXCXCXCXCX@ oXi.| `.F XX|..X.X.X.X.X'.s BX0X0X0X0X0X&Xk.f.V o CXCXCXCXCXCXCXCXCXCXCX",
"CXCXCXCXCXCXCXCXCXo o V =.@ o CXCXCXo >.7X7 .Xo.a..X.X.X.X.X.X}.o bX0X0X0X;Xx.w.V o o CXCXCXCXCXCXCXCXCXCXCXCX",
"CXCXCXCXCXCXCXCX0 C.P.k.k.;X$.@ CXCXCX^ 0Xo /..X.X.XQ y p..X.X|.7 uX0X-Xb.$., o o CXCXCXCXCXCXCXCXCXCXCXCXCXCX",
"CXCXCXCXCXCXCXCXo hXC.k.k.<XaX<X1 @ CXo %Xo Y.|..X.X.X.X'.Q.s. .5 { $.w o o CXCXCXCXo CXCXCXCXCXCXCXCXCXCXCXCX",
"CXCXCXCXCXCXCXCXo MX0X<Xx.;XrXaX;Xw.@ @ o o o 5 7 @ o o @ W 1 V d.3 s D eX,.o o o - ) o CXCXCXCXCXCXCXCXCXCXCX",
"CXCXCXCXCXCXCXCXo rX0X0X0XaXrXaX<XaXk.w o o CXo CXCXo o <X1 t.0X0Xz.H 0X0Xz.* L %X&XM.,.o CXCXCXCXCXCXCXCXCXCX",
"CXCXCXCXCXCXCXCXo >.bXeX0XhXbXaX0XrXx.x.) o @ @ o CXo o yXF dX0X0XC.B i a H ;XoXz.k.z.k.w.@ CXCXCXCXCXCXCXCXCX",
"CXCXCXCXCXCXCXCXCXo o M.bXhXbXhXhXaXk.k.k.5.@ 1 o o { o %X1 v z.F.T o 0 aXuXz.k.k.z.k.z.k.@ CXCXCXCXCXCXCXCXCX",
"CXCXCXCXCXCXCXCXCXCXCXo o P.MXhXbXxX;Xx.x.1 0 - o o &Xo 1 M.C.W g @ w.MX0X0XM.k.z.k.z.k.k.o CXCXCXCXCXCXCXCXCX",
"CXCXCXCXCXCXCXCXCXCXCXCXCX@ - &XBXhX0X0X$.1 0 i gX7X^ o &XW v k.z &XlX0X0X8X7Xk.k.z.k.z.k.o CXCXCXCXCXCXCXCXCX",
"CXCXCXCXCXCXCXCXCXCXCXCXCXCXCXo 0 7XhX;Xo l 1 5.0X&X&Xo H F.%XI ^ 0XrX0X0X0X0XG.z.k.k.z.k.@ CXCXCXCXCXCXCXCXCX",
"CXCXCXCXCXCXCXCXCXCXCXCXCXCXCXCXCXo l >.i s @ - G.G.o o @ l F @ @ G.dX7X7X0X0X0Xk.z.z.k.<.@ CXCXCXCXCXCXCXCXCX",
"CXCXCXCXCXCXCXCXCXCXCXCXCXCXCXCXCXCXCXo N - f.<Xl o I N i i w s w >.bX0X0X0X0X7X;Xk.k.k.l CXCXCXCXCXCXCXCXCXCX",
"CXCXCXCXCXCXCXCXCXCXCXCXCXCXCXCXCXCXo 0 i o =.7X7X0X0X{ o - - - @ o >.bX0X7X0X0X0XM.z.f.@ CXCXCXCXCXCXCXCXCXCX",
"CXCXCXCXCXCXCXCXCXCXCXCXCXCXCXCXCXCXCXo o CXo 1 f.;XP.i i i 1 - CXCXo - <XdX0X0X0X4Xk.i o CXCXCXCXCXCXCXCXCXCX",
"CXCXCXCXCXCXCXCXCXCXCXCXCXCXCXCXCXCXCXCXCXCXCXCXo - =.@ w o @ @ CXCXo 5.W @ ( y.&X%X^ o CXCXCXCXCXCXCXCXCXCXCX",
"CXCXCXCXCXCXCXCXCXCXCXCXCXCXCXCXCXCXCXCXCXCXCXCXCXCXo - eX0Xk.o CXCXo hX;Xy.0 o @ o o CXCXCXCXCXCXCXCXCXCXCXCX",
"CXCXCXCXCXCXCXCXCXCXCXCXCXCXCXCXCXCXCXCXCXCXCXCXCXCXCXo W w.5.o CXCX@ @ o o o CXCXCXCXCXCXCXCXCXCXCXCXCXCXCXCX",
"CXCXCXCXCXCXCXCXCXCXCXCXCXCXCXCXCXCXCXCXCXCXCXCXCXCXCXCXo o o o CXCXCXCXCXCXCXCXCXCXCXCXCXCXCXCXCXCXCXCXCXCXCX",
"CXCXCXCXCXCXCXCXCXCXCXCXCXCXCXCXCXCXCXCXCXCXCXCXCXCXCXCXCXCXCXCXCXCXCXCXCXCXCXCXCXCXCXCXCXCXCXCXCXCXCXCXCXCXCX",
"CXCXCXCXCXCXCXCXCXCXCXCXCXCXCXCXCXCXCXCXCXCXCXCXCXCXCXCXCXCXCXCXCXCXCXCXCXCXCXCXCXCXCXCXCXCXCXCXCXCXCXCXCXCXCX",
"CXCXCXCXCXCXCXCXCXCXCXCXCXCXCXCXCXCXCXCXCXCXCXCXCXCXCXCXCXCXCXCXCXCXCXCXCXCXCXCXCXCXCXCXCXCXCXCXCXCXCXCXCXCXCX",
"CXCXCXCXCXCXCXCXCXCXCXCXCXCXCXCXCXCXCXCXCXCXCXCXCXCXCXCXCXCXCXCXCXCXCXCXCXCXCXCXCXCXCXCXCXCXCXCXCXCXCXCXCXCXCX",
"CXCXCXCXCXCXCXCXCXCXCXCXCXCXCXCXCXCXCXCXCXCXCXCXCXCXCXCXCXCXCXCXCXCXCXCXCXCXCXCXCXCXCXCXCXCXCXCXCXCXCXCXCXCXCX",
"CXCXCXCXCXCXCXCXCXCXCXCXCXCXCXCXCXCXCXCXCXCXCXCXCXCXCXCXCXCXCXCXCXCXCXCXCXCXCXCXCXCXCXCXCXCXCXCXCXCXCXCXCXCXCX",
"CXCXCXCXCXCXCXCXCXCXCXCXCXCXCXCXCXCXCXCXCXCXCXCXCXCXCXCXCXCXCXCXCXCXCXCXCXCXCXCXCXCXCXCXCXCXCXCXCXCXCXCXCXCXCX",
"CXCXCXCXCXCXCXCXCXCXCXCXCXCXCXCXCXCXCXCXCXCXCXCXCXCXCXCXCXCXCXCXCXCXCXCXCXCXCXCXCXCXCXCXCXCXCXCXCXCXCXCXCXCXCX",
"CXCXCXCXCXCXCXCXCXCXCXCXCXCXCXCXCXCXCXCXCXCXCXCXCXCXCXCXCXCXCXCXCXCXCXCXCXCXCXCXCXCXCXCXCXCXCXCXCXCXCXCXCXCXCX",
"CXCXCXCXCXCXCXCXCXCXCXCXCXCXCXCXCXCXCXCXCXCXCXCXCXCXCXCXCXCXCXCXCXCXCXCXCXCXCXCXCXCXCXCXCXCXCXCXCXCXCXCXCXCXCX",
"CXCXCXCXCXCXCXCXCXCXCXCXCXCXCXCXCXCXCXCXCXCXCXCXCXCXCXCXCXCXCXCXCXCXCXCXCXCXCXCXCXCXCXCXCXCXCXCXCXCXCXCXCXCXCX"
};
