/* XPM */
static char * mfaCattle_xpm[] = {
"64 64 12 1",
" 	c None",
".	c #45283C",
"+	c #8F563B",
"@	c #EEC39A",
"#	c #CBDBFC",
"$	c #222034",
"%	c #663931",
"&	c #76428A",
"*	c #D9A066",
"=	c #D77BBA",
"-	c #9BADB7",
";	c #847E87",
"                                                                ",
"                                                                ",
"                                                                ",
"                                                                ",
"                                                                ",
"                                                                ",
"                                                                ",
"                                                                ",
"                                                                ",
"        ...                                                     ",
"      ..+++...                                                  ",
"     .+@@@++++...        ..                                     ",
"    .+@@@@+++@@@@...  ...##.                                    ",
"    .+@@@++++++@@@++..#+++.                                     ",
"    .+@@+++++++++@@++.##++.                                     ",
"    .+++++++@@+++++++++$++.                                     ",
"    .+++%%%%@@@@++++++++++.                                     ",
"     .+%%&%%%**@@+++%%%+++.                                     ",
"     .+%==%..%***+%%%%.%++.                                     ",
"     .+%.+%  ...*+%..%..==.                                     ",
"      +% -;    .+%%.%.  ..                                      ",
"      -;       .+%.%%.                                          ",
"               .+% +%                                           ",
"                +% -;                                           ",
"                -;                                              ",
"                                                                ",
"                                                                ",
"                                                                ",
"                                                                ",
"                                                                ",
"                                                                ",
"                                                                ",
"                                                                ",
"                                                                ",
"                                                                ",
"                                                                ",
"                                                                ",
"                                                                ",
"                                                                ",
"                                                                ",
"                                                                ",
"                                                                ",
"                                                                ",
"                                                                ",
"                                                                ",
"                                                                ",
"                                                                ",
"                                                                ",
"                                                                ",
"                                                                ",
"                                                                ",
"                                                                ",
"                                                                ",
"                                                                ",
"                                                                ",
"                                                                ",
"                                                                ",
"                                                                ",
"                                                                ",
"                                                                ",
"                                                                ",
"                                                                ",
"                                                                ",
"                                                                "};
