/* XPM */
static char * mfaCabbage_xpm[] = {
"96 64 9 1",
" 	c None",
".	c #000000",
"+	c #37946E",
"@	c #6ABE30",
"#	c #696A6A",
"$	c #663931",
"%	c #595652",
"&	c #8F563B",
"*	c #4B692F",
"                                    .+@++#++$+++++++$+@++%++$                                   ",
"                                     #++$++++%&&$+@++%+++++++.                                  ",
"     ....    ....     ..     ...     #&&$+@++%&+$+@++%&&$+@++.       ....    ....     ..        ",
".   .++++.  .++++.   .++.   .+++.   .++++%+++++++%+++#++$#+++.      .++++.  .++++.   .++.       ",
"+.&&.++++.&&.+@++.&&.++++*&&.++++*&&.++++%&&$+@++#&&$++++%&&$       .++++.&&.+@++.&&.++++.&&    ",
"+%&&$+@@+%++$+@+$#++$+@++%+&$+@++%&&$+@@+#++$+@+$#++$+@++%+&$       .+@@+%++$+@+$#++$+@++%+&$   ",
"+#++++++++++$+++$++++%+++++++%+++#++++++++++$+++$++++%+++++++.      .+++++++$+++$++++%+++++++.  ",
"$++++%&&$+@++%&&$+@++%&&$+@++%&&$++++%&&$+@++%&&$+@++%&&$+@++.       #&&$+@++%&&$+@++%&&$+@++.  ",
"$+@++#++++@@+%++$++++#++++@+++++$+@++#++++@@+%++$++++#++++@++.       #++++@@+%++$++++#++++@++.  ",
"++++$#+++%+++++++%&&$++++%++$+++++++$#+++%+++++++%&&$++++%++$        #+++%+++++++%&&$++++%++$   ",
"+%&&$+@++%&&$+@++%&&$+@@+%&&$+@++%&&$+@++%&&$+@++%&&$+@@+%&&$       .+@++%&&$+@++%&&$+@@+%&&$   ",
"++++$+@++#++$+@++%++$#++++++++++++++$+@++#++$+@++%++$#+++++++.      .+@++#++$+@++%++$#+++++++.  ",
"$++++%++$#+++%+++++++%&+$++++%&&$++++%++$#+++%+++++++%&+$++++.       #++$#+++%+++++++%&+$++++.  ",
"++@++#&&$+@++%&&$+@++#++++@++#++++@++#&&$+@++%&&$+@++#++++@++.       #&&$+@++%&&$+@++#++++@++.  ",
"++++$#++$+@++#++$+++$++++%++$+++++++$#++$+@++#++$+++$++++%++$        #++$+@++#++$+++$++++%++$   ",
"+#&&$+++++++$++++%++$+@++%&&$+@++#&&$+++++++$++++%++$+@++%&&$       .+++++++$++++%++$+@++%&&$   ",
"$#++$+@+++++$+@++++++%++++++++@+$#++$+@+++++$+@++++++%+++++++.      .+@+++++$+@++++++%+++++++.  ",
"$++++%++$+++++++$+@++%&&$++++%++$++++%++$+++++++$+@++%&&$++++.       #++$+++++++$+@++%&&$++++.  ",
"$+@++%&&$+@++#&&$++++#++++@++#&&$+@++%&&$+@++#&&$++++#++++@++.       #&&$+@++#&&$++++#++++@++.  ",
"++@++#++$+++$++++%&&$++++%++$#++++@++#++$+++$++++%&&$++++%++$        #++$+++$++++%&&$++++%++$   ",
"+%++$++++%&&$++++%++$+@@+%&&$++++%++$++++%&&$++++%++$+@@+%&&$       .++++%&&$++++%++$+@@+%&&$   ",
"+%&&$+@++#&&$+@++++++++++#++$+@++%&&$+@++#&&$+@++++++++++#++$       .+@++#&&$+@++++++++++#++$   ",
"+#+++%++$#++++++$+@++%&&$+++++@++#+++%++$#++++++$+@++%&&$++++.       #++$#++++++$+@++%&&$++++.  ",
"$++++%&&$++++%&&$+@++#&&$+@++%++$++++%&&$++++%&&$+@++#&&$+@++.       #&&$++++%&&$+@++#&&$+@++.  ",
"$+@@++++$+@++#+++%++$+++$+@++%&&$+@@++++$+@++#+++%++$+++$+@++.      .+++$+@++#+++%++$+++$+@++.  ",
"$++++++++%++$++++%&&$++++%++++++$++++++++%++$++++%&&$++++%+++.      .++++%++$++++%&&$++++%+++.  ",
"+%&&$+@@+%&&$+@++#++++@++#&&$++++%&&$+@@+%&&$+@++#++++@++#&&$       .+@@+%&&$+@++#&&$+@++#&&$   ",
"+%&&$++++#++++++$++++%++$#++++@@+++++++++#++++++$++++%++$#+++.      .++++#&&$+++$#&&$#++$#&&$   ",
"+.&& #&&$++++%&&$+@@+%&&$++++++++++++%&&$++++%&&$+@@+%&&$++++.       .&&. && .&&  &&  &&  &&    ",
".    #++++@++%++$#+++#+&$+@@+%&&$+@++#++++@++%++$#+++#+&$+@@+.                                  ",
"    .++++%+++++++%&&$++++++++#++++++$++++%+++++++%&&$++++++++.                                  ",
"    .+@++%&&$+@+++++$++++%&&$++++%&&$+@++%&&$+@+++++$++++%&&$                                   ",
"    .+@++#++$+++++++$+@++%++$+@@++++$+@++#++$+++++++$+@++%++$                                   ",
"     #++$++++%&&$+@++%++++++++++++++$#++$++++%&&$+@++%+++++++.                                  ",
"     #&&$+@++%&+$+@++%&&$+@++%&&$+@++%&&$+@++%&+$+@++%&&$+@++...                                ",
"    .++++%+++++++%+++#++$#++++++$++++++++%+++++++%+++#++$#++++++                                ",
"    .++++%&&$+@++#&&$++++%&&$++++%&&$++++%&&$+@++#&&$++++%&&$+++                                ",
"    .+@@+%++$+@+$#++$+@++%+&$+@++%&&$+@@+%++$+@+$#++$+@++%+&$+@+                                ",
"    .+++++++$+++$++++%+++++++%+++#++++++++++$+++$++++%+++++++%++                                ",
"     #&&$+@++%&&$+@++%&&$+@++%&&$++++%&&$+@++%&&$+@++%&&$+@++%&&                                ",
"     #++++@@+%++$++++#++++@+++++$+@++#++++@@+%++$++++#++++@+++++                                ",
"     #+++%+++++++%&&$++++%++$+++++++$#+++%+++++++%&&$++++%++$+++                                ",
"    .+@++%&&$+@++%&&$+@@+%&&$+@++%&&$+@++%&&$+@++%&&$+@@+%&&$+@+                                ",
"    .+@++#++$+@++%++$#++++++++++++++$+@++#++$+@++%++$#++++++++++                                ",
"     #++$#+++%+++++++%&+$++++%&&$++++%++$#+++%+++++++%&+$++++%&&                                ",
"     #&&$+@++%&&$+@++#++++@++#++++@++#&&$+@++%&&$+@++#++++@++#++                                ",
"     #++$+@++#++$+++$++++%++$+++++++$#++$+@++#++$+++$++++%++$+++                                ",
"    .+++++++$++++%++$+@++%&&$+@++#&&$+++++++$++++%++$+@++%&&$+@+                                ",
"    .+@+++++$+@++++++%++++++++@+$#++$+@+++++$+@++++++%++++++++@+                                ",
"     #++$+++++++$+@++%&&$++++%++$++++%++$+++++++$+@++%&&$++++%++                                ",
"     #&&$+@++#&&$++++#++++@++#&&$+@++%&&$+@++#&&$++++#++++@++#&&                                ",
"     #++$+++$++++%&&$++++%++$#++++@++#++$+++$++++%&&$++++%++$#++                                ",
"    .++++%&&$++++%++$+@@+%&&$++++%++$++++%&&$++++%++$+@@+%&&$+++                                ",
"    .+@++#&&$+@++++++++++#++$+@++%&&$+@++#&&$+@++++++++++#++$+@+                                ",
"     #++$#++++++$+@++%&&$+++++@++#+++%++$#++++++$+@++%&&$+++++@+                                ",
"     #&&$++++%&&$+@++#&&$+@++%++$++++%&&$++++%&&$+@++#&&$+@++%++                                ",
"    .+++$+@++#+++%++$+++$+@++%&&$+@@++++$+@++#+++%++$+++$+@++%&&                                ",
"    .++++%++$++++%&&$++++%++++++$++++++++%++$++++%&&$++++%++++++                                ",
"    .+@@+%&&$+@++#++++@++#&&$++++%&&$+@@+%&&$+@++#&&$+@++#&&$+++                                ",
"    .++++#++++++$++++%++$#++++@@+%&&$++++#&&$+++$#&&$#++$#&&$+@@                                ",
"     #&&$++++%&&$+@@+%&&$++++++++.&&  &&  &&  &&  &&  &&  &&.+++                                ",
"     #++++@++%++$#+++#+&$+@@+....                            ...                                ",
"    .++++%+++++++%&&$++++++++.                                                                  ",
"    .+@++%&&$+@+++++$++++%&&$                                                                   "};
