/* XPM */
static char * mfaFence_xpm[] = {
"96 64 5 1",
" 	c None",
".	c #45283C",
"+	c #8F563B",
"@	c #663931",
"#	c #DF7126",
"     ..        ..        ..      .+@.                      .+@.   ..           ..           ..  ",
".....#+........#+........#+.......#+.                      .+@.  .#+...........#+...........#+. ",
"++++++@+++++++++@+++++++++@++++++++@.                      .+@.  .+@++++++++++++@++++++++++++@. ",
"@@@@@+@@@@@@@@@+@@@@@@@@@+@@@@@@@@+@.                      .+@.  .+@@@@@@@@@@@@+@@@@@@@@@@@@+@. ",
"     +@        +@        +@       +@                       .#+.  .+@.          +@          .+@. ",
"     +@        +@        +@       +@                       .+@.  .+@.          +@          .+@. ",
"                                                           .+@.  .+@.                      .+@. ",
"                                                           .+@.  .+@.                      .+@. ",
"                                                           .+@.  .+@.                      .+@. ",
"                                                           .+@.  .+@.                      .+@. ",
"                                                           .+@.  .+@.                      .+@. ",
"                                                           .+@.  .+@.                      .+@. ",
"                                                           .+@.  .+@.                      .+@. ",
"                                                           .+@.  .+@.                      .+@. ",
"                                                           .#+.  .#+.                      .#+. ",
"                                                           .+@.  .+@.                      .+@. ",
"                                                           .+@.  .+@.                      .+@. ",
"                                                           .+@.  .+@.                      .+@. ",
"                                                           .+@.  .+@.                      .+@. ",
"                                                           .+@.  .+@.                      .+@. ",
"                                                           .+@.  .+@.                      .+@. ",
"                                                           .+@.  .+@.                      .+@. ",
"                                                           .+@.  .+@.                      .+@. ",
"                                                           .+@.  .+@.                      .+@. ",
"                                                           .#+.  .+@.                      .+@. ",
"                                                           .+@.  .+@.                      .+@. ",
"  ..                                                       .+@.  .+@.          ..          .+@. ",
"..#+.                                                      .+@.  .#+...........#+...........#+. ",
"+++@.                                                      .+@.  .+@++++++++++++@++++++++++++@. ",
"@@+@.                                                      .+@.  .+@@@@@@@@@@@@+@@@@@@@@@@@@+@. ",
" .+@.                                                      .+@.   +@           +@           +@  ",
" .+@.                                                      .+@.   +@           +@           +@  ",
" .+@.                                                      .+@.                                 ",
" .+@.                                                      .#+..                                ",
" .+@.                                                      .+@++                                ",
" .+@.                                                      .+@@@                                ",
" .#+.                                                       +@                                  ",
" .+@.                                                       +@                                  ",
" .+@.                                                                                           ",
" .+@.                                                                                           ",
" .+@.                                                                                           ",
" .+@.                                                                                           ",
" .+@.                                                                                           ",
" .+@.                                                                                           ",
" .+@.                                                                                           ",
" .+@.                                                                                           ",
" .#+.                                                                                           ",
" .+@.                                                                                           ",
" .+@.                                                                                           ",
" .+@.                                                                                           ",
" .+@.                                                                                           ",
" .+@.                                                                                           ",
" .+@.                                                                                           ",
" .+@.                                                                                           ",
" .+@.                                                                                           ",
" .+@.                                                                                           ",
" .#+.                                                                                           ",
" .+@.                                                                                           ",
" .+@.                       ..       ..        ..        ..                                     ",
" .+@.                      .#+.......#+........#+........#+.....                                ",
" .+@.                      .+@++++++++@+++++++++@+++++++++@+++++                                ",
" .+@.                      .+@@@@@@@@+@@@@@@@@@+@@@@@@@@@+@@@@@@                                ",
" .+@.                      .+@.      +@        +@        +@                                     ",
" .+@.                      .+@.      +@        +@        +@                                     "};
