/* XPM */
static char * mfaMaize_xpm[] = {
"96 64 8 1",
" 	c None",
".	c #000000",
"+	c #6ABE30",
"@	c #37946E",
"#	c #DF7126",
"$	c #524B24",
"%	c #4B692F",
"&	c #D9A066",
"                               .  .+..@@#$$@@%@+&@@&$$+&+@++.                                   ",
". .       . . .   .           .&. ..@+@@+@@&%$$@#%@#@@@#@+@.                . .   .             ",
"..&.   . .&.&.&. .&.   .     ..#..&..@@&@%&#&$&@+$&+$%@++@.            .   .&.&. .&.   .        ",
".+#&...&.+#.#.#...#. ..&.  ..+.+.+#&++.&+$#+#$#@@$#@$$%&@++.          .&. ..#.#. .#. ..&.       ",
"+@+#.+.&.@+.+.+&.++..+.&...&.@+&+@+#@++&@$+@+$+&@++@$+$&+@@+.        ..&..+.+.+&.++..+.&.       ",
"@.@+.@+#@.@&@.@#+@@&++.#++.&++@#@.@+.@+#$$@&@$@#+@@&++$#@...        .+.#..@&@.@#+@@&++.#..      ",
".+%&.@@+%+&#@@@+&+@#&@+&.@+#@@&+.+%&.@@+$+&#@@@+&+@#&@+&.++.        .@++.+&#@@@+&+@#&@+&.+.     ",
"@@+#@% @+@#+%%@@#@++#.@#@.@+.@#@@@+#@% @+@#+%%@@#@++#$@#+@.         ..@@+@#+%%@@#@++#.@#+@.     ",
"&%@+%$$&@%+&$@%&+$&@+$$+&$+&@%+@&%@+%$$&@%+&$@%&+$&@+@@+&++.       .++.&@%+&$@%&+$&@+$.+&.      ",
"#$%&@@$#&$@#@%$#@@#@@$$@#@&#%+@@#$%&@+$#&$@#@%$#@@#@@%$@#@..      .++@+#&$@#@%$#@@#@@$$@#...    ",
"+$$#&%@&#@@+%$$+@%+&++$&+%#+$@+@+$$#&@@&#@@+%$$+@%+&++$&+.++.      .@+@&#@@+%$$+@%+&++$&+.++.   ",
"@+$+#$%#+%@&@@$&@@@#@@+#@$+@@@@&@+$+#$%#+%@&@@$&@@@#@@+#@+@.        .@+#+%@&@@$&@@@#@@+#@+@.    ",
"+@@&+$$+@$%#&%@#&%@+&@@+&@@&$+@#+@@&+$$+@$%#&%@#&%@+&@@+&@.          .@+@$%#&%@#&%@+&@@+&@.     ",
"@$%#@$$&@@$+#$$+#$%@#%$@#+@&+@%+@$%#@$$&@@$+#$%+#$%@#%$@#.+.       ..+.&@@$+#$$+#$%@#%$@#.+.    ",
"&$&+%@@#$%@&+$@@+$$&+$$@+@%&@$+@&$&+++@#$%@&+$@@+$$&+$$@++@.      .++@+#$%@&+$@@+$$&+$$@++@.    ",
"#@#@@%$&$@%#@@%&@++#@$+&@$$#+$$@#@#@@@+&$@%#@@%&@++#@$+&++.        .@+@&$@%#@@%&@++#@$+&++.     ",
"+%+@&$+#$$&+$+@&@$$+&$@&%$$+@@&@+$+@&$@#$$&+$+@&@%@+&+@&@@+.        .@+#@%&+@@$&@%@+&+@&@@+.    ",
"@$@@++@+&$#@+@%#$$$@#@%#$$$&@%#@@$@&#@$+&$#@+@%#$$$@#@%#.++.       .++@+%$#@$%@#%$$@#@$#...     ",
"+$%+@@+@#$+@&@@&$+$&+%&+$+@#%$+&+$%#+%@@#$+@&@@&$+$&+%&++@@+.       .@++%%+@$+%+$+$@+@$+.++.    ",
"@@+.+.@&+$@@#%$#$@+#@$#@$@++&$@#@@@+@$%&+$@@#%$#$@+#@$#@@.++.       .+@+$%+@$+++$@+@+%@++@..    ",
"%$$.@+.#@@@@+$&+$@@&@$+&@%@@#+%&@%$@%$$#@@@@+$&+$@@&@$+&.+@.       .+@@+$++@+@@+@%@+%$%+@+++.   ",
"$$$+.@++@+@&@$#@@%$#++@#%$$&+@$#%$$&++@+@+@&@$#@@%$#++@#+@.        .++.++@%+@$$+%$$+++$++@@.    ",
"++$.++@&+@%&@$+@%$$&$@+&$@@#@$&+@$$&@@+&+@%&@$+@%$$&$@+&@..       .+@@++@$%+%@$+$+++%@++@++.    ",
"$@+..@+&@$$#$@@&$+$#$$@#@+++%$#&%++#%$@&@$$#$@@&$+$#$$@#.++.       ...@+++$+$%@++@@+%++++@@+.   ",
"$+.++.@#$@@+&%@#&@$+&$$++@$&$$+#+@@&$$$#$@@+&%@#&@$+&$$++@..      .++..+$@++$$%+@$$++@$+@...    ",
"+@$.@+&+@%$@#$$+#$$@#@$&@$&#@@@+@$%&$$&+@%$@#$$+#$$@#@$&@.++.      .@+.+@%@+++$+$$$+@@$+.+++.   ",
"@$$+.@#@%+$&+$&@+@@&+%@#@@#+$%%&$$$#@@#@%+$&+$&@+@@&+%@#.+@.        .@++%$$+$+++++$+$%@++@..    ",
"$$$.+++@&@+#@@#@@%%#@$%+$%+&++$#$+@++%+@&@+#@@#@@%%#@$%++@.          .@@$$$++@@+$@++$$%+@.      ",
"$$.+.@@@#$@&@%+&@$&+@$$@$+@#$@++@@+&@$@@#$@&@%+&@$&+@$$@@++.           @$ $@@$$@$$@@$$$@.       ",
"$ .@+.&@+@$&$$@#$+#&$++&$@&+$@@+%$@#$$&@+@$&$$@#$+#&$++&+@@+.          @  $@$ $@$ $@$ $@        ",
"   .@+#@@%@#$+@&+@+#+@&#@@#@@%$#&@$+&$#@@%@#$+@&+@+#+@&#@...               @   @   @   @        ",
"   ..@+@&$%+$@+#@$@+@$#+$++@%$$+#%@@#@+@&$%+$@+#@$@+@$#+.++.                                    ",
"  .++.@@#$$@@%@+&@@&$$+&+@@&$+$&+$%&+%@@#$$@@%@+&@@&$$+&+@++.  .                                ",
"   .@+@@+@@&%$$@#%@#@@@#@$%#+@$&@$$#@$%@+@@&%$$@#%@#@@@#@+@.  .&                                ",
"    .@@&@%&#&$&@+$&+$%@+$@@+@%@#%$&+%$+&@%&#&$&@+$&+$%@++@.  ..#                                ",
"   .++.&+$#+#$#@@$#@$$%&@%$@$+%+$+#&$$@&+$#+#$#@@$#@$$%&@++..+.+                                ",
"  .+@@+&@$+@+$+&@++@$+$&%$$&$@+&+@+#$+$&@$+@+$+&@++@$+$&+@.&.@+&                                ",
"   ..+@#$$@&@$@#+@@&++$#++$&$$@#@$@+$@+#$$@&@$@#+@@&++$#++.&..@#                                ",
"    .@++$+&#@@@+&+@#&@+&$@+#$$&+$+%&$@@+$+&#@@@+&+@#&@+&.@+#..&+                                ",
"    ..@@+@#+%%@@#@++#$@#$$@+$@#@@@+#@%$@+@#+%%@@#@++#$@#+@@+.@#@                                ",
"   .++.&@%+&$@%&+$&@+@@+&$+&@%+@&%@+%$$&@%+&$@%&+$&@+@@+&$+&@%+@                                ",
"  .++@+#&$@#@%$#@@#@@%$@#@&#%+@@#$%&@@$#&$@#@%$#@@#@@%$@#@&#%+@@                                ",
"   .@+@&#@@+%$$+@%+&++$&+%#+$@+@+$$#&%@&#@@+%$$+@%+&++$&+%#+$@+@                                ",
"    .@+#+%@&@@$&@@@#@@+#@$+@@@@&@+$+#$%#+%@&@@$&@@@#@@+#@$+@@@@&                                ",
"     .@+@$%#&%@#&%@+&@@+&@@&$+@#+@@&+$$+@$%#&%@#&%@+&@@+&@@&$+@#                                ",
"   ..+.&@@$+#$$+#$%@#%$@#+@&+@%+@$%#@$$&@@$+#$$+#$%@#%$@#+@&+@%+                                ",
"  .++@+#$%@&+$@@+$$&+$$@+@%&@$+@&$&+%@@#$%@&+$@@+$$&+$$@+@%&@$+@                                ",
"   .@+@&$@%#@@%&@++#@$+&@$$#$@@+#@#@@%$&$@%#@@%&@++#@$+&@$$#$@@+                                ",
"    .@+#@%&+@+@&@$$+&$@&%@@+@%&@+%+@&$+#@%&+@@$&@%@+&+@&%@@+@%&@                                ",
"   .++.+&$#@+@%#$$$@#@%#@+++%+#@@$@@#$@+%$#@$%@#%$$@#@$#@%$+%+#@                                ",
"  .+@@+.#$+@&@@&$+$&+%&++@@++@+@+$%@++$+%%+@$+%+$+$@+@$+%$$++@+@                                ",
"   .+.@&+$@@#%$#$@+#@$#@@.++.@++@@+++@$+$%+@$+++$@+@+%@+@+++@@++                                ",
"   .@+.#@@@@+$&+$@@&@$+&.+@.$%+@%$$@+$$+$++@+@@+@%@+%$%++@@+$%+@                                ",
"    .@++@+@&@$#@@%$#++@#+@.+$$$+$$$++++++@%+@$$+%$$+++$+$$%+$$$+                                ",
"   .++@&+@%&@$+@%$$&$@+&@..+++@+++$+@@$+@$%+%@$+$+++%@++$$$+++@+                                ",
"   ..@+&@$$#$@@&$+$#$$@#.++.$@++$@++++$+++$+$%@++@@+%++++@@+$@++                                ",
"  .++.@#$@@+&%@#&@$+&$$++@..@%@+$+++$@++$@++$$%+@$$++@$+@+$+@%@+                                ",
"   .@+&+@%$@#$$+#$$@#@$&%.++.$$++@$+$$++@%@+++$+$$$+@@$+%@++%$$+                                ",
"    .@#@%+$&+$&@+@@&+%@#.+@.++$+@$$+$+@+%$$+$+++++$+$%@+$$@+++$+                                ",
"   .+++@&@+#@@#@@%%#@$%++@.@$@++$$$++@$@$$$++@@+$@++$$%+$$$@$@++                                ",
"  .+.@@@#$@&@%+&@$&+@$$@@++.$ @@$$$@@ $@$ $@@$$@$$@@$$$@$ $@$ @@                                ",
"  .@+.&@+@$&$$@#$+#&$++&+@@+. $@$ $@$  @  $@$ $@$ $@$ $@$  @  $@                                ",
"   .@+#@@%@#$+@&+@+#+@&#@...   @   @       @   @   @   @       @                                ",
"   ..@+@&$%+$@+#@$@+@$#+.++.                                                                    "};
