/* XPM */
static char * mfaRoad_xpm[] = {
"128 128 6 1",
" 	c None",
".	c #8F563B",
"+	c #6ABE30",
"@	c #663931",
"#	c #CBDBFC",
"$	c #595652",
"  .+.+..++.+.+..+.+..++..+.+.+.                                                                                                 ",
"  ..............................                                                                                                ",
" @#############################.                                                                                                ",
" @#$$$$$$#$$$$$$#$$$$$$#$$$$$$#.                                                                                                ",
" @#$$$$$$#$$$$$$#$$$$$$#$$$$$$#.                                                                                                ",
" @#$$$$$$#$$$$$$#$$$$$$#$$$$$$#.                                                                                                ",
" @#$$$$$$#$$$$$$#$$$$$$#$$$$$$#.                                                                                                ",
" @#$$$$$$#$$$$$$#$$$$$$#$$$$$$#.                                                                                                ",
" @#$$$$$$#$$$$$$#$$$$$$#$$$$$$#. +...+.+..+..+.+.+..+...++..+..++...++.+...+..+.+.+..+.+.+..+..++..+.+..+..+.+.+..+...+.+.+..+. ",
" @#$$$$$$#$$$$$$#$$$$$$#$$$$$$#. ...............................................................................................",
" @#$$$$$$#$$$$$$#$$$$$$#$$$$$$#.@##############################################################################################.",
" @#$$$$$$$$$$$$$$$$$$$$$$$$$$$#.@#$$$$$$$$$$$$$$$$$$$$$$$$$$$$$$$$$$$$$$$$$$$$$$$$$$$$$$$$$$$$$$$$$$$$$$$$$$$$$$$$$$$$$$$$$$$$#.",
" @#$$$$$$$$$$$$$$$$$$$$$$$$$$$#.@#$$$$$$$$$$$$$$$$$$$$$$$$$$$$$$$$$$$$$$$$$$$$$$$$$$$$$$$$$$$$$$$$$$$$$$$$$$$$$$$$$$$$$$$$$$$$#.",
" @#$$$$$$$$$$$$$$$$$$$$$$$$$$$#.@#$$$$$$$$$$$$$$$$$$$$$$$$$$$$$$$$$$$$$$$$$$$$$$$$$$$$$$$$$$$$$$$$$$$$$$$$$$$$$$$$$$$$$$$$$$$$#.",
" @#$$$$$$$$$$$$$$$$$$$$$$$$$$$#.@#$$$$$$$$$$$$$$$$$$$$$$$$$$$$$$$$$$$$$$$$$$$$$$$$$$$$$$$$$$$$$$$$$$$$$$$$$$$$$$$$$$$$$$$$$$$$#.",
" @#$$$$$$$$$$$$$$$$$$$$$$$$$$$#.@#$$$$$$$$####$$$$####$$$$####$$$$####$$$$####$$$$####$$$$####$$$$####$$$$####$$$$####$$$$$$$$#.",
" @#$$$$$$$$$$$$$$$$$$$$$$$$$$$#.@#$$$$$$$$$$$$$$$$$$$$$$$$$$$$$$$$$$$$$$$$$$$$$$$$$$$$$$$$$$$$$$$$$$$$$$$$$$$$$$$$$$$$$$$$$$$$#.",
" @#$$$$$$$$$$$$$$$$$$$$$$$$$$$#.@#$$$$$$$$$$$$$$$$$$$$$$$$$$$$$$$$$$$$$$$$$$$$$$$$$$$$$$$$$$$$$$$$$$$$$$$$$$$$$$$$$$$$$$$$$$$$#.",
" @#$$$$$$$$$$$$$$$$$$$$$$$$$$$#.@#$$$$$$$$$$$$$$$$$$$$$$$$$$$$$$$$$$$$$$$$$$$$$$$$$$$$$$$$$$$$$$$$$$$$$$$$$$$$$$$$$$$$$$$$$$$$#.",
" @#$$$$$$$$$$$$$$$$$$$$$$$$$$$#.@#$$$$$$$$$$$$$$$$$$$$$$$$$$$$$$$$$$$$$$$$$$$$$$$$$$$$$$$$$$$$$$$$$$$$$$$$$$$$$$$$$$$$$$$$$$$$#.",
" @#$$$$$$$$$$$$$$$$$$$$$$$$$$$#.@##############################################################################################.",
" @#$$$$$$#$$$$$$#$$$$$$#$$$$$$#. @@@@@@@@@@@@@@@@@@@@@@@@@@@@@@@@@@@@@@@@@@@@@@@@@@@@@@@@@@@@@@@@@@@@@@@@@@@@@@@@@@@@@@@@@@@@@@ ",
" @#$$$$$$#$$$$$$#$$$$$$#$$$$$$#.                                                                                                ",
" @#$$$$$$#$$$$$$#$$$$$$#$$$$$$#.                                                                                                ",
" @#$$$$$$#$$$$$$#$$$$$$#$$$$$$#.                                                                                                ",
" @#$$$$$$#$$$$$$#$$$$$$#$$$$$$#.                                                                                                ",
" @#$$$$$$#$$$$$$#$$$$$$#$$$$$$#.                                                                                                ",
" @#$$$$$$#$$$$$$#$$$$$$#$$$$$$#.                                                                                                ",
" @#$$$$$$#$$$$$$#$$$$$$#$$$$$$#.                                                                                                ",
" @#############################.                                                                                                ",
"  @@@@@@@@@@@@@@@@@@@@@@@@@@@@@                                                                                                 ",
"                                                                                                                                ",
"                                                                                                                                ",
"     .+.+..+..++..+.+..+.+                                                                                                      ",
"     ......................                                                                                                     ",
"    @#####################.                                                                                                     ",
"    @#$$$$$$$$$$$$$$$$$$$#.                                                                                                     ",
"    @#$$$$$$$$$$$$$$$$$$$#.                                                                                                     ",
"    @#$$$$$$$$$$$$$$$$$$$#.                                                                                                     ",
"    @#$$$$$$$$$$$$$$$$$$$#.                                                                                                     ",
"    @#$$$$$$$$$$$$$$$$$$$#.                              ..+.+.++...+.+..+.+..+..+.+.+..+..+.+.++..+.+                          ",
"    @#$$$$$$$$$#$$$$$$$$$#.                         .+.+...............................................+.+.                     ",
"    @#$$$$$$$$$#$$$$$$$$$#.                     +.+......#############################################......+..                 ",
"    @#$$$$$$$$$$$$$$$$$$$#.                   ......#####$$$$$$$$$$$$$$$$$$$$$$$$$$$$$$$$$$$$$$$$$$$$$#####....+.               ",
"    @#$$$$$$$$$$$$$$$$$$$#.                 .+..####$$$$$$$$$$$$$$$$$$$$$$$$$$$$$$$$$$$$$$$$$$$$$$$$$$$$$$$####....             ",
"    @#$$$$$$$$$#$$$$$$$$$#.               .+..##$$$$$$$$$$$$$$$$$$$$$$$$$$$$$$$$$$$$$$$$$$$$$$$$$$$$$$$$$$$$$$$##..+.           ",
"    @#$$$$$$$$$#$$$$$$$$$#.              ...##$$$$$$$$$$$$$$$$$$$$$$$$$$$$$$$$$$$$$$$$$$$$$$$$$$$$$$$$$$$$$$$$$$$##...          ",
"    @#$$$$$$$$$$$$$$$$$$$#.             ..##$$$$$$$$$$$$$$####$$$$####$$$$####$$$$####$$$$####$$$$####$$$$$$$$$$$$$##..         ",
"    @#$$$$$$$$$$$$$$$$$$$#.            ..#$$$$$$$$$$$##$$$$$$$$$$$$$$$$$$$$$$$$$$$$$$$$$$$$$$$$$$$$$$$$$$$$$$$$$$$$$$#..        ",
"    @#$$$$$$$$$#$$$$$$$$$#.            .#$$$$$$$$$$$#$$$$$$$$$$$$$$$$$$$$$$$$$$$$$$$$$$$$$$$$$$$$$$$$$$$$##$$$$$$$$$$$#..       ",
"    @#$$$$$$$$$#$$$$$$$$$#.           @#$$$$$$$$$$$$$$$$$$$$$$$$$$$$$$$$$$$$$$$$$$$$$$$$$$$$$$$$$$$$$$$$$$$#$$$$$$$$$$$#..      ",
"    @#$$$$$$$$$$$$$$$$$$$#.          @#$$$$$$$$$$$$$$$$$$$$$$$$$$$$$$$$$$$$$$$$$$$$$$$$$$$$$$$$$$$$$$$$$$$$$$$$$$$$$$$$$#.      ",
"    @#$$$$$$$$$$$$$$$$$$$#.          @#$$$$$$$$$#$$$$$$$$$$$##########$$$$$$$$$$$$$$$$$$$##########$$$$$$$$$$$$$$$$$$$$$#..     ",
"    @#$$$$$$$$$#$$$$$$$$$#.         @#$$$$$$$$$#$$$$$$$$$$##@@@@@@@@@#$$$$$$$$$#$$$$$$$$$#.@@@@@@@@##$$$$$$$$$#$$$$$$$$$$#.     ",
"    @#$$$$$$$$$#$$$$$$$$$#.         @#$$$$$$$$$#$$$$$$$$$#.@        @#$$$$$$$$$#$$$$$$$$$#.        @@#$$$$$$$$$#$$$$$$$$$#.     ",
"    @#$$$$$$$$$$$$$$$$$$$#.         @#$$$$$$$$$$$$$$$$$$$#.         @#$$$$$$$$$$$$$$$$$$$#.         @#$$$$$$$$$$$$$$$$$$$#.     ",
"    @#$$$$$$$$$$$$$$$$$$$#.         @#$$$$$$$$$$$$$$$$$$$#.         @#$$$$$$$$$$$$$$$$$$$#.         @#$$$$$$$$$$$$$$$$$$$#.     ",
"    @#$$$$$$$$$#$$$$$$$$$#.         @#$$$$$$$$$#$$$$$$$$$#.         @#$$$$$$$$$#$$$$$$$$$#.         @#$$$$$$$$$#$$$$$$$$$#.     ",
"    @#$$$$$$$$$#$$$$$$$$$#.         @#$$$$$$$$$#$$$$$$$$$#.         @#$$$$$$$$$#$$$$$$$$$#.         @#$$$$$$$$$#$$$$$$$$$#.     ",
"    @#$$$$$$$$$$$$$$$$$$$#.         @#$$$$$$$$$$$$$$$$$$$#.         @#$$$$$$$$$$$$$$$$$$$#.         @#$$$$$$$$$$$$$$$$$$$#.     ",
"    @#$$$$$$$$$$$$$$$$$$$#.         @#$$$$$$$$$$$$$$$$$$$#.         @#$$$$$$$$$$$$$$$$$$$#.         @#$$$$$$$$$$$$$$$$$$$#.     ",
"    @#$$$$$$$$$#$$$$$$$$$#.         @#$$$$$$$$$#$$$$$$$$$#.         @#$$$$$$$$$#$$$$$$$$$#.         @#$$$$$$$$$#$$$$$$$$$#.     ",
"    @#$$$$$$$$$#$$$$$$$$$#.         @#$$$$$$$$$#$$$$$$$$$#.         @#$$$$$$$$$#$$$$$$$$$#.         @#$$$$$$$$$#$$$$$$$$$#.     ",
"    @#$$$$$$$$$$$$$$$$$$$#.         @#$$$$$$$$$$$$$$$$$$$#.         @#$$$$$$$$$$$$$$$$$$$#.         @#$$$$$$$$$$$$$$$$$$$#.     ",
"    @#$$$$$$$$$$$$$$$$$$$#.         @#$$$$$$$$$$$$$$$$$$$#.         @#$$$$$$$$$$$$$$$$$$$#.         @#$$$$$$$$$$$$$$$$$$$#.     ",
"    @#$$$$$$$$$#$$$$$$$$$#.         @#$$$$$$$$$#$$$$$$$$$#.         @#$$$$$$$$$#$$$$$$$$$#.         @#$$$$$$$$$#$$$$$$$$$#.     ",
"    @#$$$$$$$$$#$$$$$$$$$#.         @#$$$$$$$$$#$$$$$$$$$#.         @#$$$$$$$$$#$$$$$$$$$#.         @#$$$$$$$$$#$$$$$$$$$#.     ",
"    @#$$$$$$$$$$$$$$$$$$$#.         @#$$$$$$$$$$$$$$$$$$$#.         @#$$$$$$$$$$$$$$$$$$$#.         @#$$$$$$$$$$$$$$$$$$$#.     ",
"    @#$$$$$$$$$$$$$$$$$$$#.         @#$$$$$$$$$$$$$$$$$$$#.         @#$$$$$$$$$$$$$$$$$$$#.         @#$$$$$$$$$$$$$$$$$$$#.     ",
"    @#$$$$$$$$$#$$$$$$$$$#.         @#$$$$$$$$$#$$$$$$$$$#.         @#$$$$$$$$$#$$$$$$$$$#.         @#$$$$$$$$$#$$$$$$$$$#.     ",
"    @#$$$$$$$$$#$$$$$$$$$#.         @#$$$$$$$$$#$$$$$$$$$#.         @#$$$$$$$$$#$$$$$$$$$#.         @#$$$$$$$$$#$$$$$$$$$#.     ",
"    @#$$$$$$$$$$$$$$$$$$$#.         @#$$$$$$$$$$$$$$$$$$$#.         @#$$$$$$$$$$$$$$$$$$$#.         @#$$$$$$$$$$$$$$$$$$$#.     ",
"    @#$$$$$$$$$$$$$$$$$$$#.         @#$$$$$$$$$$$$$$$$$$$#..+..++.+.@#$$$$$$$$$$$$$$$$$$$#..+..++.+.@#$$$$$$$$$$$$$$$$$$$#.     ",
"    @#$$$$$$$$$#$$$$$$$$$#.         @#$$$$$$$$$#$$$$$$$$$#..........@#$$$$$$$$$#$$$$$$$$$#..........@#$$$$$$$$$#$$$$$$$$$#.     ",
"    @#$$$$$$$$$#$$$$$$$$$#.         @#$$$$$$$$$#$$$$$$$$$#############$$$$$$$$$#$$$$$$$$$#############$$$$$$$$$#$$$$$$$$$#.     ",
"    @#$$$$$$$$$$$$$$$$$$$#.         @#$$$$$$$$$$$$$$$$$$$$$$$$$$$$$$$$$$$$$$$$$$$$$$$$$$$$$$$$$$$$$$$$$$$$$$$$$$$$$$$$$$$#.     ",
"    @#$$$$$$$$$$$$$$$$$$$#.         @#$$$$$$$$$$$$$$$$$$$$$$$$$$$$$$$$$$$$$$$$$$$$$$$$$$$$$$$$$$$$$$$$$$$$$$$$$$$$$$$$$$$#.     ",
"    @#$$$$$$$$$#$$$$$$$$$#.         @#$$$$$$$$$#$$$$$$$$$$$$$$$$$$$$$$$$$$$$$$$#$$$$$$$$$$$$$$$$$$$$$$$$$$$$$$$#$$$$$$$$$#.     ",
"    @#$$$$$$$$$#$$$$$$$$$#.         @#$$$$$$$$$#$$$$$$$$$$$$$$$$$$$$$$$$$$$$$$$#$$$$$$$$$$$$$$$$$$$$$$$$$$$$$$$#$$$$$$$$$#.     ",
"    @#$$$$$$$$$$$$$$$$$$$#.         @#$$$$$$$$$$$$$$$$$$$$####$$$$####$$$$####$$$$####$$$$####$$$$####$$$$$$$$$$$$$$$$$$$#.     ",
"    @#$$$$$$$$$$$$$$$$$$$#.         @#$$$$$$$$$$$$$$$$$$$$$$$$$$$$$$$$$$$$$$$$$$$$$$$$$$$$$$$$$$$$$$$$$$$$$$$$$$$$$$$$$$$#.     ",
"    @#$$$$$$$$$#$$$$$$$$$#.         @#$$$$$$$$$#$$$$$$$$$$$$$$$$$$$$$$$$$$$$$$$#$$$$$$$$$$$$$$$$$$$$$$$$$$$$$$$#$$$$$$$$$#.     ",
"    @#$$$$$$$$$#$$$$$$$$$#.         @#$$$$$$$$$#$$$$$$$$$$$$$$$$$$$$$$$$$$$$$$$#$$$$$$$$$$$$$$$$$$$$$$$$$$$$$$$#$$$$$$$$$#.     ",
"    @#$$$$$$$$$$$$$$$$$$$#.         @#$$$$$$$$$$$$$$$$$$$$$$$$$$$$$$$$$$$$$$$$$$$$$$$$$$$$$$$$$$$$$$$$$$$$$$$$$$$$$$$$$$$#.     ",
"    @#$$$$$$$$$$$$$$$$$$$#.         @#$$$$$$$$$$$$$$$$$$$#############$$$$$$$$$$$$$$$$$$$#############$$$$$$$$$$$$$$$$$$$#.     ",
"    @#$$$$$$$$$#$$$$$$$$$#.         @#$$$$$$$$$#$$$$$$$$$#.@@@@@@@@@@#$$$$$$$$$#$$$$$$$$$#.@@@@@@@@@@#$$$$$$$$$#$$$$$$$$$#.     ",
"    @#$$$$$$$$$#$$$$$$$$$#.         @#$$$$$$$$$#$$$$$$$$$#.         @#$$$$$$$$$#$$$$$$$$$#.         @#$$$$$$$$$#$$$$$$$$$#.     ",
"    @#$$$$$$$$$$$$$$$$$$$#.         @#$$$$$$$$$$$$$$$$$$$#.         @#$$$$$$$$$$$$$$$$$$$#.         @#$$$$$$$$$$$$$$$$$$$#.     ",
"    @#$$$$$$$$$$$$$$$$$$$#.         @#$$$$$$$$$$$$$$$$$$$#.         @#$$$$$$$$$$$$$$$$$$$#.         @#$$$$$$$$$$$$$$$$$$$#.     ",
"    @#$$$$$$$$$#$$$$$$$$$#.         @#$$$$$$$$$#$$$$$$$$$#.         @#$$$$$$$$$#$$$$$$$$$#.         @#$$$$$$$$$#$$$$$$$$$#.     ",
"    @#$$$$$$$$$#$$$$$$$$$#.         @#$$$$$$$$$#$$$$$$$$$#.         @#$$$$$$$$$#$$$$$$$$$#.         @#$$$$$$$$$#$$$$$$$$$#.     ",
"    @#$$$$$$$$$$$$$$$$$$$#.         @#$$$$$$$$$$$$$$$$$$$#.         @#$$$$$$$$$$$$$$$$$$$#.         @#$$$$$$$$$$$$$$$$$$$#.     ",
"    @#$$$$$$$$$$$$$$$$$$$#.         @#$$$$$$$$$$$$$$$$$$$#.         @#$$$$$$$$$$$$$$$$$$$#.         @#$$$$$$$$$$$$$$$$$$$#.     ",
"    @#$$$$$$$$$#$$$$$$$$$#.         @#$$$$$$$$$#$$$$$$$$$#.         @#$$$$$$$$$#$$$$$$$$$#.         @#$$$$$$$$$#$$$$$$$$$#.     ",
"    @#$$$$$$$$$#$$$$$$$$$#.         @#$$$$$$$$$#$$$$$$$$$#.         @#$$$$$$$$$#$$$$$$$$$#.         @#$$$$$$$$$#$$$$$$$$$#.     ",
"    @#$$$$$$$$$$$$$$$$$$$#.         @#$$$$$$$$$$$$$$$$$$$#.         @#$$$$$$$$$$$$$$$$$$$#.         @#$$$$$$$$$$$$$$$$$$$#.     ",
"    @#$$$$$$$$$$$$$$$$$$$#.         @#$$$$$$$$$$$$$$$$$$$#.         @#$$$$$$$$$$$$$$$$$$$#.         @#$$$$$$$$$$$$$$$$$$$#.     ",
"    @#$$$$$$$$$#$$$$$$$$$#.         @#$$$$$$$$$#$$$$$$$$$#.         @#$$$$$$$$$#$$$$$$$$$#.         @#$$$$$$$$$#$$$$$$$$$#.     ",
"    @#$$$$$$$$$#$$$$$$$$$#.         @#$$$$$$$$$#$$$$$$$$$#.         @#$$$$$$$$$#$$$$$$$$$#.         @#$$$$$$$$$#$$$$$$$$$#.     ",
"    @#$$$$$$$$$$$$$$$$$$$#.         @#$$$$$$$$$$$$$$$$$$$#.         @#$$$$$$$$$$$$$$$$$$$#.         @#$$$$$$$$$$$$$$$$$$$#.     ",
"    @#$$$$$$$$$$$$$$$$$$$#.         @#$$$$$$$$$$$$$$$$$$$#.         @#$$$$$$$$$$$$$$$$$$$#.         @#$$$$$$$$$$$$$$$$$$$#.     ",
"    @#$$$$$$$$$#$$$$$$$$$#.         @#$$$$$$$$$#$$$$$$$$$#.         @#$$$$$$$$$#$$$$$$$$$#.         @#$$$$$$$$$#$$$$$$$$$#.     ",
"    @#$$$$$$$$$#$$$$$$$$$#.         @#$$$$$$$$$#$$$$$$$$$#.         @#$$$$$$$$$#$$$$$$$$$#.         @#$$$$$$$$$#$$$$$$$$$#.     ",
"    @#$$$$$$$$$$$$$$$$$$$#.         @#$$$$$$$$$$$$$$$$$$$#..        @#$$$$$$$$$$$$$$$$$$$#.        .@#$$$$$$$$$$$$$$$$$$$#.     ",
"    @#$$$$$$$$$$$$$$$$$$$#.         @#$$$$$$$$$$$$$$$$$$$#...+.++.+.@#$$$$$$$$$$$$$$$$$$$#..+..++...@#$$$$$$$$$$$$$$$$$$$#.     ",
"    @#$$$$$$$$$#$$$$$$$$$#.         @#$$$$$$$$$$#$$$$$$$$$##........@#$$$$$$$$$#$$$$$$$$$#.........##$$$$$$$$$#$$$$$$$$$$#      ",
"    @#$$$$$$$$$#$$$$$$$$$#.          @#$$$$$$$$$$#$$$$$$$$$$##########$$$$$$$$$#$$$$$$$$$##########$$$$$$$$$$$#$$$$$$$$$#.      ",
"    @#$$$$$$$$$$$$$$$$$$$#.          @#$$$$$$$$$$$$$$$$$$$$$$$$$$$$$$$$$$$$$$$$$$$$$$$$$$$$$$$$$$$$$$$$$$$$$$$$$$$$$$$$$#       ",
"    @#$$$$$$$$$$$$$$$$$$$#.           @#$$$$$$$$$$$$$$$$$$$$$$$$$$$$$$$$$$$$$$$$$$$$$$$$$$$$$$$$$$$$$$$$$$$#$$$$$$$$$$$#.       ",
"    @#$$$$$$$$$#$$$$$$$$$#.            @#$$$$$$$$$$$#$$$$$$$$$$$$$$$$$$$$$$$$$$$$$$$$$$$$$$$$$$$$$$$$$$$$##$$$$$$$$$$$#.        ",
"    @#$$$$$$$$$#$$$$$$$$$#.             @#$$$$$$$$$$$##$$$$$$$$$$$$$$$$$$$$$$$$$$$$$$$$$$$$$$$$$$$$$$$$$$$$$$$$$$$$$$#.         ",
"    @#$$$$$$$$$$$$$$$$$$$#.              @##$$$$$$$$$$$$$$####$$$$####$$$$####$$$$####$$$$####$$$$####$$$$$$$$$$$$$##@          ",
"    @#$$$$$$$$$$$$$$$$$$$#.               @@##$$$$$$$$$$$$$$$$$$$$$$$$$$$$$$$$$$$$$$$$$$$$$$$$$$$$$$$$$$$$$$$$$$$##@@           ",
"    @#$$$$$$$$$#$$$$$$$$$#.                 @@##$$$$$$$$$$$$$$$$$$$$$$$$$$$$$$$$$$$$$$$$$$$$$$$$$$$$$$$$$$$$$$$##@@             ",
"    @#$$$$$$$$$#$$$$$$$$$#.                   @@####$$$$$$$$$$$$$$$$$$$$$$$$$$$$$$$$$$$$$$$$$$$$$$$$$$$$$$$####@@               ",
"    @#$$$$$$$$$$$$$$$$$$$#.                     @@@@#####$$$$$$$$$$$$$$$$$$$$$$$$$$$$$$$$$$$$$$$$$$$$$#####@@@@                 ",
"    @#$$$$$$$$$$$$$$$$$$$#.                         @@@@@#############################################@@@@@                     ",
"    @#$$$$$$$$$#$$$$$$$$$#.                              @@@@@@@@@@@@@@@@@@@@@@@@@@@@@@@@@@@@@@@@@@@@@                          ",
"    @#$$$$$$$$$#$$$$$$$$$#.                                                                                                     ",
"    @#$$$$$$$$$$$$$$$$$$$#.                                                                                                     ",
"    @#$$$$$$$$$$$$$$$$$$$#.                                                                                                     ",
"    @#$$$$$$$$$$$$$$$$$$$#.                                                                                                     ",
"    @#$$$$$$$$$$$$$$$$$$$#.                                                                                                     ",
"    @#$$$$$$$$$$$$$$$$$$$#.                                                                                                     ",
"    @#####################.                                                                                                     ",
"     @@@@@@@@@@@@@@@@@@@@@                                                                                                      ",
"                                                                                                                                ",
"                                                                                                                                "};
