/* XPM */
static char * mfaWheat_xpm[] = {
"96 64 9 1",
" 	c None",
".	c #663931",
"+	c #EEC39A",
"@	c #D9A066",
"#	c #DF7126",
"$	c #FBF236",
"%	c #99E550",
"&	c #6ABE30",
"*	c #8F563B",
"                                  .++++@+@@#$@@@++@#$@++@@@#.                                   ",
"                                  .++@@+@@+#$+@@+@@#$@@@@@+#.                                   ",
"...................................$@++++@@@$+@@@++@+++++++#.         ...................       ",
"@@+#$++@+@+#$@+@+@+#$+++++@@$+@+@@+#$++@+@+#$@+@+@+#$+++++@@.       ..+@+@+#$@+@+@+#$++++..     ",
"@+@@++@++++#++@++@@@$++++++@+@@@@+@@++@++++#++@++@@@$++++++@.      .@+@++++#++@++@@@$++++++.    ",
"++@#$++@++@@+++++@+@+++@+++@++@+++@#$++@++@@+++++@+@+++@+++@.     .++++@++@@+++++@+@+++@+++@.   ",
"@+@@$+++@@@@+@@++@@@$@++++@#$@+@@+@@$+++@@@@+@@++@@@$@++++@#.     .$++++@@@@+@@++@@@$@++++@#.   ",
"@@+@+++@@++@++@@+@@@$++@+@@#+++@@@+@+++@@++@++@@+@@@$++@+@@#.     .$@++@@++@++@@+@@@$++@+@@#.   ",
"@++@++++@+@#$@@+++@#$++@++@@$++@@++@++++@+@#$@@+++@#$++@++@@.     .$@+++@+@#$@@+++@#$++@++@@.   ",
"+@+#$+@@+++@+++@@++#$@@@@@+#+@+@+@+#$+@@+++@+++@@++#$@@@@@+#.     .+++@@+++@+++@@++#$@@@@@+#.   ",
"@@+@+@@++++#++@@+@@@+@@++@@@+@++@@+@+@@++++#++@@+@@@+@@++@@@.     .$@@@++++#++@@+@@@+@@++@@@.   ",
"+@+#$@@++@+@++@@@@+@$@+@@@@@+++++@+#$@@++@+@++@@@@+@$@+@@@@@.     .++@@++@+@++@@@@+@$@+@@@@@.   ",
"@++#$+@++@@@++++++@#$@@++@@#$@++@++#$+@++@@@++++++@#$@@++@@#.     .+++@++@@@++++++@#$@@++@@#.   ",
"+@@#+++++@+@$++++@@@+++@@++#+@+@+@@#+++++@+@$++++@@@+++@@++#.     .+@++++@+@$++++@@@+++@@++#.   ",
"+@@#++@@@@+@++@@@++@+@++@@+@$++++@@#++@@@@+@++@@@++@+@++@@+@.     .+@+@@@@+@++@@@++@+@++@@+@.   ",
"++@@++@++++#+@++@@+#$++@+@+@$@@+++@@++@++++#+@++@@+#$++@+@+@.     .$@+@++++#+@++@@+#$++@+@+@.   ",
"@+@@$+@++@@@$@+++@@@$@++++@#$+@@@+@@$+@++@@@$@+++@@@$@++++@#.     .$++@++@@@$@+++@@@$@++++@#.   ",
"++@#$@+@@@@#$++++++#+@+++++#$+@@++@#$@+@@@@#$++++++#+@+++++#.     .++@+@@@@#$++++++#+@+++++#.   ",
"@+@#+@@@+@+@+@@++@+#$++@++@@$@@@@+@#+@@@+@+@+@@++@+#$++@++@@.     .+@@@@+@+@+@@++@+#$++@++@@.   ",
"+@+@+@+@+@@#$@@+@++#+@+@@+@@$@@@+@+@+@+@+@@#$@@+@++#+@+@@+@@.     .$@@+@+@@#$@@+@++#+@+@@+@@.   ",
"@++@$+@+++@#$@@++++#++@+@++#++@+@++@$+@+++@#$@@++++#++@+@++#.     .$++@+++@#$@@++++#++@+@++#.   ",
"+@+@$+@++@@@++@++@@@$@@++++@$@+@+@+@$+@++@@@++@++@@@$@@++++@.     .$++@++@@@++@++@@@$@@++++@.   ",
"+@+@$+@++++@++@@+++#$+@@+@+@+@+@+@+@$+@++++@++@@+++#$+@@+@+@.     .$++@++++@++@@+++#$+@@+@+@.   ",
"+@+@$+++@@@@$+@+@++#+@@@+@+#$@@++@+@$+++@@@@$+@+@++#+@@@+@+#.     .+++++@@@@$+@+@++#+@@@+@+@.   ",
"++@++@@@++@#++@@@++#+++@+@+#+@@+++@#+@@@++@#++@@@++#+++@+@+#.     .+%+@@++@@&+@@@++@+++@+@&@.   ",
"+&@$+++@@++#$@@@+@@@+++++@+@$@@++@+@$++@@++#$@@@+@@@+++++@+@.     .+%+@%@&+@&@%@&+&@+%@+&@&@.   ",
"+&@$+++@+++#$+++@+@#$@+@+@@@$@@@+@+@$++@+++#$+++@+@#$@+@+@@@.     .+%+@%@%+@&@%@&+&@+%@+%@&@.   ",
"+&@+++@@+++#+@++@@+@$++@+@@#+@@@+@+#$+@@+++#+@++@@+@$++@+@@#.      +%+@&@&+@&@%@&+%@+%@+&@&@    ",
"+&@$++@+++@@+++@++@#+@@@@++#$@+@+++@$+@+++@@+++@++@#+@@@@++#.      *%+@%@&+@&@%@%+&@+&@+&@&*    ",
"+&@+++@@@+@@+@@@+@+@+@+@++@#+++@+@+#$+@@@+@@+@@@+@+@+@+@++@#.       **@%@&+**@&@&+&**%@+&**     ",
"**.$++++@++@+@+++@+#$@+++++@$+@+@+@@$+++@++@+@+++@+#$@+++++@.         *******************       ",
"  .$@+++++@#$+@+@++@$+@+++@#+@@@+@+@++++++@#$+@+@++@$+@+++@#.                                   ",
"  .++++@+@@#$@@@++@#$@++@@@#++@@@@+#$++@+@@#$@@@++@#$@++@@@#.                                   ",
"  .++@@+@@+#$+@@+@@#$@@@@@+#$+++++@#$@@+@@+#$+@@+@@#$@@@@@+#.                                   ",
"  .$@++++@@@$+@@@++@+++++++#$++++@@@+++++@@@$+@@@++@+++++++#....                                ",
"  .++++@+@+#$@+@+@+#$+++++@@$+@+@@+#$++@+@+#$@+@+@+#$+++++@@$+@+                                ",
"  .$@+@++++#++@++@@@$++++++@+@@@@+@@++@++++#++@++@@@$++++++@+@@@                                ",
"  .++++@++@@+++++@+@+++@+++@++@+++@#$++@++@@+++++@+@+++@+++@++@+                                ",
"  .$++++@@@@+@@++@@@$@++++@#$@+@@+@@$+++@@@@+@@++@@@$@++++@#$@+@                                ",
"  .$@++@@++@++@@+@@@$++@+@@#+++@@@+@+++@@++@++@@+@@@$++@+@@#+++@                                ",
"  .$@+++@+@#$@@+++@#$++@++@@$++@@++@++++@+@#$@@+++@#$++@++@@$++@                                ",
"  .+++@@+++@+++@@++#$@@@@@+#+@+@+@+#$+@@+++@+++@@++#$@@@@@+#+@+@                                ",
"  .$@@@++++#++@@+@@@+@@++@@@+@++@@+@+@@++++#++@@+@@@+@@++@@@+@++                                ",
"  .++@@++@+@++@@@@+@$@+@@@@@+++++@+#$@@++@+@++@@@@+@$@+@@@@@++++                                ",
"  .+++@++@@@++++++@#$@@++@@#$@++@++#$+@++@@@++++++@#$@@++@@#$@++                                ",
"  .+@++++@+@$++++@@@+++@@++#+@+@+@@#+++++@+@$++++@@@+++@@++#+@+@                                ",
"  .+@+@@@@+@++@@@++@+@++@@+@$++++@@#++@@@@+@++@@@++@+@++@@+@$+++                                ",
"  .$@+@++++#+@++@@+#$++@+@+@$@@+++@@++@++++#+@++@@+#$++@+@+@$@@+                                ",
"  .$++@++@@@$@+++@@@$@++++@#$+@@@+@@$+@++@@@$@+++@@@$@++++@#$+@@                                ",
"  .++@+@@@@#$++++++#+@+++++#$+@@++@#$@+@@@@#$++++++#+@+++++#$+@@                                ",
"  .+@@@@+@+@+@@++@+#$++@++@@$@@@@+@#+@@@+@+@+@@++@+#$++@++@@$@@@                                ",
"  .$@@+@+@@#$@@+@++#+@+@@+@@$@@@+@+@+@+@+@@#$@@+@++#+@+@@+@@$@@@                                ",
"  .$++@+++@#$@@++++#++@+@++#++@+@++@$+@+++@#$@@++++#++@+@++#++@+                                ",
"  .$++@++@@@++@++@@@$@@++++@$@+@+@+@$+@++@@@++@++@@@$@@++++@$@+@                                ",
"  .$++@++++@++@@+++#$+@@+@+@+@+@+@+@$+@++++@++@@+++#$+@@+@+@+@+@                                ",
"  .$++++@@@@$+@+@++#+@@@+@+#$@@++@+@$+++@@@@$+@+@++#+@@@+@+#$@@+                                ",
"  .+@@@@++@#++@@@++#+++@+@+#+@@+++@+&@@@++@@&+@@@++@+++@+@+@+@@+                                ",
"  .$+++@@++#$@@@+@@@+++++@+@@+%@+&@+&+@%@&+@&@%@&+&@+%@+&@&@++%@                                ",
"  .$+++@+++#$+++@+@#$@+@+@@@#+%@+&@+&+@%@%+@&@%@&+&@+%@+%@&@++%@                                ",
"  .+++@@+++#+@++@@+@$++@+@@##+&@+&@+&+@&@&+@&@%@&+%@+%@+&@&@++&@                                ",
"  .$++@+++@@+++@++@#+@@@@++#@+%@+&@@&+@%@&+@&@%@%+&@+&@+&@%@++%@                                ",
"  .+++@@@+@@+@@@+@+@+@+@++@##+%@+&@**@@%@&+**@&@&+&**%@+&@&**+%@                                ",
"  .$++++@++@+@+++@+#$@+++++@.***********************************                                ",
"  .$@+++++@#$+@+@++@$+@+++@#.                                                                   "};
