/* XPM */
static char *_651347515687[] = {
/* columns rows colors chars-per-pixel */
"60 54 110 2 ",
"   c #000000",
".  c #0C0C02",
"X  c gray6",
"o  c #111203",
"O  c #1B1B03",
"+  c #151515",
"@  c #1B1B1B",
"#  c #2A2A05",
"$  c #232304",
"%  c #313105",
"&  c #3C3C06",
"*  c #343608",
"=  c #363809",
"-  c #242424",
";  c #2B2B2B",
":  c #343434",
">  c #3C3C3C",
",  c #413F09",
"<  c #454507",
"1  c #494907",
"2  c #43440B",
"3  c #46490B",
"4  c #4C4F0C",
"5  c #4F520D",
"6  c #535309",
"7  c #56590E",
"8  c #5B5B0B",
"9  c #5F6310",
"0  c #64640A",
"q  c #6F6F0B",
"w  c #76760C",
"e  c #7A7A0C",
"r  c #616510",
"t  c #666A11",
"y  c #757210",
"u  c #797611",
"i  c #767A13",
"p  c #797C14",
"a  c #43433E",
"s  c gray26",
"d  c #4A4A4A",
"f  c #515151",
"g  c #5D5D5D",
"h  c #646464",
"j  c #6B6B6B",
"k  c #7E7E7E",
"l  c #7D8215",
"z  c #86860D",
"x  c #8A8A0E",
"c  c #90900E",
"v  c #9A9A0F",
"b  c #838414",
"n  c #848916",
"m  c #8B8E14",
"M  c #8D9317",
"N  c #959714",
"B  c #9D9D10",
"V  c #929718",
"C  c #939818",
"Z  c #9B9D18",
"A  c #9EA31A",
"S  c #A0A010",
"D  c #A9AB14",
"F  c #A1A51A",
"G  c #A6AC1B",
"H  c #A9AF1B",
"J  c #ADB017",
"K  c #AEB41C",
"L  c #B1B417",
"P  c #B2B71B",
"I  c #B4B91C",
"U  c #B8BF1E",
"Y  c #BDC31E",
"T  c #C1C71F",
"R  c #C5CB1E",
"E  c #C9CF1F",
"W  c #CAD01F",
"Q  c #C3CA20",
"!  c #CDD421",
"~  c #D0D721",
"^  c #D6DE23",
"/  c #D7DF2E",
"(  c #DAE157",
")  c #DCE35D",
"_  c #DFE675",
"`  c #838383",
"'  c #8E8E8E",
"]  c #939393",
"[  c #9D9D9D",
"{  c #B0B383",
"}  c #A2A2A2",
"|  c #A9A9A9",
" . c #B4B4B4",
".. c #BCBCBC",
"X. c #E2E787",
"o. c #E7EBA1",
"O. c #ECEFB5",
"+. c #C3C3C3",
"@. c #CBCBCB",
"#. c #D4D4D4",
"$. c #DCDCDC",
"%. c #F0F3C7",
"&. c #F1F3CA",
"*. c #E4E4E4",
"=. c #ECECEC",
"-. c #F7F9E2",
";. c #F4F4F4",
":. c #FBFCF1",
">. c #FFFFFF",
",. c None",
/* pixels */
",.,.,.,.,.,.,.,.,.,.,.,.,.,.,.,.,.,.,.,.,.,.,.,.,.,.,.,.,.,.,.,.,.,.,.,.,.,.,.,.,.,.,.,.,.,.,.,.,.,.,.,.,.,.,.,.,.,.,.,.",
",.,.,.,.,.,.,.,.,.,.,.,.,.,.,.,.,.,.,.,.,.,.,.,.,.,.,.,.,.,.,.,.,.,.,.,.,.,.,.,.,.,.,.,.,.,.,.,.,.,.,.,.,.,.,.,.,.,.,.,.",
",.,.,.,.,.,.,.,.,.,.,.,.,.,.,.,.,.                                                  ,.,.,.,.,.,.,.,.,.,.,.,.,.,.,.,.,.,.",
",.,.,.,.,.,.,.,.,.,.,.,.,.,.                                                              ,.,.,.,.,.,.,.,.,.,.,.,.,.,.,.",
",.,.,.,.  ,.,.,.,.,.,.,.,.                                                                    ,.,.,.,.,.,.,.,.  ,.,.,.,.",
",.,.,.    ,.,.,.,.,.,.              g k k ` ` k k k ` k k ` k k ` k k k k k ` k k :             ,.,.,.,.,.,.,.    ,.,.,.",
",.,.  g   ,.,.,.,.,.          ` ;.>.>.>.>.>.>.>.>.>.>.>.>.>.>.>.>.>.>.>.>.>.>.>.>.>.>.$.s         ,.,.,.,.,.,.  -   ,.,.",
",.,.  [   ,.,.,.,.,.      . =.>.>.>.>.>.>.>.>.>.>.>.>.>.>.>.>.>.>.>.>.>.>.>.>.>.>.>.>.>.>.[         ,.,.,.,.,.  '   ,.,.",
",.  ] d     ,.,.,.        ;.>.:.X.^ ^ ^ ^ ^ ^ ^ ^ ^ ^ ^ ^ ^ ^ ^ ^ ^ ^ ^ ^ ^ ^ ^ ^ ^ / O.>.>. .        ,.,.,.  s '     ,.",
",.  =.      ,.,.,.      $.>.o.^ ^ ^ ^ ^ ^ ^ ^ ^ ^ ^ ^ ^ ^ ^ ^ ^ ^ ^ ^ ^ ^ ^ ^ ^ ^ ^ ^ ^ ^ -.>.j       ,.,.,.  @.'     ,.",
",.  >.        ,.      g >.) ^ ^ ^ ^ ^ ^ ^ ^ ^ ^ ^ ^ ^ ^ ^ ^ ^ ^ ^ ^ ^ ^ ^ ^ ^ ^ ^ ^ ^ ^ ^ ^ &.:.      ,.,.  . >.;     ,.",
",.@ >.                $.( ^ ^ ^ ^ ^ ^ ^ ^ ^ ^ ^ ^ ^ ^ ^ ^ ^ ^ ^ ^ ^ ^ ^ ^ ^ ^ ^ ^ ^ ^ ^ ^ ^ ^ &.h           #.>.      ,.",
",.> >.                _ ^ ^ ^ ^ ^ ^ ^ ^ ^ ^ ^ ^ ^ ^ ^ ^ ^ ^ ^ ^ ^ ^ ^ ^ ^ ^ ^ K K ^ ^ ^ ^ ^ ^ ^ {         ` >.$.      ,.",
",.; >.                ^ ^ ^ r G ^ ^ ^ ^ ^ ^ ^ ^ ^ ^ ^ ^ ^ ^ ^ ^ ^ ^ ^ ^ ! p       ! ^ ^ ^ ^ ^ ^ Y       f >.>.f       ,.",
",.  >.                ^ ^ n       m ^ ^ ^ ^ ^ ^ ^ ^ ^ ^ ^ ^ ^ ^ ^ ^ I 3           P ^ ^ ^ ^ ^ ^ T       >.>.@.        ,.",
",.  ;.              5 ^ ^ 2           t Q ^ ^ ^ ^ ^ ^ ^ ^ ^ ^ ^ M               C ^ ^ ^ ^ ^ ^ ^ ^       >.#.          ,.",
",.  ` k             i ^ ^ ^ C             = K ^ ^ ^ ^ ^ ^ Q 7             5 Y ^ ^ ^ ^ ^ ^ ^ ^ ^ ^       '             ,.",
",.,.   .            b ^ ^ ^ ^ ^ I =             Q ^ ^ ! o             n ! ^ ^ ^ ^ ^ ^ ^ ^ ^ ^ ^ ^                   ,.,.",
",.,.  ;             U ^ ^ ^ ^ ^ ^ ^ Q r         F ^ ^ F         * K ^ ^ ^ ^ ^ ^ ^ ^ ^ ^ ^ ^ ^ ^ ^ .                 ,.,.",
",.,.,.              Y ^ ^ ^ ^ ^ ^ ^ ^ ^ ~ m     ^ ^ ^ ^     i I m i n Q ^ ^ ^ ^ ^ ^ ^ ^ ^ ^ ^ ^ ^ t               ,.,.,.",
",.,.,.,.            ^ ^ ^ ^ ^ ~ H #     9 Y ^ ^ ^ ^ ^ ^ ^ ! 2           # J ^ ^ ^ ^ ^ ^ ^ ^ ^ ^ ^ i             ,.,.,.,.",
",.,.,.,.,.          ^ ^ ^ ^ ^ 9 :  .#.]     z ~ ^ ^ ^ ^ !   h *.>.>.$.d     v ~ ^ ^ ^ ^ ^ ^ ^ ^ ^ A           ,.,.,.,.,.",
",.,.,.,.,.,.,.      ^ ^ ^ ^ V ] >.>.>.>.;.>   v ^ ^ ^ ^ , [ >.>.>.>.>.>.]   $ S ^ ^ ^ ^ ^ ^ ^ ^ ^ Y       ,.,.,.,.,.,.,.",
",.,.,.,.,.,.        ^ ^ ^ ^ - >.>.>.>.>.>.;.  7 D ^ ^ Q d >.>.>.>.>.>.>.>.+   x P ^ ^ ^ ^ ^ ^ ^ ^ Y       ,.,.,.,.,.,.,.",
",.,.,.,.,.,.      * ^ ^ ^ ~ } >.k @ $.>.>.>.X   A ^ ^ b #.>.*.' #.>.>.>.>.|   8 S ^ ^ ^ ^ ^ ^ ^ ^ ^       ,.,.,.,.,.,.,.",
",.,.,.,.,.,.      , p ^ ^ ~ @.$.  ] >.>.>.>.:   S W ^ p >.=.    j >.>.>.>.$.  8 S ! ^ ^ ^ T F ^ ^ ^       ,.,.,.,.,.,.,.",
",.,.,.,.,.,.      3 y ^ ^ ^ ' *.    h >.>.>.  1 S W ^ l =.+.  : *.>.>.>.>.$.  8 S R ^ ^ ^ y y Q ^ ^       ,.,.,.,.,.,.,.",
",.,.,.,.,.,.      8 u ^ ^ ^ 6 ;.#.| >.>.>.@.  c S ^ ^ Y ..;.      *.>.>.>.'   z S E ^ ^ ^ y y T ^ ^ o       ,.,.,.,.,.,.",
",.,.,.,.,.,.      G ~ b y Y T a ;.>.>.>.@.  0 S J ^ ^ ^ o >.;.| *.>.>.>.;.    S S ^ ^ ^ ^ n y ^ ^ ^ 7       ,.,.,.,.,.,.",
",.,.,.,.,.,.      ! Q y y w ^ S 4 @ d     e S S ^ ^ ^ ^ N d ;.>.>.>.>.;.:   x S D ^ Z u ~ ^ ^ ^ ^ ^ p       ,.,.,.,.,.,.",
",.,.,.,.,.,.      ^ Q y y y ^ ^ D S v B S S S ~ ^ ^ ^ ^ ~ x   ] $.#.`     x S S ~ R y y b ^ ^ ^ ^ ^ C       ,.,.,.,.,.,.",
",.,.,.,.,.,.      ^ ~ y y N ^ ^ ^ ~ P L P W ^ ^ ^ ^ ^ ^ ^ W S e 1 O 1 e S S S R ^ U y y y ^ ^ ^ ^ ^ U       ,.,.,.,.,.,.",
",.,.,.,.,.        ^ ^ ! Y ^ ^ ^ ^ ^ ^ ^ ^ ^ ^ ^ ^ ^ ^ ^ ^ ^ ! S S S S S S S ~ ^ ^ ! y y m ^ ^ ^ ^ ^ T       ,.,.,.,.,.,.",
",.,.,.,.,.      * ^ ^ ^ ^ ^ ^ ^ ^ ^ ^ ^ ^ ^ ^ ^ ^ ^ ^ ^ ^ ^ ^ ^ ~ T P Y ~ ^ ^ ^ ^ ^ I Z ^ ^ ^ ^ ^ ^ ^       ,.,.,.,.,.,.",
",.,.,.,.,.      p ^ ^ ^ ^ ^ ^ ^ ^ F 3                             7 P ^ ^ ^ ^ ^ ^ ^ ^ ^ ^ ^ ^ ^ ^ ^ ^       ,.,.,.,.,.,.",
",.,.,.,.,.      l ^ ^ ^ ^ ^ ^ ^ 3     $.$.$.+.            $.$.$.$.    p ^ ^ ^ ^ ^ ^ ^ ^ ^ ^ ^ ^ ^ ^ ^       ,.,.,.,.,.,.",
",.,.,.,.,.      m ^ ^ ^ ^ ^ ^ M       >.>.>.$.            ;.>.>.>.      K ^ ^ ^ ^ ^ ^ ^ ^ ^ ^ ^ ^ ^ W         ,.,.,.,.,.",
",.,.,.,.,.      x D ^ ^ ^ ^ ^         k +. .+             f ..+.g       * ^ ^ ^ ^ ^ ^ ^ ^ ^ ^ ^ ^ ~ S 1       ,.,.,.,.,.",
",.,.,.,.,.      c S S ^ ^ ^ !                                             ^ ^ ^ ^ ^ ^ ^ ^ ^ ^ ^ T S S 8       ,.,.,.,.,.",
",.,.,.,.,.      x S S S P ~ Q                                             ^ ^ ^ ^ ^ ^ ^ ^ ^ R D S S S %       ,.,.,.,.,.",
",.,.,.,.,.      8 S S S S S v                                             L L L L L L L S S S S S S S       ,.,.,.,.,.,.",
",.,.,.,.,.        S S S S S S O       ' '     ' '     ' '   + ' '       1 S S S S S S S S S S S S S x       ,.,.,.,.,.,.",
",.,.,.,.,.,.      e S S S S S x     +.>.>...@.>.>.] $.>.>.' $.>.>.'     v B S S S S S S S S S S B S #       ,.,.,.,.,.,.",
",.,.,.,.,.,.        v S S S S S w   k ' ' j k ' ' g k ' ] f k ' ] d   z S S S S S S S S S S S S S 0       ,.,.,.,.,.,.,.",
",.,.,.,.,.,.,.      . v S S S S S B z w w w w w w e w w w w w w w x S S S S S S S S S S S S S S q         ,.,.,.,.,.,.,.",
",.,.,.,.,.,.,.          w S S S S S S S S S S S S v S S S S S S S S S S S S S S S S B S S S v <         ,.,.,.,.,.,.,.,.",
",.,.,.,.,.,.,.,.            8 z x x x x x x x x x x x x x x x x x x x x x x x x x x x x w &           ,.,.,.,.,.,.,.,.,.",
",.,.,.,.,.,.,.,.,.                                                                                  ,.,.,.,.,.,.,.,.,.,.",
",.,.,.,.,.,.,.,.,.,.,.                                                                            ,.,.,.,.,.,.,.,.,.,.,.",
",.,.,.,.,.,.,.,.,.,.,.,.,.                                                                  ,.,.,.,.,.,.,.,.,.,.,.,.,.,.",
",.,.,.,.,.,.,.,.,.,.,.,.,.,.,.,.,.              ,.,.,.,.,.,.,.,.,.,.,.,.              ,.,.,.,.,.,.,.,.,.,.,.,.,.,.,.,.,.",
",.,.,.,.,.,.,.,.,.,.,.,.,.,.,.,.,.,.            ,.,.,.,.,.,.,.,.,.,.,.,.,.          ,.,.,.,.,.,.,.,.,.,.,.,.,.,.,.,.,.,.",
",.,.,.,.,.,.,.,.,.,.,.,.,.,.,.,.,.,.          ,.,.,.,.,.,.,.,.,.,.,.,.,.,.          ,.,.,.,.,.,.,.,.,.,.,.,.,.,.,.,.,.,.",
",.,.,.,.,.,.,.,.,.,.,.,.,.,.,.,.,.,.,.      ,.,.,.,.,.,.,.,.,.,.,.,.,.,.,.,.      ,.,.,.,.,.,.,.,.,.,.,.,.,.,.,.,.,.,.,."
};
