/* XPM */
static char *_651347497841[] = {
/* columns rows colors chars-per-pixel */
"60 54 112 2 ",
"   c #000000",
".  c #0A0A02",
"X  c #0C0C0C",
"o  c #121202",
"O  c #1A1B04",
"+  c #131313",
"@  c #1E1E1E",
"#  c #222306",
"$  c #262806",
"%  c #2C2D06",
"&  c #323205",
"*  c #3F3F06",
"=  c #313308",
"-  c #373909",
";  c #3E3C08",
":  c #363612",
">  c #232323",
",  c #2C2C2C",
"<  c #343434",
"1  c #3C3C3C",
"2  c #3F420A",
"3  c #444407",
"4  c #4A4A07",
"5  c #43450B",
"6  c #47490B",
"7  c #4F4F08",
"8  c #51530B",
"9  c #565A0E",
"0  c #59590A",
"q  c #61610A",
"w  c #6A6A0B",
"e  c #71710B",
"r  c #7E7E0D",
"t  c #606410",
"y  c #676B11",
"u  c #6C7012",
"i  c #757210",
"p  c #797611",
"a  c #777B13",
"s  c #797D14",
"d  c #414141",
"f  c #4B4B4B",
"g  c #555555",
"h  c #5C5C5C",
"j  c #636363",
"k  c #6D6D6D",
"l  c #727272",
"z  c #7C7C7C",
"x  c #807F12",
"c  c #7C8114",
"v  c #85850D",
"b  c #8B8B0E",
"n  c #94940F",
"m  c #9A9A0F",
"M  c #838314",
"N  c #868B16",
"B  c #898E16",
"V  c #8E9116",
"C  c #949516",
"Z  c #9D9D10",
"A  c #929718",
"S  c #939818",
"D  c #9B9F19",
"F  c #9DA31A",
"G  c #A0A010",
"H  c #A7A813",
"J  c #ABAD15",
"K  c #A3A619",
"L  c #A7AE1B",
"P  c #ADB31B",
"I  c #B2B517",
"U  c #B2B71A",
"Y  c #B4BA1C",
"T  c #B9BF1E",
"R  c #BCC21D",
"E  c #C1C71F",
"W  c #C5CB1E",
"Q  c #C9CF1F",
"!  c #C4CB20",
"~  c #C9CF20",
"^  c #CCD421",
"/  c #D0D721",
"(  c #D6DE23",
")  c #D8E034",
"_  c #D9E03A",
"`  c #DBE250",
"'  c #DDE367",
"]  c #868686",
"[  c #8D8D8D",
"{  c #939393",
"}  c #9B9B9B",
"|  c #A0A194",
" . c #A4A4A4",
".. c #ABABAB",
"X. c #B6B6B6",
"o. c gray74",
"O. c #E0E681",
"+. c #E3E890",
"@. c #E6EB9D",
"#. c #E9EDA8",
"$. c #C4C4C4",
"%. c #CBCBCB",
"&. c #D4D4D4",
"*. c #DCDCDC",
"=. c #F2F4CE",
"-. c #F5F6D9",
";. c gray90",
":. c #EAEAEA",
">. c #FAFBEC",
",. c #F4F4F4",
"<. c #FFFFFF",
"1. c None",
/* pixels */
"1.1.1.1.1.1.1.1.1.1.1.1.1.1.1.1.1.1.1.1.1.1.1.1.1.1.1.1.1.1.1.1.1.1.1.1.1.1.1.1.1.1.1.1.1.1.1.1.1.1.1.1.1.1.1.1.1.1.1.1.",
"1.1.1.1.1.1.1.1.1.1.1.1.1.1.1.                                                            1.1.1.1.1.1.1.1.1.1.1.1.1.1.1.",
"1.1.1.1.  1.1.1.1.1.1.1.1.                                                                    1.1.1.1.1.1.1.1.1.1.1.1.1.",
"1.1.1.    1.1.1.1.1.1.1.                                                                        1.1.1.1.1.1.1.    1.1.1.",
"1.1.1.<   1.1.1.1.1.1.        , %.<.<.<.<.<.<.<.<.<.<.<.<.<.<.<.<.<.<.<.<.<.<.<.<.<.:.{           1.1.1.1.1.1.      1.1.",
"1.1.  ..  1.1.1.1.1.        X.<.<.<.<.<.<.<.<.<.<.<.<.<.<.<.<.<.<.<.<.<.<.<.<.<.<.<.<.<.<.h         1.1.1.1.1.  [   1.1.",
"1.  l k     1.1.1.        &.<.<.=.' ` ) ) ) ) ) ) ) ) ) ) ) ) ) ) ) ) ) ) ) ) ) ) ` +.>.<.<.[       1.1.1.1.1.X {     1.",
"1.  *.      1.1.1.      o.<.-.( ( ( ( ( ( ( ( ( ( ( ( ( ( ( ( ( ( ( ( ( ( ( ( ( ( ( ( ( ' ,.<.1       1.1.1.  ..[     1.",
"1.  <.        1.      < <.#.( ( ( ( ( ( ( ( ( ( ( ( ( ( ( ( ( ( ( ( ( ( ( ( ( ( ( ( ( ( ( ( >.:.      1.1.    <.<     1.",
"1.X <.        1.      %.@.( ( ( ( ( ( ( ( ( ( ( ( ( ( ( ( ( ( ( ( ( ( ( ( ( ( ( ( ( ( ( ( ( ( >.1       1.  $.<.      1.",
"1.1 <.                #.( ( T ( ( ( ( ( ( ( ( ( ( ( ( ( ( ( ( ( ( ( ( ( ( ! y     ( ( ( ( ( ( ( |         k <.*.      1.",
"1.< <.                ( ( L     u ^ ( ( ( ( ( ( ( ( ( ( ( ( ( ( ( ( ( L $         Y ( ( ( ( ( ( R       g <.<.f       1.",
"1.  <.                ( ( -         5 T ( ( ( ( ( ( ( ( ( ( ( ( ^ s             % ^ ( ( ( ( ( ( R       <.<.X.        1.",
"1.  <.              = ( ( Y $           o F ( ( ( ( ( ( ( ( Y 5             y ! ( ( ( ( ( ( ( ( (       <.$.          1.",
"1.  ..j             i ( ( ( ( E 9             s ( ( ( ( A             . S ( ( ( ( ( ( ( ( ( ( ( (       k             1.",
"1.1.  ..            s ( ( ( ( ( ( ^ c           B ( ( F           9 T ( ( ( ( ( ( ( ( ( ( ( ( ( (                   1.1.",
"1.1.  <             Y ( ( ( ( ( ( ( ( ( F       ^ ( ( ^       N ( ( ( ( ( ( ( ( ( ( ( ( ( ( ( ( (                   1.1.",
"1.1.1.              T ( ( ( ( ( ( ( ( ( ( ( R P ( ( ( ( P P ( ( T R T ( ( ( ( ( ( ( ( ( ( ( ( ( ( 9               1.1.1.",
"1.1.1.1.            ^ ( ( ( ( ( ~ c 9 i K / ( ( ( ( ( ( ( ( B           y W ( ( ( ( ( ( ( ( ( ( ( a             1.1.1.1.",
"1.1.1.1.1.          ( ( ( ( ( S   l { <     H ( ( ( ( ( ( 2   ..*.*.{     % H ( ( ( ( ( ( ( ( ( ( N           1.1.1.1.1.",
"1.1.1.1.1.1.        ( ( ( ( P f ,.<.<.<.*.    K ( ( ( ( y h <.<.<.<.<.<.f   * H ( ( ( ( ( ( ( ( ( R         1.1.1.1.1.1.",
"1.1.1.1.1.1.1.      ( ( ( ( . <.<.<.<.<.<.*.  w U ( ( ^ + <.<.<.<.<.<.<.<.    C R ( ( ( ( ( ( ( ( R       1.1.1.1.1.1.1.",
"1.1.1.1.1.1.      % ( ( ( ( { <.$.{ ,.<.<.<.. o G ( ( S $.<.<.*.,.<.<.<.<.{   q G ( ( ( ( ( ( ( ( (       1.1.1.1.1.1.1.",
"1.1.1.1.1.1.      ; C ( ( ! %.*.  f ,.<.<.<.<   G / ( s :.<.    > <.<.<.<.*.  0 G / ( ( ( / E ( ( (       1.1.1.1.1.1.1.",
"1.1.1.1.1.1.      5 i ( ( ( } *.  X } <.<.<.. & G ^ ( s ,.$.  @ <.<.<.<.<.*.  0 G Q ( ( ( i i ^ ( (       1.1.1.1.1.1.1.",
"1.1.1.1.1.1.      0 i ( ( ( - <.} h ,.<.<.:.  x G ( ( U &.;.      %.<.<.<. .  r G ~ ( ( ( i i ! ( ( .       1.1.1.1.1.1.",
"1.1.1.1.1.1.      M R K x / P l <.<.<.<.,.+ & G H ( ( ( d <.$.h ..<.<.<.<..   Z G ( ( ( ( p i / ( ( 6       1.1.1.1.1.1.",
"1.1.1.1.1.1.      ~ ~ i i x ( C O { } z   4 G G ^ ( ( ( r } <.<.<.<.<.<.j   e Z G ( T D ( ( ^ ( ( ( a       1.1.1.1.1.1.",
"1.1.1.1.1.1.      ( ! i i e ( ( m n v b G G G W ( ( ( ( Q w f *.<.<.%.<   q G G Q ~ i i V ( ( ( ( ( B       1.1.1.1.1.1.",
"1.1.1.1.1.1.      ( ^ i i M ( ( ( R G G G I ( ( ( ( ( ( ( U n 7       4 n G G I ( T i i i ( ( ( ( ( Y       1.1.1.1.1.1.",
"1.1.1.1.1.1.      ( ( Y C ( ( ( ( ( ( ( ( ( ( ( ( ( ( ( ( ( T G G G G G G G E ( ( W i i M ( ( ( ( ( R       1.1.1.1.1.1.",
"1.1.1.1.1.      O ( ( ( ( ( ( ( ( ( ( ( ( ( ( ( ( ( ( ( ( ( ( ( E J G J E ( ( ( ( ( C i ^ ( ( ( ( ( /       1.1.1.1.1.1.",
"1.1.1.1.1.      a ( ( ( ( ( ( ( ( ( ( ( ( ( ( ( ( ( ( ( ( ( ( ( ( ( ( ( ( ( ( ( ( ( ( ( ( ( ( ( ( ( (       1.1.1.1.1.1.",
"1.1.1.1.1.      s ( ( ( ( ( ( ( ( F 9 # # # # # # # # # # # # # # t P ( ( ( ( ( ( ( ( ( ( ( ( ( ( ( (       1.1.1.1.1.1.",
"1.1.1.1.1.      V ( ( ( ( ( ( ( %     %.%.%...            %.%.%.%.    5 ( ( ( ( ( ( ( ( ( ( ( ( ( ( (         1.1.1.1.1.",
"1.1.1.1.1.      B U ( ( ( ( ( 9       <.<.<.*.            <.<.<.<.      B ( ( ( ( ( ( ( ( ( ( ( ( ( H &       1.1.1.1.1.",
"1.1.1.1.1.      b G I ( ( ( (          .*.*.f             h *.*.]         ( ( ( ( ( ( ( ( ( ( ( / G G 0       1.1.1.1.1.",
"1.1.1.1.1.      b G G G W ( !                                             ( ( ( ( ( ( ( ( ( ( Y G G G 4       1.1.1.1.1.",
"1.1.1.1.1.      w G G G G G H                                             Q W Q W W W W I H G G G G G         1.1.1.1.1.",
"1.1.1.1.1.      O G G G G G Z &     [ <.<.[ } <.<.z X.<.<.l $.<.<.j     8 G G m G G G G G G G G G G n       1.1.1.1.1.1.",
"1.1.1.1.1.1.      b G G G G G m     o.*.*...o.*.*.] o.*.*.z o.*.*.z   # G G G Z G G G G G G G G G G 3       1.1.1.1.1.1.",
"1.1.1.1.1.1.      o G G G G G G Z 0                                 w G G G G G G G G G G G G G G v       1.1.1.1.1.1.1.",
"1.1.1.1.1.1.1.      & G G G G G G G G G G G G G G G G G G G G G G G G G G G G G G m G G G G G G b         1.1.1.1.1.1.1.",
"1.1.1.1.1.1.1.        # n G G G G Z G G G G G G G G G G G G G G G G G G G G G G G G G G G G G e         1.1.1.1.1.1.1.1.",
"1.1.1.1.1.1.1.1.          3 v Z G G G G G G G G G G G G G G G G G G G G G G G G G G G G n w .         1.1.1.1.1.1.1.1.1.",
"1.1.1.1.1.1.1.1.1.                                                                                  1.1.1.1.1.1.1.1.1.1.",
"1.1.1.1.1.1.1.1.1.1.1.                                                                            1.1.1.1.1.1.1.1.1.1.1.",
"1.1.1.1.1.1.1.1.1.1.1.1.1.                                                                    1.1.1.1.1.1.1.1.1.1.1.1.1.",
"1.1.1.1.1.1.1.1.1.1.1.1.1.1.1.1.1.              1.1.1.1.1.1.1.1.1.1.1.1.              1.1.1.1.1.1.1.1.1.1.1.1.1.1.1.1.1.",
"1.1.1.1.1.1.1.1.1.1.1.1.1.1.1.1.1.              1.1.1.1.1.1.1.1.1.1.1.1.              1.1.1.1.1.1.1.1.1.1.1.1.1.1.1.1.1.",
"1.1.1.1.1.1.1.1.1.1.1.1.1.1.1.1.1.              1.1.1.1.1.1.1.1.1.1.1.1.              1.1.1.1.1.1.1.1.1.1.1.1.1.1.1.1.1.",
"1.1.1.1.1.1.1.1.1.1.1.1.1.1.1.1.1.1.            1.1.1.1.1.1.1.1.1.1.1.1.1.          1.1.1.1.1.1.1.1.1.1.1.1.1.1.1.1.1.1.",
"1.1.1.1.1.1.1.1.1.1.1.1.1.1.1.1.1.1.          1.1.1.1.1.1.1.1.1.1.1.1.1.1.          1.1.1.1.1.1.1.1.1.1.1.1.1.1.1.1.1.1.",
"1.1.1.1.1.1.1.1.1.1.1.1.1.1.1.1.1.1.1.      1.1.1.1.1.1.1.1.1.1.1.1.1.1.1.1.      1.1.1.1.1.1.1.1.1.1.1.1.1.1.1.1.1.1.1."
};
