/* XPM */
static char *_651347291301[] = {
/* columns rows colors chars-per-pixel */
"59 60 104 2 ",
"   c #000000",
".  c #0B0B02",
"X  c #0C0C0C",
"o  c #121203",
"O  c #1B1C05",
"+  c #111111",
"@  c #2A2B07",
"#  c #2E3007",
"$  c #323205",
"%  c #323408",
"&  c #3B3D0A",
"*  c #222222",
"=  c #282828",
"-  c gray20",
";  c #3A3A3A",
":  c #3F410A",
">  c #434307",
",  c #41440B",
"<  c #47490C",
"1  c #494B0B",
"2  c #53540B",
"3  c #575A0E",
"4  c #5B5E0F",
"5  c #64630C",
"6  c #6C6C0B",
"7  c #74740C",
"8  c #78780C",
"9  c #666A11",
"0  c #696D11",
"q  c #6D7112",
"w  c #757210",
"e  c #7A7711",
"r  c #777B13",
"t  c #7A7C13",
"y  c gray25",
"u  c #4B4B4B",
"i  c gray32",
"p  c #5D5D5D",
"a  c gray38",
"s  c DimGray",
"d  c #747474",
"f  c #7B7B7B",
"g  c #7D8214",
"h  c #87870D",
"j  c #8C8C0E",
"k  c #9A9A0F",
"l  c #828715",
"z  c #858A16",
"x  c #898C16",
"c  c #8E9217",
"v  c #969717",
"b  c #9D9D11",
"n  c #929718",
"m  c #949A18",
"M  c #9D9F18",
"N  c #9FA51A",
"B  c #A0A010",
"V  c #ACAE15",
"C  c #A3A619",
"Z  c #A5AA1A",
"A  c #A8AE1B",
"S  c #AEB116",
"D  c #ACB21C",
"F  c #B0B317",
"G  c #B0B71D",
"H  c #B4BB1D",
"J  c #B8BF1E",
"K  c #BCC31F",
"L  c #C0C71F",
"P  c #C5CB1E",
"I  c #CAD01F",
"U  c #C4CC20",
"Y  c #C9CF21",
"T  c #CDD521",
"R  c #D0D722",
"E  c #D6DE23",
"W  c #D7DF33",
"Q  c #D8DF39",
"!  c #D8E040",
"~  c #DAE14F",
"^  c #DAE154",
"/  c #DDE468",
"(  c #1E5994",
")  c #1F5C99",
"_  c #2D85DE",
"`  c #3297FC",
"'  c #3399FF",
"]  c #858585",
"[  c #8F8F8F",
"{  c #9A9A9A",
"}  c #A4A4A4",
"|  c gray68",
" . c gray70",
".. c #CBCBCB",
"X. c #D5D5D5",
"o. c #DBDBDB",
"O. c #F0F3C8",
"+. c #F6F7DE",
"@. c #E3E3E1",
"#. c #EAEAEA",
"$. c #F4F4F4",
"%. c #FBFBF4",
"&. c #FFFFFF",
"*. c None",
/* pixels */
"*.*.*.*.*.*.*.*.*.*.*.*.*.*.*.*.*.*.*.*.*.*.*.*.*.*.*.*.*.*.*.*.*.*.*.*.*.*.*.*.*.*.*.*.*.*.*.*.*.*.*.*.*.*.*.*.*.*.*.",
"*.*.*.*.*.*.*.*.*.*.*.*.*.*.*.*.*.*.*.*.*.*.*.*.*.*.*.*.*.*.*.*.*.*.*.*.*.*.*.*.*.*.*.*.*.*.*.*.*.*.*.*.*.*.*.*.*.*.*.",
"*.*.*.*.*.*.*.*.*.*.*.*.*.*.*.*.*.*.*.*.*.*.*.*.*.*.*.*.*.*.*.*.*.*.*.*.*.*.*.*.*.*.*.*.*.*.*.*.*.*.*.*.*.*.*.*.*.*.*.",
"*.*.*.*.*.*.*.*.*.*.*.*.' ' *.*.*.*.*.*.*.*.*.*.*.' ' ' *.*.*.*.*.*.*.*.*.*.*.*.*.' ' *.*.*.*.*.*.*.*.*.*.*.*.*.*.*.*.",
"*.*.*.*.*.*.*.*.*.*.*.*.' ' *.*.*.*.*.*.*.*.*.*.*.*.' *.*.' ' *.*.*.*.' ' *.*.*.*.' ' *.*.' ' ' *.*.*.*.*.*.*.*.*.*.*.",
"*.*.*.*.*.*.*.*.*.*.*.*.' ' *.*.' *.*.*.*.*.*.*.*.*.*.*.*.' ' *.*.*.*.' ' *.*.*.*.*.*.*.*.' ' ' *.*.*.*.*.*.*.*.*.*.*.",
"*.*.*.*.*.*.*.*.*.*.' *.*.*.*.' ' ' *.*.*.*.*.*.*.*.*.*.*.*.*.*.*.*.*.*.*.*.*.*.*.*.*.*.*.' ' ' *.*.*.*.*.*.*.*.*.*.*.",
"*.*.*.*.*.*.*.*.*.' ' ' *.*.*.' ' '                                                 *.*.*.*.*.*.*.*.*.*.*.*.*.*.*.*.*.",
"*.*.*.*.*.*.*.*.*.*.' *.*.*.  ) _ (                                                       *.*.' *.*.*.*.*.*.*.*.*.*.*.",
"*.*.*.*.  *.*.*.*.*.*.*.                                                                    ' ' ' *.*.*.*.*.*.  *.*.*.",
"*.*.*.    *.*.*.*.*.*.            u [ [ [ [ [ [ [ [ [ [ [ [ [ [ [ [ [ [ [ [ [ [ [ ;         ' ' ' *.*.*.*.*.*.  *.*.*.",
"*.*.  d   *.*.*.*.*.          ..&.&.&.&.&.&.&.&.&.&.&.&.&.&.&.&.&.&.&.&.&.&.&.&.&.&.&.|     ( ' _ *.*.*.*.*.  *   *.*.",
"*.*.  [   *.*.*.*.        i &.&.&.&.&.&.&.&.&.&.&.&.&.&.&.&.&.&.&.&.&.&.&.&.&.&.&.&.&.&.$.y       *.*.*.*.*.   .    *.",
"*.  | +     *.*.*.' '   i &.&.O.Q E E E E E E E E E E E E E E E E E E E E E E E E E ~ +.&.&.=       *.*.*.*.  o.    *.",
"*.  %.      *.*.  ' '   %.%.^ E E E E E E E E E E E E E E E E E E E E E E E E E E E E E / &.$.      *.*.*.  f o.    *.",
"*.  &.        *.      | %.E E E E E E E E E E E E E E E E E E E E E E E E E E E E E E E E ! %.f       *.    $.{       ",
"*.; &.                %.E E E E E E E E E E E E E E E E E E E E E E E E E E U g T E E E E E W @.      *.  | &.;       ",
"*.s %.                E E U , D E E E E E E E E E E E E E E E E E E E E A @     3 E E E E E E ^         d &.$.        ",
"*.- &.              % E E <       c E E E E E E E E E E E E E E E T r             E E E E E E E       ] &.&.p         ",
"*.  &.              9 E E .           0 U E E E E E E E E E E G >             q R E E E E E E E .     o.&.}           ",
"*.  #.              t E E E m             , J E E E E E E x             o N E E E E E E E E E E <     { {           *.",
"*.  d ]             m E E E E E G &           o E E E l             4 L E E E E E E E E E E E E t                   *.",
"*.*.  }             J E E E E E E E U 9         E E E ,         n R E E E E E E E E E E E E E E x                 *.*.",
"*.*.*.              U E E E E E E E E E R x   q E E E J   < J E E E E E E E E E E E E E E E E E J                 *.*.",
"*.*.*.              E E E E Z E E E E E E E E E E E E E E E E E E E E E J E E E E E E E E E E E J               *.*.*.",
"*.*.*.*.            E E E E T c E E E E E E E E E E E E E E E E E E E < E E E E E E E E E E E E R             *.*.*.*.",
"*.*.*.*.*.          E E E E E t Z E E E E E E E E E E E E E E E E R % A E E E E E E E E E E E E E           *.*.*.*.*.",
"*.*.*.*.*.*.      . E E E E E E   G E E E E E E E E E E E E E E Y   & E E E E E E E E E E E E E E       *.*.*.*.*.*.*.",
"*.*.*.*.*.*.      9 E E E E E E x   J E E E E E E E E E E E E H     U E E E E E E E E E E E E E E       *.*.*.*.*.*.*.",
"*.*.*.*.*.*.      3 R E E E E E E     K E E E E E E E E E E n     3 E E E E E E E E E E E E E E E 2       *.*.*.*.*.*.",
"*.*.*.*.*.*.      2 t E E E E E E m     T E E E E E E E E g       T E E E E E E E E E E Y w J E E r       *.*.*.*.*.*.",
"*.*.*.*.*.*.      5 w E E E E E E E       T E E E E E E <       z E E E E E E E E E E E M w t E E l       *.*.*.*.*.*.",
"*.*.*.*.*.*.      5 C T U E E E E H       O E E E E E n         , E E E E E E E E E E E M w x E E J       *.*.*.*.*.*.",
"*.*.*.*.*.*.      E T w w G E E T     9 U E E E E E E E E G :     m E E E E E E E E E E R v R E E K       *.*.*.*.*.*.",
"*.*.*.*.*.*.      E C w w e E E # N E E E E E E E E E E E E E T q   T E E E E E E Z w t E E E E E E       *.*.*.*.*.*.",
"*.*.*.*.*.*.      E G w w c E R E E E E E E E E E E E E E E E E E E Z E E E E E E w w w U E E E E E       *.*.*.*.*.*.",
"*.*.*.*.*.      o E E e w R E E E E E E E E E E E E E E E E E E E E E E E E E E E w w w U E E E E E       *.*.*.*.*.*.",
"*.*.*.*.*.      3 E E E E E E E E E E E E E E E E E E E E E E E E E E E E E E E E C w e E E E E E E       *.*.*.*.*.*.",
"*.*.*.*.*.      t E E E E E E E E E E E E E E E E E E E E E E E E E E E E E E E E E T E E E E E E E :       *.*.*.*.*.",
"*.*.*.*.*.      c E E E E E E E E T J J J K J J H J J J J J J J J U E E E E E E E E E E E E E E E E t       *.*.*.*.*.",
"*.*.*.*.*.      H E E E E E E E 2   X X X X               X X X X   % T E E E E E E E E E E E E E E g       *.*.*.*.*.",
"*.*.*.*.*.      j R E E E E E 2     [ &.&.&.[           ; &.&.&.X.    O E E E E E E E E E E E E E I j       *.*.*.*.*.",
"*.*.*.*.*.      B B T E E E I       = %.&.&.;             $.&.&.a       G E E E E E E E E E E E P B j       *.*.*.*.*.",
"*.*.*.*.*.      b B B H E E J                                           t E E E E E E E E E E F B b j       *.*.*.*.*.",
"*.*.*.*.*.      j B B B b S D                                           t E E E E E E R P V B B B B 7       *.*.*.*.*.",
"*.*.*.*.*.      2 B B B B B b       { $.#.   .$.@.  ..$.X.  X.$...      j B B B B B B B B B B B B b $       *.*.*.*.*.",
"*.*.*.*.*.*.      B B B B B B 6     $.&.&.a &.&.&.+ &.&.&.  &.&.&.    > B B B B B B B B B B B B B k       *.*.*.*.*.*.",
"*.*.*.*.*.*.      2 B B B B B k 8                                   6 B B B B B B B B B B B B B B $       *.*.*.*.*.*.",
"*.*.*.*.*.*.        6 B B B B B B B B B B B B B B B B B B B B B B B B B B B B B B B B B B B B B 5       *.*.*.*.*.*.*.",
"*.*.*.*.*.*.*.        5 B B B B B B B B B B B B B B B B B B B B B B B B B B B B B B B B B B B 1         *.*.*.*.*.*.*.",
"*.*.*.*.*.*.*.*.        . 8 b B B B B B B B B B B B B B B B B B B B B B B B B B B B B B k 6           *.*.*.*.*.*.*.*.",
"*.*.*.*.*.*.*.*.*.                                                                                  *.*.*.*.*.*.*.*.*.",
"*.*.*.*.*.*.*.*.*.*.                                                                              *.*.*.*.*.*.*.*.*.*.",
"*.*.*.*.*.*.*.*.*.*.*.*.                                                                      *.*.*.*.*.*.*.*.*.*.*.*.",
"*.*.*.*.*.*.*.*.*.*.*.*.*.*.*.*.*.              *.*.*.*.*.*.*.*.*.*.*.                *.*.*.*.*.*.*.*.*.*.*.*.*.*.*.*.",
"*.*.*.*.*.*.*.*.*.*.*.*.*.*.*.*.*.              *.*.*.*.*.*.*.*.*.*.*.*.            *.*.*.*.*.*.*.*.*.*.*.*.*.*.*.*.*.",
"*.*.*.*.*.*.*.*.*.*.*.*.*.*.*.*.*.              *.*.*.*.*.*.*.*.*.*.*.*.            *.*.*.*.*.*.*.*.*.*.*.*.*.*.*.*.*.",
"*.*.*.*.*.*.*.*.*.*.*.*.*.*.*.*.*.            *.*.*.*.*.*.*.*.*.*.*.*.*.            *.*.*.*.*.*.*.*.*.*.*.*.*.*.*.*.*.",
"*.*.*.*.*.*.*.*.*.*.*.*.*.*.*.*.*.*.          *.*.*.*.*.*.*.*.*.*.*.*.*.*.        *.*.*.*.*.*.*.*.*.*.*.*.*.*.*.*.*.*.",
"*.*.*.*.*.*.*.*.*.*.*.*.*.*.*.*.*.*.*.      *.*.*.*.*.*.*.*.*.*.*.*.*.*.*.        *.*.*.*.*.*.*.*.*.*.*.*.*.*.*.*.*.*."
};
