/* XPM */
static char *_651347338940[] = {
/* columns rows colors chars-per-pixel */
"59 60 115 2 ",
"   c #000000",
".  c #0B0B02",
"X  c gray6",
"o  c #131303",
"O  c #191904",
"+  c #030A11",
"@  c #111111",
"#  c #202003",
"$  c #2E3007",
"%  c #323205",
"&  c #323408",
"*  c #3B3E0A",
"=  c #061422",
"-  c #0A1D31",
";  c gray13",
":  c #282828",
">  c gray20",
",  c gray23",
"<  c #3F410A",
"1  c #44460B",
"2  c #47490C",
"3  c #4A4C0B",
"4  c #53540B",
"5  c #575A0E",
"6  c #5A5D0F",
"7  c #63620C",
"8  c #6E6E0B",
"9  c #74740C",
"0  c #7A7A0C",
"q  c #616510",
"w  c #666911",
"e  c #696D11",
"r  c #6E7212",
"t  c #757210",
"y  c #7A7711",
"u  c #777B13",
"i  c #7A7C13",
"p  c #103050",
"a  c gray25",
"s  c #4B4B4B",
"d  c #525252",
"f  c #5E5E5E",
"g  c DimGray",
"h  c #747474",
"j  c #7C7C7C",
"k  c #7D8214",
"l  c #83830D",
"z  c #8C8C0E",
"x  c #93930F",
"c  c #9A9A0F",
"v  c #828715",
"b  c #858A16",
"n  c #898D15",
"m  c #8E9217",
"M  c #969717",
"N  c #9D9D11",
"B  c #929718",
"V  c #949A18",
"C  c #9B9F19",
"Z  c #9FA51A",
"A  c #A0A010",
"S  c #ACAE15",
"D  c #A3A519",
"F  c #A5AA1A",
"G  c #AEB116",
"H  c #ADB31C",
"J  c #B0B317",
"K  c #B0B71D",
"L  c #B4BA1D",
"P  c #B8BF1E",
"I  c #BCC31F",
"U  c #C0C71F",
"Y  c #C5CB1E",
"T  c #CAD01F",
"R  c #C3CA20",
"E  c #C9CF21",
"W  c #CDD521",
"Q  c #D0D722",
"!  c #D6DE23",
"~  c #D7DF33",
"^  c #D8DF39",
"/  c #D8E040",
"(  c #DAE14F",
")  c #DAE154",
"_  c #C3D469",
"`  c #DDE468",
"'  c #1D568F",
"]  c #1E5994",
"[  c #2266AB",
"{  c #2879CC",
"}  c #2F8CE9",
"|  c #3399FF",
" . c #7AB0D4",
".. c #459EFF",
"X. c #858585",
"o. c #8F8F8F",
"O. c #999999",
"+. c #A4A4A4",
"@. c gray68",
"#. c gray69",
"$. c #A4C4A3",
"%. c #C0C0C0",
"&. c #CACACA",
"*. c #D6D6D6",
"=. c #DBDBDB",
"-. c #F0F3C8",
";. c #F6F7DE",
":. c #D1E2FF",
">. c #E4E4E2",
",. c #EBEBEB",
"<. c #F4F4F4",
"1. c #FBFBF4",
"2. c #F2F7FF",
"3. c #FFFFFF",
"4. c None",
/* pixels */
"4.4.4.4.4.4.4.4.4.4.4.4.4.4.4.4.4.4.4.4.4.4.4.4.4.4.4.4.4.4.4.4.4.4.4.4.4.4.4.4.4.4.4.4.4.4.4.4.4.4.4.4.4.4.4.4.4.4.4.",
"4.4.4.4.4.4.4.4.4.4.4.4.4.4.4.4.4.4.4.| | 4.4.4.4.4.4.4.4.4.4.4.4.4.4.4.4.4.4.4.4.4.4.4.4.4.4.4.4.4.4.4.4.4.4.4.4.4.4.",
"4.4.4.4.4.4.4.4.4.4.4.4.4.4.4.4.4.4.4.| | 4.4.4.4.4.4.4.4.4.4.4.4.4.4.4.4.4.| | 4.4.4.4.4.4.4.4.4.4.4.4.4.4.4.4.4.4.4.",
"4.4.4.4.4.4.4.4.4.4.4.4.4.4.4.4.4.4.4.4.4.4.4.4.4.4.4.4.4.4.4.| 4.4.4.4.4.4.| | 4.4.4.4.4.4.4.4.4.4.4.4.4.4.4.4.4.4.4.",
"4.4.4.4.4.4.4.4.4.| | 4.4.4.4.4.4.4.4.4.4.4.4.4.4.4.4.4.4.4.| | 4.4.4.4.4.4.4.4.4.4.4.4.4.4.4.4.4.4.4.4.4.4.4.4.4.4.4.",
"4.4.4.4.4.4.4.4.| | | 4.4.4.4.4.4.4.4.4.4.4.4.4.4.4.4.4.4.4.4.4.4.4.4.4.4.4.4.4.4.4.4.4.| 4.4.4.4.4.4.4.4.4.4.4.4.4.4.",
"4.4.4.4.4.4.4.4.4.| 4.4.4.4.4.4.4.4.4.4.4.4.4.4.4.4.4.4.4.4.4.4.4.4.4.4.4.4.4.4.4.4.4.| | | 4.4.4.4.4.4.4.4.4.4.4.4.4.",
"4.4.4.4.4.4.4.4.4.4.4.4.4.4.4.4.4.              = | {                         [ +   4.| | 4.4.4.4.4.4.4.4.4.4.4.4.4.4.",
"4.4.4.4.4.4.4.4.4.4.4.4.4.4.                      ] -                       ' | }         4.4.4.4.4.| | | 4.4.4.4.4.4.",
"4.4.4.4.  4.| | | 4.4.4.                                                    p | [             4.4.| | | | 4.4.  4.4.4.",
"4.4.4.    4.4.| | 4.4.            s o.o.o.o.o.o.o.o.o.o.o.o.o.o.o.o.o.o.o.o.o.o.o.,             4.4.| | | 4.4.  4.4.4.",
"4.4.  h   4.4.4.4.4.          &.3.3.:.2.3.3.3.3.3.3.3.3.3.3.3.3.3.3.3.3.3.3.3.3.3.3.3.#.          4.4.4.4.4.  ;   4.4.",
"4.4.. o.  4.4.4.4.        d 3.3.3...| | 3.3.3.3.3.3.3.3.3.3.3.3.3.3.3.3.3.3.3.3.3.3.3.3.<.a       4.4.4.4.4.  #.    4.",
"4.  @.X     4.4.4.      d 3.3.-.^ | | | _ ! ! ! ! ! ! ! ! ! ! ! ! ! ! ! ! ! ! ! ! ! ( ;.3.3.:       4.4.4.4.  =.    4.",
"4.  1.      4.4.        1.3.) ! ! $.|  .! ! ! ! ! ! ! ! ! ! ! ! ! ! ! ! ! ! ! I ! ! ! ! ` 3.,.      4.4.4.  j =.    4.",
"4.  3.        4.      @.1.Q m Q ! ! ! ! ! ! ! ! ! ! ! ! ! ! ! ! ! ! ! ! W k     u ! ! ! ! / 3.j       4.    <.O.      ",
"4., 3.                1.! w     5 R ! ! ! ! ! ! ! ! ! ! ! ! ! ! ! ! L 2           ! ! ! ! ! ~ >.      4.  @.3.,       ",
"4.g 1.                ! !           $ H ! ! ! ! ! ! ! ! ! ! ! Q m             o L ! ! ! ! ! ! )         h 3.<.        ",
"4.> 3.              & ! ! R 3             m ! ! ! ! ! ! ! U 6             6 I ! ! ! ! ! ! ! ! !       X.3.3.f         ",
"4.  3.              w ! ! ! ! W u             e ! ! ! L .             n ! ! ! ! ! ! ! ! ! ! ! ! .     =.3.+.          ",
"4.  ,.              i ! ! ! ! ! ! ! V           ! ! ! o         2 L ! ! ! ! ! ! ! ! ! ! ! ! ! ! 2     O.O.          4.",
"4.  h X.            V ! ! ! ! ! ! ! ! ! L *   < ! ! ! Z     i W ! ! ! ! ! ! ! ! ! ! ! ! ! ! ! ! i                   4.",
"4.4.  +.            P ! ! ! ! ! ! ! ! ! ! ! R ! ! ! ! ! I ! ! ! ! ! ! ! ! ! ! ! ! ! ! ! ! ! ! ! n                 4.4.",
"4.4.4.              R ! ! ! ! ! ! ! ! ! ! ! ! ! ! ! ! ! ! ! ! ! ! ! ! ! ! ! ! ! ! ! ! ! ! ! ! ! L                 4.4.",
"4.4.4.              ! ! ! ! F ! ! ! ! ! ! ! ! ! ! ! ! ! ! ! ! ! ! ! ! ! L ! ! ! ! ! ! ! ! ! ! ! P               4.4.4.",
"4.4.4.4.            ! ! ! ! W m ! ! ! ! ! ! ! ! ! ! ! ! ! ! ! ! ! ! ! 2 ! ! ! ! ! ! ! ! ! ! ! ! Q             4.4.4.4.",
"4.4.4.4.4.          ! ! ! ! ! i F ! ! ! ! ! ! ! ! ! ! ! ! ! ! ! ! Q & H ! ! ! ! ! ! ! ! ! ! ! ! !           4.4.4.4.4.",
"4.4.4.4.4.4.      . ! ! ! ! ! !   L ! ! ! ! ! ! ! ! ! ! ! ! ! ! E   * ! ! ! ! ! ! ! ! ! ! ! ! ! !       4.4.4.4.4.4.4.",
"4.4.4.4.4.4.      w ! ! ! ! ! ! n   L ! ! ! ! ! ! ! ! ! ! ! ! L     R ! ! ! ! ! ! ! ! ! ! ! ! ! !       4.4.4.4.4.4.4.",
"4.4.4.4.4.4.      5 Q ! ! ! ! ! !     I ! ! ! ! ! ! ! ! ! ! V     5 ! ! ! ! ! ! ! ! ! ! ! ! ! ! ! 5       4.4.4.4.4.4.",
"4.4.4.4.4.4.      4 i ! ! ! ! ! ! V     W ! ! ! ! ! ! ! ! k       W ! ! ! ! ! ! ! ! ! ! W t P ! ! u       4.4.4.4.4.4.",
"4.4.4.4.4.4.      q y ! ! ! ! ! ! !       W ! ! ! ! ! ! 2       b ! ! ! ! ! ! ! ! ! ! ! M t i ! ! v       4.4.4.4.4.4.",
"4.4.4.4.4.4.      7 D W R ! ! ! ! L       O ! ! ! ! ! B         1 ! ! ! ! ! ! ! ! ! ! ! C t b ! ! I       4.4.4.4.4.4.",
"4.4.4.4.4.4.      ! W t t L ! ! W     e R ! ! ! ! ! ! ! ! L <     V ! ! ! ! ! ! ! ! ! ! ! M Q ! ! I       4.4.4.4.4.4.",
"4.4.4.4.4.4.      ! D t t y ! ! $ Z ! ! ! ! ! ! ! ! ! ! ! ! ! E r   W ! ! ! ! ! ! F t i ! ! ! ! ! Q       4.4.4.4.4.4.",
"4.4.4.4.4.4.      ! K t t m ! Q ! ! ! ! ! ! ! ! ! ! ! ! ! ! ! ! ! ! F ! ! ! ! ! ! t t t U ! ! ! ! !       4.4.4.4.4.4.",
"4.4.4.4.4.      o ! ! y t Q ! ! ! ! ! ! ! ! ! ! ! ! ! ! ! ! ! ! ! ! ! ! ! ! ! ! ! y t y U ! ! ! ! !       4.4.4.4.4.4.",
"4.4.4.4.4.      5 ! ! ! ! ! ! ! ! ! ! ! ! ! ! ! ! ! ! ! ! ! ! ! ! ! ! ! ! ! ! ! ! D t y ! ! ! ! ! ! .     4.4.4.4.4.4.",
"4.4.4.4.4.      y ! ! ! ! ! ! ! ! Q P P P P P P I L I P P P P P P W ! ! ! ! ! ! ! ! Q ! ! ! ! ! ! ! <       4.4.4.4.4.",
"4.4.4.4.4.      m ! ! ! ! ! ! ! b                                   q ! ! ! ! ! ! ! ! ! ! ! ! ! ! ! i       4.4.4.4.4.",
"4.4.4.4.4.      L ! ! ! ! ! ! D     o.3.3.3.o.          , 3.3.3.*.    r ! ! ! ! ! ! ! ! ! ! ! ! ! ! k       4.4.4.4.4.",
"4.4.4.4.4.      z Q ! ! ! ! !       , 3.3.3.d             1.3.3.j       W ! ! ! ! ! ! ! ! ! ! ! ! T z       4.4.4.4.4.",
"4.4.4.4.4.      A A W ! ! ! I                                           M ! ! ! ! ! ! ! ! ! ! ! Y A z       4.4.4.4.4.",
"4.4.4.4.4.      N A A L ! ! L                                           i ! ! ! ! ! ! ! ! ! ! J A N z       4.4.4.4.4.",
"4.4.4.4.4.      z A A A A J H                                           y ! ! ! ! ! ! W Y S A A A A 9       4.4.4.4.4.",
"4.4.4.4.4.      4 A A A A A x                                           l A A A A A A A A A A A A N %       4.4.4.4.4.",
"4.4.4.4.4.4.      c A A A A A #     %.3.1.@ *.3.<.  >.3.<.  <.3.>.      A A A A A A A A A A A A A c       4.4.4.4.4.4.",
"4.4.4.4.4.4.      4 A A A A A x     ,.<.<.f <.<.<.X <.<.<.  <.<.<.    0 A A A A A A A A A A A A A %       4.4.4.4.4.4.",
"4.4.4.4.4.4.        8 A A A A A x O                                 l A A A A A A A A A A A A A 7       4.4.4.4.4.4.4.",
"4.4.4.4.4.4.4.        7 A A A A A A A A A A A A A A A A A A A A A A A A A A A A A A A A A A A 3         4.4.4.4.4.4.4.",
"4.4.4.4.4.4.4.4.        . 9 N A A A A A A A A A A A A A A A A A A A A A A A A A A A A A N 8           4.4.4.4.4.4.4.4.",
"4.4.4.4.4.4.4.4.4.                                                                                  4.4.4.4.4.4.4.4.4.",
"4.4.4.4.4.4.4.4.4.4.                                                                              4.4.4.4.4.4.4.4.4.4.",
"4.4.4.4.4.4.4.4.4.4.4.4.                                                                      4.4.4.4.4.4.4.4.4.4.4.4.",
"4.4.4.4.4.4.4.4.4.4.4.4.4.4.4.4.4.              4.4.4.4.4.4.4.4.4.4.4.                4.4.4.4.4.4.4.4.4.4.4.4.4.4.4.4.",
"4.4.4.4.4.4.4.4.4.4.4.4.4.4.4.4.4.              4.4.4.4.4.4.4.4.4.4.4.4.            4.4.4.4.4.4.4.4.4.4.4.4.4.4.4.4.4.",
"4.4.4.4.4.4.4.4.4.4.4.4.4.4.4.4.4.              4.4.4.4.4.4.4.4.4.4.4.4.            4.4.4.4.4.4.4.4.4.4.4.4.4.4.4.4.4.",
"4.4.4.4.4.4.4.4.4.4.4.4.4.4.4.4.4.            4.4.4.4.4.4.4.4.4.4.4.4.4.            4.4.4.4.4.4.4.4.4.4.4.4.4.4.4.4.4.",
"4.4.4.4.4.4.4.4.4.4.4.4.4.4.4.4.4.4.          4.4.4.4.4.4.4.4.4.4.4.4.4.4.        4.4.4.4.4.4.4.4.4.4.4.4.4.4.4.4.4.4.",
"4.4.4.4.4.4.4.4.4.4.4.4.4.4.4.4.4.4.4.      4.4.4.4.4.4.4.4.4.4.4.4.4.4.4.        4.4.4.4.4.4.4.4.4.4.4.4.4.4.4.4.4.4."
};
