/* XPM */
static char *_650217299396[] = {
/* columns rows colors chars-per-pixel */
"59 50 166 2 ",
"   c black",
".  c #020202",
"X  c #060202",
"o  c #070707",
"O  c #0B0B0B",
"+  c #0C0C0C",
"@  c gray5",
"#  c gray6",
"$  c #101010",
"%  c #191919",
"&  c #252525",
"*  c #3D3724",
"=  c #313131",
"-  c gray21",
";  c gray24",
":  c #3F3F3F",
">  c #4C1A1A",
",  c #695E37",
"<  c #414141",
"1  c gray26",
"2  c gray28",
"3  c #5C5643",
"4  c gray32",
"5  c #585858",
"6  c #5B5B5B",
"7  c #5F5F5F",
"8  c #6A6559",
"9  c #646464",
"0  c gray44",
"q  c #812B2B",
"w  c #913131",
"e  c #A63838",
"r  c #B13B3B",
"t  c #B76E4B",
"y  c #B76E4C",
"u  c #C64242",
"i  c #D94949",
"p  c #DA4949",
"a  c #DA4B4A",
"s  c #DB524C",
"d  c #DD5C4F",
"f  c #DC5E4F",
"g  c #E07B59",
"h  c #A19158",
"j  c #A89C73",
"k  c #B9A562",
"l  c #BBA763",
"z  c #E1805B",
"x  c #E1855C",
"c  c #E2855D",
"v  c #E2865D",
"b  c #E2885D",
"n  c #E38E60",
"m  c #C3AE67",
"M  c #C5AF68",
"N  c #C5B067",
"B  c #CAB46A",
"V  c #CEB86D",
"C  c #D1BA6E",
"Z  c #CEBA75",
"A  c #D6BF70",
"S  c #D6BF71",
"D  c #D8C071",
"F  c #DBC473",
"G  c #DEC674",
"H  c #EDC074",
"J  c #EEC275",
"K  c #E0C876",
"L  c #E1C976",
"P  c #E2CA77",
"I  c #E4CC78",
"U  c #E5CD78",
"Y  c #E7CE79",
"T  c #E7CF79",
"R  c #E7CF7F",
"E  c #E8CF79",
"W  c #F0C979",
"Q  c #F0CC79",
"!  c #F1CF7B",
"~  c #E7D07F",
"^  c #E9D07A",
"/  c #EAD17A",
"(  c #EBD17B",
")  c #EBD27B",
"_  c #EDD47C",
"`  c #EED47C",
"'  c #EFD57D",
"]  c #EED57F",
"[  c #F2D57D",
"{  c #F0D67D",
"}  c #F0D77E",
"|  c #F1D77E",
" . c #F0D77F",
".. c #F2D67E",
"X. c #F1D87F",
"o. c #F2D87F",
"O. c #F3D87F",
"+. c #F3D97F",
"@. c #818181",
"#. c #828281",
"$. c #848484",
"%. c #888888",
"&. c gray54",
"*. c gray56",
"=. c #99968F",
"-. c #9A988F",
";. c #909090",
":. c gray57",
">. c gray58",
",. c #959595",
"<. c gray59",
"1. c #979797",
"2. c #9B9890",
"3. c #989898",
"4. c gray60",
"5. c #9B9B9B",
"6. c gray61",
"7. c #9D9D9D",
"8. c gray62",
"9. c #9F9E9E",
"0. c #9F9F9E",
"q. c #A09B8D",
"w. c #A7A08B",
"e. c #B1A687",
"r. c #B8AC85",
"t. c #A4A29C",
"y. c #A5A39C",
"u. c #A7A49C",
"i. c #A8A59B",
"p. c #A9A59B",
"a. c #ABA79A",
"s. c #ADA899",
"d. c #B4AD97",
"f. c #B5AD97",
"g. c #B0AA99",
"h. c #B1AB99",
"j. c #B3AC98",
"k. c #B9B096",
"l. c #C6B582",
"z. c #C9B882",
"x. c #CFBD81",
"c. c #C5B78E",
"v. c #CCBD8F",
"b. c #CEBF8E",
"n. c #C5B991",
"m. c #C5B992",
"M. c #C8BB91",
"N. c #D5C180",
"B. c #D6C280",
"V. c #D9C480",
"C. c #DCC783",
"Z. c #DAC686",
"A. c #D7C58B",
"S. c #D2C28D",
"D. c #D4C38D",
"F. c #D8C68A",
"G. c #DAC78A",
"H. c #DBC88A",
"J. c #DDC989",
"K. c #DECA88",
"L. c #E7D184",
"P. c #EFD681",
"I. c #F0D780",
"U. c #F1D780",
"Y. c #F1D880",
"T. c None",
/* pixels */
"T.T.T.T.T.T.T.T.T.T.T.T.T.T.T.T.T.T.T.T.T.T.T.T.T.T.T.T.T.T.T.T.T.T.T.T.T.T.T.T.T.T.T.T.T.T.T.T.T.T.T.T.T.T.T.T.T.T.T.",
"T.T.T.T.T.T.T.T.T.T.T.T.T.T.T.T.T.T.T.T.T.T.T.T.T.T.T.T.T.T.T.T.T.T.T.T.T.T.T.T.T.T.T.T.T.T.T.T.T.T.T.T.T.T.T.T.T.T.T.",
"T.T.T.T.T.T.T.T.T.T.T.T.T.T.T.T.T.T.T.T.T.T.T.T.T.T.T.T.T.T.T.T.T.T.T.T.T.T.T.T.T.T.T.T.T.T.T.T.T.T.T.T.T.T.T.T.T.T.T.",
"T.T.T.T.T.T.T.T.T.T.T.T.T.T.T.T.T.T.T.T.T.T.T.T.T.T.T.T.T.T.T.T.T.T.T.T.T.T.T.T.T.T.T.T.T.T.T.T.T.T.T.T.T.T.T.T.T.T.T.",
"T.T.T.T.T.T.T.T.T.T.T.T.T.T.T.T.T.T.T.T.T.T.T.T.T.T.T.T.T.T.T.T.T.T.T.T.T.T.T.T.T.T.T.T.T.T.T.T.T.T.T.T.T.T.T.T.T.T.T.",
"T.T.T.T.T.T.T.T.T.T.T.T.T.T.T.T.T.T.T.T.T.T.T.T.T.T.T.T.T.T.T.T.T.T.T.T.T.T.T.T.T.T.T.T.T.T.T.T.T.T.T.T.T.T.T.T.T.T.T.",
"T.T.T.T.T.T.T.T.T.T.T.T.T.T.T.T.T.T.T.T.T.T.T.T.T.T.T.T.T.T.T.T.T.T.T.T.T.T.T.T.T.T.T.T.T.T.T.T.T.T.T.T.T.T.T.T.T.T.T.",
"T.T.T.T.T.T.T.T.T.T.T.T.T.T.T.T.T.T.T.T.T.T.T.T.T.T.T.T.T.T.T.T.T.T.T.T.T.T.T.T.T.T.T.T.T.T.T.T.T.T.T.T.T.T.T.T.T.T.T.",
"T.T.T.T.T.T.T.T.T.T.T.T.T.T.T.T.T.T.T.T.T.T.T.T.T.T.T.T.T.T.T.T.T.T.T.T.T.T.T.T.T.T.T.T.T.T.T.T.T.T.T.T.T.T.T.T.T.T.T.",
"T.T.T.T.T.T.T.T.T.T.T.T.T.T.T.T.T.T.T.T.T.T.T.T.T.T.T.T.T.T.T.T.T.T.T.T.T.T.T.T.T.T.T.T.T.T.T.T.T.T.T.T.T.T.T.T.T.T.T.",
"T.T.T.T.T.T.T.T.T.T.T.T.T.T.T.T.T.T.T.T.T.T.T.T.T.T.T.T.T.T.T.T.T.T.T.T.T.T.T.T.T.T.T.T.T.T.T.T.T.T.T.T.T.T.T.T.T.T.T.",
"T.T.T.T.T.T.T.T.T.T.T.T.T.T.T.T.T.T.T.T.T.T.T.T.T.T.T.T.T.T.T.T.T.T.T.T.T.T.T.T.T.T.T.T.T.T.T.T.T.T.T.T.T.T.T.T.T.T.T.",
"T.T.T.T.T.T.T.T.T.T.T.T.T.T.T.T.T.T.T.T.T.T.T.T.T.T.T.T.T.T.T.T.T.T.T.T.T.T.T.T.T.T.T.T.T.T.T.T.T.T.T.T.T.T.T.T.T.T.T.",
"T.T.T.T.T.T.T.T.T.T.T.T.T.T.T.T.T.T.T.T.T.T.T.T.T.T.T.T.T.T.T.T.T.T.T.T.T.T.T.T.T.T.T.T.T.T.T.T.T.T.T.T.T.T.T.T.T.T.T.",
"T.T.T.T.T.T.T.T.T.T.T.T.T.T.T.T.T.T.T.T.T.T.T.T.T.T.T.T.T.T.T.T.T.T.T.T.T.T.T.T.T.T.T.T.T.T.T.T.T.T.T.T.T.T.T.T.T.T.T.",
"T.T.T.T.T.T.T.T.T.T.T.T.T.T.T.T.T.T.T.T.T.T.T.T.T.T.T.T.T.T.T.T.T.T.T.T.T.T.T.T.T.T.T.T.T.T.T.T.T.T.T.T.T.T.T.T.T.T.T.",
"T.T.T.T.T.T.T.T.T.T.T.T.T.T.T.T.T.T.T.T.T.T.T.T.T.T.T.T.T.T.T.T.T.T.T.T.T.T.T.T.T.T.T.T.T.T.T.T.T.T.T.T.T.T.T.T.T.T.T.",
"T.T.T.T.T.T.T.T.T.T.T.T.T.T.T.T.T.T.T.T.T.T.T.T.T.                T.T.T.T.T.T.T.T.T.T.T.T.T.T.T.T.T.T.T.T.T.T.T.T.T.T.",
"T.T.T.T.T.T.T.T.T.T.T.T.T.T.T.T.T.T.T.T.T.T.T.        # #             T.T.T.T.T.T.T.T.T.T.T.T.T.T.T.T.T.T.T.T.T.T.T.T.",
"T.T.T.T.T.T.T.T.T.T.T.T.T.T.T.T.T.T.T.T.T.T.    = *.8.;.8.8.,.,.$.<       T.T.T.T.T.T.T.T.T.T.T.T.T.T.T.T.T.T.T.T.T.T.",
"T.T.T.T.T.T.T.T.T.T.T.T.T.T.T.T.T.T.T.  T.    4 8.2 * *.a.C.C.n.8 >.%.    T.T.T.T.T.T.T.T.T.T.T.T.T.T.T.T.T.T.T.T.T.T.",
"T.T.T.T.T.T.T.T.T.T.T.T.T.T.T.T.            & 8.h ' u.S.o.o.o.o.o.o.c.&.    T.T.T.T.T.T.T.T.T.T.T.T.T.T.T.T.T.T.T.T.T.",
"T.T.T.T.T.T.T.T.T.T.T.T.T.T.T.      ; 9 6 % @.D.o.G.j.Y.+.+.+.+.Y.o.U Y.3             T.T.T.T.T.T.T.T.T.T.T.T.T.T.T.T.",
"T.T.T.T.T.T.T.T.T.T.T.T.T.T.T.  o ;.8.8.8.8.8.U.v.t.j.K.+.+.+.+.Y.N k F o., O < -       T.T.T.T.T.T.T.T.T.T.T.T.T.T.T.",
"T.T.T.T.T.T.T.T.T.T.T.T.T.T.    %.8.8.8.8.8.8.8.8.8.8.8.d.o.+.+.o.L l _ o.+.i.8.8.8.6     T.T.T.T.T.T.T.T.T.T.T.T.T.T.",
"T.T.T.T.T.T.T.T.T.T.T.T.T.T.  # 8.8.8.8.8.8.8.8.8.8.8.8.8.S.+.+.o.N U L ) +. .8.8.8.8.<     T.T.T.T.T.T.T.T.T.T.T.T.T.",
"T.T.T.T.T.T.T.T.T.T.T.T.T.T.  - 8.8.8.8.8.8.8.8.8.8.8.8.8.y.+.+.{ k D +.o.+.+.v.8.8.8.;.    T.T.T.T.T.T.T.T.T.T.T.T.T.",
"T.T.T.T.T.T.T.T.T.T.T.T.T.T.  $ 8.8.8.8.8.8.8.8.8.8.8.8.8.9.+.+.+.o.o.o.o.+.+.o.8.8.8.8.    T.T.T.T.T.T.T.T.T.T.T.T.T.",
"T.T.T.T.T.T.T.T.T.T.T.T.T.T.    *.8.8.8.8.8.8.8.8.8.8.8.8.g.+.+.o._ ) _ o.o.o.o.i.8.8.4.    T.T.T.T.T.T.T.T.T.T.T.T.T.",
"T.T.T.T.T.T.T.T.T.T.T.T.T.T.    # ,.8.8.8.8.8.8.8.8.8.8.8.L.B D I ) ) E U D B ) c.8.8.0     T.T.T.T.T.T.T.T.T.T.T.T.T.",
"T.T.T.T.T.T.T.T.T.T.T.T.T.T.T.      @.t.8.8.8.8.8.8.8.8.K.o.B C L E T ) G V B ..A.8.;.    T.T.T.T.T.T.T.T.T.T.T.T.T.T.",
"T.T.T.T.T.T.T.T.T.T.T.T.T.T.T.T.    j 8.8.8.8.8.8.8.G.+.o.+.+.+.o.o.o.+.o.o.o.o.H.,.      T.T.T.T.T.T.T.T.T.T.T.T.T.T.",
"T.T.T.T.T.T.T.T.T.T.T.T.T.T.T.T.    N i.8.8.8.8.8.s.Y.+.+.+.+.+.+.+.+.+.+.+.+.+.K.7     T.T.T.T.T.T.T.T.T.T.T.T.T.T.T.",
"T.T.T.T.T.T.T.T.T.T.T.T.T.T.T.T.    N o.f.8.8.8.k.+.+.+.+.+.+.+.+.+.+.+.+.o.+.+.Z     T.T.T.T.T.T.T.T.T.T.T.T.T.T.T.T.",
"T.T.T.T.T.T.T.T.T.T.T.T.T.T.T.T.    N +.Y.+.U.+.+.+.+.+.+.+.O.e.2.Y.+.F 4.o.+.+.N     T.T.T.T.T.T.T.T.T.T.T.T.T.T.T.T.",
"T.T.T.T.T.T.T.T.T.T.T.T.T.T.T.T.    N +.+.+.Y.+.+.+.+.+.+.+.O.3.8.U.U.w.8.V.+.+.N     T.T.T.T.T.T.T.T.T.T.T.T.T.T.T.T.",
"T.T.T.T.T.T.T.T.T.T.T.T.T.T.T.T.    N +.+.+.+.+.+.+.+.+.+.+.+.4.8.L.+.-.9.z.+.+.N     T.T.T.T.T.T.T.T.T.T.T.T.T.T.T.T.",
"T.T.T.T.T.T.T.T.T.T.T.T.T.T.T.T.    N +.+...v d n +.+.+.+.+.+.3.8.] Y.q.8.x.+.+.N     T.T.T.T.T.T.T.T.T.T.T.T.T.T.T.T.",
"T.T.T.T.T.T.T.T.T.T.T.T.T.T.T.T.    N +.+.s s x p f Y.+.+.+.+.-.1.+.+.r.8.~ +.+.N     T.T.T.T.T.T.T.T.T.T.T.T.T.T.T.T.",
"T.T.T.T.T.T.T.T.T.T.T.T.T.T.T.T.    N +.H p ..+.Q p [ O.+.+.+.R N.Y.+...l.+.+.+.N     T.T.T.T.T.T.T.T.T.T.T.T.T.T.T.T.",
"T.T.T.T.T.T.T.T.T.T.T.T.T.T.T.T.    N +.H p +.+...p W +.+.+.+.+.+.+.+.+.+.+.+.o.N     T.T.T.T.T.T.T.T.T.T.T.T.T.T.T.T.",
"T.T.T.T.T.T.T.T.T.T.T.T.T.T.T.T.    N +.H p +.+...p W +.+.+.+.o.+.+.+.+.+.+.+.o.N     T.T.T.T.T.T.T.T.T.T.T.T.T.T.T.T.",
"T.T.T.T.T.T.T.T.T.T.T.T.T.T.T.T.    y b g p b b v p z b b b b b b b b b b b b b y     T.T.T.T.T.T.T.T.T.T.T.T.T.T.T.T.",
"T.T.T.T.T.T.T.T.T.T.T.T.T.T.T.T.    r p p p p p p p p p p p p p p p p p p p p p r     T.T.T.T.T.T.T.T.T.T.T.T.T.T.T.T.",
"T.T.T.T.T.T.T.T.T.T.T.T.T.T.T.T.    r p p p p p p p p p p p p p p p p p p p p p e     T.T.T.T.T.T.T.T.T.T.T.T.T.T.T.T.",
"T.T.T.T.T.T.T.T.T.T.T.T.T.T.T.T.    w p p p p p p p p p p p p p p p p p p p p p >     T.T.T.T.T.T.T.T.T.T.T.T.T.T.T.T.",
"T.T.T.T.T.T.T.T.T.T.T.T.T.T.T.T.T.  X u p p p p p p p p p p p p p p p p p p p q     T.T.T.T.T.T.T.T.T.T.T.T.T.T.T.T.T.",
"T.T.T.T.T.T.T.T.T.T.T.T.T.T.T.T.T.                                                T.T.T.T.T.T.T.T.T.T.T.T.T.T.T.T.T.T.",
"T.T.T.T.T.T.T.T.T.T.T.T.T.T.T.T.T.T.                                            T.T.T.T.T.T.T.T.T.T.T.T.T.T.T.T.T.T.T.",
"T.T.T.T.T.T.T.T.T.T.T.T.T.T.T.T.T.T.T.T.T.T.T.T.T.T.T.T.T.T.T.T.T.T.T.T.T.T.T.T.T.T.T.T.T.T.T.T.T.T.T.T.T.T.T.T.T.T.T."
};
