/* XPM */
static char *_650217308687[] = {
/* columns rows colors chars-per-pixel */
"59 54 171 2 ",
"   c black",
".  c #010100",
"X  c #010101",
"o  c #050202",
"O  c #0E0505",
"+  c #13100A",
"@  c #13140A",
"#  c #19170D",
"$  c #17190C",
"%  c #292B15",
"&  c #2D3018",
"*  c #31351A",
"=  c #32361A",
"-  c #34381B",
";  c #4C1A1A",
":  c #521C1C",
">  c #622121",
",  c #792929",
"<  c #464B25",
"1  c #4B5127",
"2  c #51572A",
"3  c #555B2C",
"4  c #565C2D",
"5  c #636A34",
"6  c #6D7539",
"7  c #6E7639",
"8  c #747D3D",
"9  c #8E3030",
"0  c #9D3535",
"q  c #BD4040",
"w  c #EB5050",
"e  c #F05252",
"r  c #FB5656",
"t  c #FE5757",
"y  c #FF5757",
"u  c #FF5857",
"i  c #FF5957",
"p  c #FF5958",
"a  c #FF5A58",
"s  c #FF5B58",
"d  c #FF5C58",
"f  c #FF5D59",
"g  c #D07D57",
"h  c #FE635A",
"j  c #FE6A5C",
"k  c #FD6F5D",
"l  c #FD705D",
"z  c #FD715E",
"x  c #FC7A60",
"c  c #77803E",
"v  c #78813F",
"b  c #7A8340",
"n  c #C4C821",
"m  c #858F45",
"M  c #858F46",
"N  c #899448",
"B  c #8E984A",
"V  c #8E994A",
"C  c #AA995B",
"Z  c #AEBC5B",
"A  c #AFBC5B",
"S  c #898E6C",
"D  c #B4A260",
"F  c #B6A360",
"G  c #BAA866",
"H  c #DD865D",
"J  c #FC8764",
"K  c #FC8863",
"L  c #FC8964",
"P  c #FA9568",
"I  c #FA9969",
"U  c #F99F6B",
"Y  c #C5B067",
"T  c #CBB56A",
"R  c #F9A465",
"E  c #F9A06C",
"W  c #F9A56D",
"Q  c #B4C15E",
"!  c #B7C560",
"~  c #B8C660",
"^  c #C0CF65",
"/  c #D3C16E",
"(  c #C7D668",
")  c #CAD96A",
"_  c #CBDB6A",
"`  c #CCDC6B",
"'  c #CDDD6B",
"]  c #D1D46D",
"[  c #D8C171",
"{  c #D9C171",
"}  c #DCC573",
"|  c #DEC674",
" . c #C4D275",
".. c #CCDB73",
"X. c #E1C975",
"o. c #E3CB77",
"O. c #E6CE78",
"+. c #E8CF79",
"@. c #F6C076",
"#. c #F6C377",
"$. c #F5C879",
"%. c #F5C97A",
"&. c #F4CE7B",
"*. c #F4CF7B",
"=. c #EAD17A",
"-. c #EDD47C",
";. c #EBDF7B",
":. c #F0D67D",
">. c #F1D87E",
",. c #F3D87F",
"<. c #F3D97F",
"1. c #F3DA7F",
"2. c #F2DD7F",
"3. c #F2DF7F",
"4. c #D3E36E",
"5. c #D5E670",
"6. c #D3E27B",
"7. c #F1E475",
"8. c #F2E17E",
"9. c #F2E27E",
"0. c #F1E57E",
"q. c #F1E67E",
"w. c #F0EA7E",
"e. c #F0EC7E",
"r. c #F0ED7E",
"t. c #E9F77A",
"y. c #EFF17D",
"u. c #EFF57D",
"i. c #E9FB7A",
"p. c #EEF97D",
"a. c #EEFA7C",
"s. c #EEFB7C",
"d. c #EEFA7D",
"f. c #ECFE7C",
"g. c #EDFE7C",
"h. c #EDFF7C",
"j. c #5C9F9C",
"k. c #628E85",
"l. c #749180",
"z. c #629C96",
"x. c #78A395",
"c. c #61B5B5",
"v. c #64BBBB",
"b. c #6DD0D0",
"n. c #73DADA",
"m. c #74DDDD",
"M. c #77E3E3",
"N. c #7CEBEB",
"B. c #7FF2F2",
"V. c #8A9B80",
"C. c #B2B2A9",
"Z. c #CBD591",
"A. c #CBD498",
"S. c #C2C9A0",
"D. c #CED6A9",
"F. c #D4DEA0",
"G. c #D6E0A0",
"H. c #83FAFA",
"J. c #84FBFB",
"K. c #D5D5D4",
"L. c #DADBD7",
"P. c #DDDDDD",
"I. c #DFE1D3",
"U. c #E2E4DA",
"Y. c #EBEBE9",
"T. c #EBECE9",
"R. c gray95",
"E. c gray96",
"W. c #F9F9F9",
"Q. c white",
"!. c None",
/* pixels */
"!.!.!.!.!.!.!.!.!.!.!.!.!.!.!.!.!.!.!.!.!.!.!.!.!.!.!.!.!.!.!.!.!.!.!.!.!.!.!.!.!.!.!.!.!.!.!.!.!.!.!.!.!.!.!.!.!.!.!.",
"!.!.!.!.!.!.!.!.!.!.!.!.!.!.!.!.!.!.!.!.!.!.!.!.!.!.!.!.!.!.!.!.!.!.!.!.!.!.!.!.!.!.!.!.!.!.!.!.!.!.!.!.!.!.!.!.!.!.!.",
"!.!.!.!.!.!.!.!.!.!.!.!.!.!.!.!.!.!.!.!.!.!.!.!.!.!.!.!.!.!.!.!.!.!.!.!.!.!.!.!.!.!.!.!.!.!.!.!.!.!.!.!.!.!.!.!.!.!.!.",
"!.!.!.!.!.!.!.!.!.!.!.!.!.!.!.!.!.!.!.!.!.!.!.!.!.!.!.!.!.!.!.!.!.!.!.!.!.!.!.!.!.!.!.!.!.!.!.!.!.!.!.!.!.!.!.!.!.!.!.",
"!.!.!.!.!.!.!.!.!.!.!.!.!.!.!.!.!.!.!.!.!.!.!.!.!.!.!.!.!.!.!.!.!.!.!.!.!.!.!.!.!.!.!.!.!.!.!.!.!.!.!.!.!.!.!.!.!.!.!.",
"!.!.!.!.!.!.!.!.!.!.!.!.!.!.!.!.!.!.!.!.!.!.!.!.!.!.!.!.!.!.!.!.!.!.!.!.!.!.!.!.!.!.!.!.!.!.!.!.!.!.!.!.!.!.!.!.!.!.!.",
"!.!.!.!.!.!.!.!.!.!.!.!.!.!.!.!.!.!.!.!.!.!.!.!.!.!.!.!.!.!.!.!.!.!.!.!.!.!.!.!.!.!.!.!.!.!.!.!.!.!.!.!.!.!.!.!.!.!.!.",
"!.!.!.!.!.!.!.!.!.!.!.!.!.!.!.!.!.!.!.!.!.!.!.!.!.!.!.!.!.!.!.!.!.!.!.!.!.!.!.!.!.!.!.!.!.!.!.!.!.!.!.!.!.!.!.!.!.!.!.",
"!.!.!.!.!.!.!.!.!.!.!.!.!.!.!.!.!.!.!.!.!.!.!.!.!.!.!.!.!.!.!.!.!.!.!.!.!.!.!.!.!.!.!.!.!.!.!.!.!.!.!.!.!.!.!.!.!.!.!.",
"!.!.!.!.!.!.!.!.!.!.!.!.!.!.!.!.!.!.!.!.!.!.!.!.!.!.!.!.!.!.!.!.!.!.!.!.!.!.!.!.!.!.!.!.!.!.!.!.!.!.!.!.!.!.!.!.!.!.!.",
"!.!.!.!.!.!.!.!.!.!.!.!.!.!.!.!.!.!.!.!.!.!.!.!.!.!.!.!.!.!.!.!.!.!.!.!.!.!.!.!.!.!.!.!.!.!.!.!.!.!.!.!.!.!.!.!.!.!.!.",
"!.!.!.!.!.!.!.!.!.!.!.!.!.!.!.!.!.!.!.!.!.!.!.!.!.!.!.!.!.!.!.!.!.!.!.!.!.!.!.!.!.!.!.!.!.!.!.!.!.!.!.!.!.!.!.!.!.!.!.",
"!.!.!.!.!.!.!.!.!.!.!.!.!.!.!.!.!.!.!.!.!.!.!.!.!.!.!.!.!.!.!.!.!.!.!.!.!.!.!.!.!.!.!.!.!.!.!.!.!.!.!.!.!.!.!.!.!.!.!.",
"!.!.!.!.!.!.!.!.!.!.!.!.!.!.!.!.!.!.!.!.!.!.!.!.!.!.!.!.!.!.!.!.!.!.!.!.!.!.!.!.!.!.!.!.!.!.!.!.!.!.!.!.!.!.!.!.!.!.!.",
"!.!.!.!.!.!.!.!.!.!.!.!.!.!.!.!.!.!.!.!.!.!.!.!.!.!.!.!.!.!.!.!.!.!.!.!.!.!.!.!.!.!.!.!.!.!.!.!.!.!.!.!.!.!.!.!.!.!.!.",
"!.!.!.!.!.!.!.!.!.!.!.!.!.!.!.!.!.!.!.!.!.!.!.!.!.!.!.!.!.!.!.!.!.!.!.!.!.!.!.!.!.!.!.!.!.!.!.!.!.!.!.!.!.!.!.!.!.!.!.",
"!.!.!.!.!.!.!.!.!.!.!.!.!.!.!.!.!.!.!.!.!.!.!.!.!.!.!.!.!.!.!.!.!.!.!.!.!.!.!.!.!.!.!.!.!.!.!.!.!.!.!.!.!.!.!.!.!.!.!.",
"!.!.!.!.!.!.!.!.!.!.!.!.!.!.!.!.!.!.!.!.!.!.!.!.!.!.!.!.!.!.!.!.!.!.!.!.!.!.!.!.!.!.!.!.!.!.!.!.!.!.!.!.!.!.!.!.!.!.!.",
"!.!.!.!.!.!.!.!.!.!.!.!.!.!.!.!.!.!.!.!.!.!.!.!.!.              !.!.!.!.!.!.!.!.!.!.!.!.!.!.!.!.!.!.!.!.!.!.!.!.!.!.!.",
"!.!.!.!.!.!.!.!.!.!.!.!.!.!.!.!.!.!.!.!.!.!.                          !.!.!.!.!.!.!.!.!.!.!.!.!.!.!.!.!.!.!.!.!.!.!.!.",
"!.!.!.!.!.!.!.!.!.!.!.!.!.!.!.!.!.!.!.!.          1 B A ~ A B 2           !.!.!.!.!.!.!.!.!.!.!.!.!.!.!.!.!.!.!.!.!.!.",
"!.!.!.!.!.!.!.!.!.!.!.!.!.!.!.!.!.!.!.      2 ) h.h.h.h.h.h.h.h.h.' 4       !.!.!.!.!.!.!.!.!.!.!.!.!.!.!.!.!.!.!.!.!.",
"!.!.!.!.!.!.!.!.!.!.!.!.!.!.!.!.!.      & 4.h.h.h.h.h.h.h.h.h.h.h.h.h.5.-     !.!.!.!.!.!.!.!.!.!.!.!.!.!.!.!.!.!.!.!.",
"!.!.!.!.!.!.!.!.!.!.!.!.!.!.!.!.!.    8 h.h.h.h.h.h.h.h.h.h.h.h.h.h.h.h.h.b     !.!.!.!.!.!.!.!.!.!.!.!.!.!.!.!.!.!.!.",
"!.!.!.!.!.!.!.!.!.!.!.!.!.!.!.!.    N h.h.h.h.h.h.h.h.h.h.h.h.h.h.h.h.h.h.h.B     !.!.!.!.!.!.!.!.!.!.!.!.!.!.!.!.!.!.",
"!.!.!.!.!.!.!.!.!.!.!.!.!.!.!.    7 h.h.h.h.h.h.h.h.h.h.h.h.h.h.h.h.h.h.h.h.h.8     !.!.!.!.!.!.!.!.!.!.!.!.!.!.!.!.!.",
"!.!.!.!.!.!.!.!.!.!.!.!.!.!.    $ h.h.h.h.h.h.h.h.h.h.h.h.h.h.h.h.h.h.h.h.h.h.h.%     !.!.!.!.!.!.!.!.!.!.!.!.!.!.!.!.",
"!.!.!.!.!.!.!.!.!.!.!.!.!.!.    ( h.h.h.h.h.h.h.h.h.h.h.h.h.h.h.h.h.h.h.h.h.h.h.`     !.!.!.!.!.!.!.!.!.!.!.!.!.!.!.!.",
"!.!.!.!.!.!.!.!.!.!.!.!.!.    = h.h.h.h.h.h.h.h.h.h.h.h.h.h.h.h.h.h.h.h.h.h.h.h.h.<   !.!.!.!.!.!.!.!.!.!.!.!.!.!.!.!.",
"!.!.!.!.!.!.!.!.!.!.!.!.!.    Q h.h.h.h.h.h.h.h.h.h.h.h.h.h.h.h.h.h.h.h.h.h.h.h.h.^     !.!.!.!.!.!.!.!.!.!.!.!.!.!.!.",
"!.!.!.!.!.!.!.!.!.!.!.!.!.    i.h.h.h.h.h.h.h.h.h.h.h.h.h.h.h.h.h.h.h.h.h.h.h.h.h.h.    !.!.!.!.!.!.!.!.!.!.!.!.!.!.!.",
"!.!.!.!.!.!.!.!.!.!.!.!.!.    h.h.h.h.h.h.h.h.h.h.h.h.h.h.h.h.h.h.h.h.h.h.h.h.h.h.h.@   !.!.!.!.!.!.!.!.!.!.!.!.!.!.!.",
"!.!.!.!.!.!.!.!.!.!.!.!.!.  4 h.h.h.h.h.h.h.h.Z. .U.F.h.h.h.h.h.h.h.h.h.h.h.h.h.h.h.5   !.!.!.!.!.!.!.!.!.!.!.!.!.!.!.",
"!.!.!.!.!.!.!.!.!.!.!.!.!.  m h.h.h.h.h.h.h.h.Z.W.K.Y.h.h.h.h.h.h.h.h.h.h.h.h.h.h.h.m   !.!.!.!.!.!.!.!.!.!.!.!.!.!.!.",
"!.!.!.!.!.!.!.!.!.!.!.!.    m h.h.h.h.h.h.h.6.Q.C.n E.L.h.h.h.h.s.s.a.a.h.h.h.h.h.h.m   !.!.!.!.!.!.!.!.!.!.!.!.!.!.!.",
"!.!.!.!.!.!.!.!.!.!.!.!.    m h.h.h.h.h.h.h.h.D.R.P.Y.h.h.h.h.h.s.7.*.G.3.u.h.h.h.h.m o !.!.!.!.!.!.!.!.!.!.!.!.!.!.!.",
"!.!.!.!.!.!.!.!.!.!.!.!.    m h.h.h.h.h.h.h.h.S...I.F.h.a.] ;.:.*.1.1.1.} -.<.<.G.h.m   !.!.!.!.!.!.!.!.!.!.!.!.!.!.!.",
"!.!.!.!.!.!.!.!.!.!.!.!.    m h.h.h.h.h.h.h.h.h.h.h.h.h.8.{ + l.v.1.1.F N.# X.1.7.h.m   !.!.!.!.!.!.!.!.!.!.!.!.!.!.!.",
"!.!.!.!.!.!.!.!.!.!.!.!.    m h.h.h.h.h.h.h.h.h.h.h.h.h.<.<.=.b.H.*.2.x.H.T 1.1.7.s.m   !.!.!.!.!.!.!.!.!.!.!.!.!.!.!.",
"!.!.!.!.!.!.!.!.!.!.!.!.    m h.h.h.h.h.h.h.h.h.h.h.h.0.<.<.<.m.H.{ 2.z.H.C 1.1.7.s.=   !.!.!.!.!.!.!.!.!.!.!.!.!.!.!.",
"!.!.!.!.!.!.!.!.!.!.!.!.    m h.s.s.s.h.h.h.h.h.h.h.y.<.<.<.<.n.J.+.9.z.H.F 1.1.e.'     !.!.!.!.!.!.!.!.!.!.!.!.!.!.!.",
"!.!.!.!.!.!.!.!.!.!.!.!.    m h.s.s.s.h.h.h.h.h.h.w.<.<.<.<.<.c.M.<.2.S H.} *.1./ O     !.!.!.!.!.!.!.!.!.!.!.!.!.!.!.",
"!.!.!.!.!.!.!.!.!.!.!.!.    m h.s.s.s.s.h.h.7.R u j <.<.<.<.<.G S <.1.#.b G.1.1.Y     !.!.!.!.!.!.!.!.!.!.!.!.!.!.!.!.",
"!.!.!.!.!.!.!.!.!.!.!.!.    m h.s.s.s.7.1.K i *.$.y U <.<.<.<.<.<.<.1.1.1.G.*.G.Y o   !.!.!.!.!.!.!.!.!.!.!.!.!.!.!.!.",
"!.!.!.!.!.!.!.!.!.!.!.!.    v ! 7   Y 1.<.f P <.<.K z <.<.<.$.@.#.<.<.<.$.@.#.:.Y     !.!.!.!.!.!.!.!.!.!.!.!.!.!.!.!.",
"!.!.!.!.!.!.!.!.!.!.!.!.            Y Z.<.s I <.<.L k <.&.f y y u u W d y y s y g     !.!.!.!.!.!.!.!.!.!.!.!.!.!.!.!.",
"!.!.!.!.!.!.!.!.!.!.!.!.          O H U U s x E U z h E u y y y y y y y y y y y y >   !.!.!.!.!.!.!.!.!.!.!.!.!.!.!.!.",
"!.!.!.!.!.!.!.!.!.!.!.!.        9 y y y y y y y y y y y y y y y y y y y y y y y y 0     !.!.!.!.!.!.!.!.!.!.!.!.!.!.!.",
"!.!.!.!.!.!.!.!.!.!.!.      ; w y y y y y y y y y y y y y y y y y y y y y y y y y :   !.!.!.!.!.!.!.!.!.!.!.!.!.!.!.!.",
"!.!.!.!.!.!.!.!.!.      o q y y y y y y y y y y y y y y y y y y y y y y y y y y e     !.!.!.!.!.!.!.!.!.!.!.!.!.!.!.!.",
"!.!.!.!.!.!.!.        , r y y y y y y y y y y y y y y y y y y y y y y y y y y y y     !.!.!.!.!.!.!.!.!.!.!.!.!.!.!.!.",
"!.!.!.!.!.!.                                                                          !.!.!.!.!.!.!.!.!.!.!.!.!.!.!.!.",
"!.!.!.!.                                                                              !.!.!.!.!.!.!.!.!.!.!.!.!.!.!.!.",
"!.!.!.!.!.!.!.!.!.!.!.!.!.!.!.!.!.!.!.!.!.!.!.!.!.!.!.!.!.!.!.!.!.!.!.!.!.!.!.!.!.!.!.!.!.!.!.!.!.!.!.!.!.!.!.!.!.!.!."
};
