/* XPM */
static char *_651344121564[] = {
/* columns rows colors chars-per-pixel */
"35 60 191 2 ",
"   c black",
".  c #0D0A09",
"X  c #1A1B18",
"o  c #32261F",
"O  c #2A2B23",
"+  c #203035",
"@  c #3B3428",
"#  c #643216",
"$  c #46372C",
"%  c #5D3537",
"&  c #663F2A",
"*  c #784A13",
"=  c #40422C",
"-  c #4A4E34",
";  c #5A4437",
":  c #525431",
">  c #6E432E",
",  c #76452B",
"<  c #784632",
"1  c #6A503F",
"2  c #724D38",
"3  c #5C623A",
"4  c #7F6D29",
"5  c #282D56",
"6  c #343456",
"7  c #2C334E",
"8  c #353967",
"9  c #3B3F71",
"0  c #4F3D51",
"q  c #26444C",
"w  c #294954",
"e  c #2C5360",
"r  c #325C6A",
"t  c #3C447A",
"y  c #35616F",
"u  c #3B6877",
"i  c #7A5C49",
"p  c #6E4E47",
"a  c #7D674E",
"s  c #5A536C",
"d  c #464677",
"f  c #4D507D",
"g  c #505078",
"h  c #645C70",
"j  c #655966",
"k  c #406268",
"l  c #446F7B",
"z  c #46717E",
"x  c #5E7174",
"c  c #547571",
"v  c #5D6C6C",
"b  c #6E7574",
"n  c #855313",
"m  c #8D5B12",
"M  c #9A670F",
"N  c #976613",
"B  c #9C7117",
"V  c #A77813",
"C  c #B87911",
"Z  c #8F5920",
"A  c #88573B",
"S  c #8F513A",
"D  c #986E25",
"F  c #A57B26",
"G  c #CC6F26",
"H  c #C43043",
"J  c #8F5F49",
"K  c #9F5941",
"L  c #A45C44",
"P  c #A95E46",
"I  c #937154",
"U  c #AA654A",
"Y  c #AD6B4F",
"T  c #B87F40",
"R  c #AE6D51",
"E  c #B37456",
"W  c #BA7C5D",
"Q  c #B7785A",
"!  c #AF6D52",
"~  c #A75472",
"^  c #907B64",
"/  c #A66662",
"(  c #C05E4A",
")  c #C3775B",
"_  c #C46951",
"`  c #7E9D7F",
"'  c #6C8B74",
"]  c #AF831E",
"[  c #B1841E",
"{  c #BE8221",
"}  c #B08133",
"|  c #D49B17",
" . c #D69D0A",
".. c #E8960C",
"X. c #DEAC14",
"o. c #E3B011",
"O. c #EBB107",
"+. c #C38328",
"@. c #D4942F",
"#. c #D3A33E",
"$. c #E8B731",
"%. c #E1AB28",
"&. c #FEC601",
"*. c #FFC802",
"=. c #FECA0D",
"-. c #FECD1B",
";. c #FDCF26",
":. c #FBD63E",
">. c #A4835D",
",. c #809C6D",
"<. c #9E8A71",
"1. c #9F8E6B",
"2. c #A78965",
"3. c #B58462",
"4. c #BC8462",
"5. c #BA8966",
"6. c #AF9269",
"7. c #B5946B",
"8. c #BEA478",
"9. c #C69B4A",
"0. c #D8AD41",
"q. c #C28E6A",
"w. c #C28161",
"e. c #C5946F",
"r. c #C69771",
"t. c #C79972",
"y. c #C99B74",
"u. c #CEA37B",
"i. c #CBA177",
"p. c #D1A87E",
"a. c #D0A67D",
"s. c #F6D84E",
"d. c #424A84",
"f. c #494E85",
"g. c #444E8B",
"h. c #4B528C",
"j. c #46508F",
"k. c #50518F",
"l. c #475290",
"z. c #4E599E",
"x. c #4C5697",
"c. c #565F9E",
"v. c #685B97",
"b. c #755A90",
"n. c #587090",
"m. c #7C669E",
"M. c #4F5AA0",
"N. c #515CA4",
"B. c #585EA7",
"V. c #715FA3",
"C. c #5661A6",
"Z. c #5C64A9",
"A. c #5862A7",
"S. c #646AAD",
"D. c #7667AB",
"F. c #6771AF",
"G. c #7A69B4",
"H. c #6F79B3",
"J. c #6D76B1",
"K. c #747EB6",
"L. c #806E97",
"P. c #896FBD",
"I. c #836CB8",
"U. c #8B74BD",
"Y. c #907CBE",
"T. c #8975A9",
"R. c #E47481",
"E. c #9078C1",
"W. c #6D9184",
"Q. c #7C84BA",
"!. c #848CBD",
"~. c #CDA880",
"^. c #D3AC82",
"/. c #D9B58A",
"(. c #DBBA8E",
"). c #D4B186",
"_. c #DFBD91",
"`. c #E0BE92",
"'. c #DEC294",
"]. c #E2C396",
"[. c #E6C99B",
"{. c #E9CC9E",
"}. c #E5C699",
"|. c #EBCFA0",
" X c #EDD3A3",
".X c #F0D8A8",
"XX c #9B9EC7",
"oX c #A18DC9",
"OX c #A392CC",
"+X c #A9AACE",
"@X c None",
/* pixels */
"@X@X@X@X@X@X@X@X@X@X@X@X@X@X@X@X@X@X@X@X@X@X@X@X@X@X@X@X@X@X@X@X@X@X@X",
"@X@X@X@X@X@X@X@X@X@X@X@X@X@X@X@X@X@X@X@X@X@X@X@X@X@X@X@X@X@X@X@X@X@X@X",
"@X@X@X@X@X@X@X@X@X@X@X@X@X@X@X@X@X@X@X@X@X@X@X@X@X@X@X@X@X@X@X@X@X@X@X",
"@X@X@X@X@X@X@X@X@X@X@X@X@X@X@X@X@X@X@X@X@X@X@X@X@X@X@X@X@X@X@X@X@X@X@X",
"@X@X@X@X@X@X@X@X@X@X@X@X@X@X@X@X@X@X@X@X@X@X@X@X@X@X@X@X@X@X@X@X@X@X@X",
"@X@X@X@X@X@X@X@X@X@X@X@X@X@X@X@X@X@X@X@X@X@X@X@X@X@X@X@X@X@X@X@X@X@X@X",
"@X@X@X@X@X@X@X@X@X@X@X@X@X@X@X@X@X@X@X@X@X@X@X@X@X@X@X@X@X@X@X@X@X@X@X",
"@X@X@X@X@X@X@X@X@X@X@X@X@X@X@X@X@X@X@X@X@X@X@X@X@X@X@X@X@X@X@X@X@X@X@X",
"@X@X@X@X@X@X@X@X@X@X@X@X@X@X@X@X@X@X@X@X@X@X@X@X@X@X@X@X@X@X@X@X@X@X@X",
"@X@X@X@X@X@X@X@X@X@X@X@X@X@X@X@X@X@X@X@X@X@X@X@X@X@X@X@X@X@X@X@X@X@X@X",
"@X@X@X@X@X@X@X@X@X@X@X@X@X@X@X@X@X@X@X@X@X@X@X@X@X@X@X@X@X@X@X@X@X@X@X",
"@X@X@X@X@X@X@X@X@X@X@X@X@X@X@X@X@X@X@X@X@X@X@X@X@X@X@X@X@X@X@X@X@X@X@X",
"@X@X@X@X@X@X@X@X@X@X@X@X@X@X@X@X@X@X@X@X@X@X@X@X@X@X@X@X@X@X@X@X@X@X@X",
"@X@X@X@X@X@X@X@X@X@X@X@X@X@X@X@X@X@X@X@X@X@X@X@X@X@X@X@X@X@X@X@X@X@X@X",
"@X@X@X@X@X@X@X@X@X@X@X@X@X@X@X@X@X@X@X@X@X@X@X@X@X@X@X@X@X@X@X@X@X@X@X",
"@X@X@X@X@X@X@X@X@X@X@X@X@X@X@X@X@X@X@X@X@X@X@X@X@X@X@X@X@X@X@X@X@X@X@X",
"@X@X@X@X@X@X@X@X@X@X@X@X@X@X@X@X@X@X@X@X@X@X@X@X@X@X@X@X@X@X@X@X@X@X@X",
"@X@X@X@X@X@X@X@X@X@X@X@X@X@X@X@X@X@X@X@X@X@X@X@X@X@X@X@X@X@X@X@X@X@X@X",
"@X@X@X@X@X@X@X@X@X@X@X@X@X@X@X@X@X< @X% @X@X@X@X@X@X@X@X@X@X@X@X@X@X@X",
"@X@X@X@X@X@X@X@X@X@X@X@X@X@.N N V M B N , +.@X@X@X@X@X@X@X@X@X@X@X@X@X",
"@X@X@X@X@X@X@X@X@X@X@X@X@X..m o.=.* =.O.n ..@X@X@X@X@X@X@X@X@X@X@X@X@X",
"@X@X@X@X@X@X@X@X@X@X@X@X@X@X* n V n N n * # @X@X@X@X@X@X@X@X@X@X@X@X@X",
"@X@X@X@X@X@X@X@X@X@X@X@X@X@X{ #.$.*  .O.| @X@X@X@X@X@X@X@X@X@X@X@X@X@X",
"@X@X@X@X@X@X@X@X@X@X@X@Xk.v.$.s.:.&.&.&.$.m.v.@X@X@X@X@X@X@X@X@X@X@X@X",
"@X@X@X@X@X@X@X@X@X@X9 D.OXT.| ;.-.&.&.&.X.b.P.G.d @X@X@X@X@X@X@X@X@X@X",
"@X@X@X@X@X@X@X@X@Xd U.OXE.oXm.A { [ F i b.I.P.E.I.d @X@X@X@X@X@X@X@X@X",
"@X@X@X@X@X@X@X@X8 E.OXF.XXK.N.M.M.M.M.M.N.B.S.G.I.G.@X@X@X@X@X@X@X@X@X",
"@X@X@X@X@X@X@X@XD.+XB.Q.!.N.N.N.M.M.N.N.N.N.N.N.B.G.V.@X@X@X@X@X@X@X@X",
"@X@X@X@X@X@X@Xt XXF.C.Q.C.N.N.N.N.N.N.N.M.M.N.C.N.N.S.d @X@X@X@X@X@X@X",
"@X@X@X@X@X@X@XC.!.N.H.H.N.N.N.N.N.N.N.N.M.z.s l.N.N.N.l.@X@X@X@X@X@X@X",
"@X@X@X@X@X@X8 J.Q.N.Q.C.N.N.N.N.N.N.N.N.l.<.].6.f.N.N.N.8 @X@X@X@X@X@X",
"@X@X@X@X@X@Xt Q.S.S.Q.N.N.N.N.N.N.C.M.s i..X X|.6.g.N.N.t @X@X@X@X@X@X",
"@X@X@X@X@X@Xd.!.A.Q.Z.C.M.N.N.N.z.g 2.]..X.X X'.].2.l.M.g.@X@X@X@X@X@X",
"@X@X@X@X@X@Xl.Q.C.J.M.C.N.N.z.g ^ ]..X.X X|.).6.2./.I M.z.@X@X@X@X@X@X",
"@X@X@X@X@X@Xc.Z.F.C.M.M.h.j 6.(.|. X X{.|.|.}.].(.u.y.g N.l.@X@X@X@X@X",
"@X@X@X@X@Xt f.f.f.d 6 ; 7.'.}.[.[.{.{.[.}.].(.^ a ; t.3.8 @X@X@X@X@X@X",
"@X@X@X@X@X@X6 U 4.5.b . 6.(._.'.}.}.}.`.`.(.^ X @ t.q.R 5 @X@X@X@X@X@X",
"@X@X@X@X@X@X5 J 4.w.$ @ 2.p.).)././././.).^.i o p q.4.p @X@X@X@X@X@X@X",
"@X@X@X@X@X@X@X0 R W 4.4.r.y.u.u.p.p.p.p.u.y.t.4.5.3.Y 7 @X@X@X@X@X@X@X",
"@X@X@X@X@X@X@X5 < Y E ) ) q.e.r.r.y.t.r.e.e.w.) Q Y % 7 @X@X@X@X@X@X@X",
"@X@X@X@X@X@X@X@X@XA P ( _ Q w.4.! ~ / 5.3.W _ ! U > @X@X@X@X@X@X@X@X@X",
"@X@X@X@X@X@X@X@X@X@X> K P U R E E E ! E R U U S > @X@X@X@X@X@X@X@X@X@X",
"@X@X@X@X@X@X@X@X@X@X@X@X& S L L U U L L L A ; @X@X@X@X@X@X@X@X@X@X@X@X",
"@X@X@X@X@X@X@X@X@X@X@X@Xr u i m v x c A D h.u @X@X@X@X@X@X@X@X@X@X@X@X",
"@X@X@X@X@X@X@X@X@X@X@X@Xr u n.F #.2.9.@.c u y 7 @X@X@X@X@X@X@X@X@X@X@X",
"@X@X@X@X@X@X@X@X@X@X@X@Xw r n.W.>.R.+.` ' y e @X@X@X@X@X@X@X@X@X@X@X@X",
"@X@X@X@X@X@X@X@X@X@X@X@X@X7 y ' C H G ,.l q + @X@X@X@X@X@X@X@X@X@X@X@X",
"@X@X@X@X@X@X@X@X@X@X@X@X@X  X - D C D 3 O   @X@X@X@X@X@X@X@X@X@X@X@X@X",
"@X@X@X@X@X@X@X@X@X@X@X@X@X@X@XO = : : @ X @X@X@X@X@X@X@X@X@X@X@X@X@X@X",
"@X@X@X@X@X@X@X@X@X@X@X@X@X@X@X@X@X@X@X@X@X@X@X@X@X@X@X@X@X@X@X@X@X@X@X",
"@X@X@X@X@X@X@X@X@X@X@X@X@X@X@X@X@X@X@X@X@X@X@X@X@X@X@X@X@X@X@X@X@X@X@X",
"@X@X@X@X@X@X@X@X@X@X@X@X@X@X@X@X@X@X@X@X@X@X@X@X@X@X@X@X@X@X@X@X@X@X@X",
"@X@X@X@X@X@X@X@X@X@X@X@X@X@X@X@X@X@X@X@X@X@X@X@X@X@X@X@X@X@X@X@X@X@X@X",
"@X@X@X@X@X@X@X@X@X@X@X@X@X@X@X@X@X@X@X@X@X@X@X@X@X@X@X@X@X@X@X@X@X@X@X",
"@X@X@X@X@X@X@X@X@X@X@X@X@X@X@X@X@X@X@X@X@X@X@X@X@X@X@X@X@X@X@X@X@X@X@X",
"@X@X@X@X@X@X@X@X@X@X@X@X@X@X@X@X@X@X@X@X@X@X@X@X@X@X@X@X@X@X@X@X@X@X@X",
"@X@X@X@X@X@X@X@X@X@X@X@X@X@X@X@X@X@X@X@X@X@X@X@X@X@X@X@X@X@X@X@X@X@X@X",
"@X@X@X@X@X@X@X@X@X@X@X@X@X@X@X@X@X@X@X@X@X@X@X@X@X@X@X@X@X@X@X@X@X@X@X",
"@X@X@X@X@X@X@X@X@X@X@X@X@X@X@X@X@X@X@X@X@X@X@X@X@X@X@X@X@X@X@X@X@X@X@X",
"@X@X@X@X@X@X@X@X@X@X@X@X@X@X@X@X@X@X@X@X@X@X@X@X@X@X@X@X@X@X@X@X@X@X@X"
};
