/* XPM */
static char *_650217316275[] = {
/* columns rows colors chars-per-pixel */
"59 50 70 1 ",
"  c black",
". c gray14",
"X c gray21",
"o c #373737",
"O c #345429",
"+ c #36572B",
"@ c #426A34",
"# c #487339",
"$ c #464646",
"% c #518240",
"& c #558843",
"* c #578C45",
"= c #5B9347",
"- c #5B9148",
"; c #5B9149",
": c #5A9248",
"> c #5B9248",
", c #5B9348",
"< c #5B9249",
"1 c #5B9349",
"2 c #5C9248",
"3 c #5C9348",
"4 c #5C9449",
"5 c #5D9549",
"6 c #5D964A",
"7 c #5E974A",
"8 c #5E974B",
"9 c #5F984B",
"0 c #5F994B",
"q c #5F994C",
"w c #619B4C",
"e c #629C4D",
"r c #629E4E",
"t c #639E4E",
"y c #64A04F",
"u c #65A250",
"i c #68A752",
"p c #69A853",
"a c #69A953",
"s c #6DAF56",
"d c #71B559",
"f c #73B95B",
"g c #78C05E",
"h c #78C05F",
"j c #80CD66",
"k c #81CF66",
"l c #82D067",
"z c #82D167",
"x c #85D569",
"c c #86D76A",
"v c #87D96C",
"b c #8ADE6D",
"n c #8CE06F",
"m c #90E175",
"M c #90E275",
"N c #96E37D",
"B c #98E47F",
"V c gray59",
"C c #9A9A9A",
"Z c gray67",
"A c gray69",
"S c #A1E58B",
"D c #A2E18D",
"F c #A6E692",
"G c #B4EBA4",
"H c #C2EEB2",
"J c #CBF1BE",
"K c #CEF1C1",
"L c #CEF2C2",
"P c None",
/* pixels */
"PPPPPPPPPPPPPPPPPPPPPPPPPPPPPPPPPPPPPPPPPPPPPPPPPPPPPPPPPPP",
"PPPPPPPPPPPPPPPPPPPPPPPPPPPPPPPPPPPPPPPPPPPPPPPPPPPPPPPPPPP",
"PPPPPPPPPPPPPPPPPPPPPPPPPPPPPPPPPPPPPPPPPPPPPPPPPPPPPPPPPPP",
"PPPPPPPPPPPPPPPPPPPPPPPPPPPPPPPPPPPPPPPPPPPPPPPPPPPPPPPPPPP",
"PPPPPPPPPPPPPPPPPPPPPPPPPPPPPPPPPPPPPPPPPPPPPPPPPPPPPPPPPPP",
"PPPPPPPPPPPPPPPPPPPPPPPPPPPPPPPPPPPPPPPPPPPPPPPPPPPPPPPPPPP",
"PPPPPPPPPPPPPPPPPPPPPPPPPPPPPPPPPPPPPPPPPPPPPPPPPPPPPPPPPPP",
"PPPPPPPPPPPPPPPPPPPPPPPPPPPPPPPPPPPPPPPPPPPPPPPPPPPPPPPPPPP",
"PPPPPPPPPPPPPPPPPPPPPPPPPPPPPPPPPPPPPPPPPPPPPPPPPPPPPPPPPPP",
"PPPPPPPPPPPPPPPPPPPPPPPPPPPPPPPPPPPPPPPPPPPPPPPPPPPPPPPPPPP",
"PPPPPPPPPPPPPPPPPPPPPPPPPPPPPPPPPPPPPPPPPPPPPPPPPPPPPPPPPPP",
"PPPPPPPPPPPPPPPPPPPPPPPPPPPPPPPPPPPPPPPPPPPPPPPPPPPPPPPPPPP",
"PPPPPPPPPPPPPPPPPPPPPPPPPPPPPPPPPPPPPPPPPPPPPPPPPPPPPPPPPPP",
"PPPPPPPPPPPPPPPPPPPPPPPPPPPPPPPPPPPPPPPPPPPPPPPPPPPPPPPPPPP",
"PPPPPPPPPPPPPPPPPPPPPPPPPPPPPPPPPPPPPPPPPPPPPPPPPPPPPPPPPPP",
"PPPPPPPPPPPPPPPPPPPPPPPPPPPPPPPPPPPPPPPPPPPPPPPPPPPPPPPPPPP",
"PPPPPPPPPPPPPPPPPPPPPPPPPPPPPPPPPPPPPPPPPPPPPPPPPPPPPPPPPPP",
"PPPPPPPPPPPPPPPPPPPPPPPPPPPPPPPPPPPPPPPPPPPPPPPPPPPPPPPPPPP",
"PPPPPPPPPPPPPPPPPPPPPPPPPPPPPPPPPPPPPPPPPPPPPPPPPPPPPPPPPPP",
"PPPPPPPPPPPPPPPPPPPPPPPPPPPPPPPPPPPPPPPPPPPPPPPPPPPPPPPPPPP",
"PPPPPPPPPPPPPPPPPPPPPPPPPPPPPPPPPPPPPPPPPPPPPPPPPPPPPPPPPPP",
"PPPPPPPPPPPPPPPPPPPPPPPPPPPPPPPPPPPPPPPPPPPPPPPPPPPPPPPPPPP",
"PPPPPPPPPPPPPPPPPPPPPPPPPPPPPPPPPPPPPPPPPPPPPPPPPPPPPPPPPPP",
"PPPPPPPPPPPPPPPPPPPPPPPPPPPPPPPPPPPPPPPPPPPPPPPPPPPPPPPPPPP",
"PPPPPPPPPPPPPPPPPPPPPPPPPPPPPPPPPPPPPPPPPPPPPPPPPPPPPPPPPPP",
"PPPPPPPPPPPPPPPPPPPPPPPPPPPPPPPPPPPPPPPPPPPPPPPPPPPPPPPPPPP",
"PPPPPPPPPPPPPPPPPPPPPPPPPPPPPPPPPPPPPPPPPPPPPPPPPPPPPPPPPPP",
"PPPPPPPPPPPPPPPPPPPPPPPPPPPPPPPPPPPPPPPPPPPPPPPPPPPPPPPPPPP",
"PPPPPPPPPPPPPPPPPPPPPPPPPPPPPPPPPPPPPPPPPPPPPPPPPPPPPPPPPPP",
"PPPPPPPPPPPPPPPPPPPPPPPPPPPPPPPPPPPPPPPPPPPPPPPPPPPPPPPPPPP",
"PPPPPPPPPPPPPPPPPPPPPPPPPPPPPPPPPPPPPPPPPPPPPPPPPPPPPPPPPPP",
"PPPPPPPPPPPPPPPPPPPPPPPPPPPPPPPPPPPPPPPPPPPPPPPPPPPPPPPPPPP",
"PPPPPPPPPPPPPPPPPPPPPPPPPPPP=4=PPPPPPPPPPPPPPPPPPPPPPPPPPPP",
"PPPPPPPPPPPPPPPPPPPPPPPPP>>>===4>4PPPPPPPPPPPPPPPPPPPPPPPPP",
"PPPPPPPPPPPPPPPPPPPPPPP>>>>easy6>>>PPPPPPPPPPPPPPPPPPPPPPPP",
"PPPPPPPPPPPPPPPPPPPPPP2>>dnHnnnnk8>>PPPPPPPPPPPPPPPPPPPPPPP",
"PPPPPPPPPPPPPPPPPPPPP>=8DKMnnnnnnna>>PPPPPPPPPPPPPPPPPPPPPP",
"PPPPPPPPPPPPPPPPPPPP>>>FLLnnnnnnnnna>>PPPPPPPPPPPPPPPPPPPPP",
"PPPPPPPPPPPPPPPPPPPP>>xLLNnnnMnnnnnn0>>PPPPPPPPPPPPPPPPPPPP",
"PPPPPPPPPPPPPPPPPPP>>inSNnnnnhCo@nnnx%C. PPPPPPPPPPPPPPPPPP",
"PPPPPPPPPPPPPPPPPPP>>bnGmnnnn#Z$ nnnn+AX PPPPPPPPPPPPPPPPPP",
"PPPPPPPPPPPPPPPPPPP>ennnnnnnnh  Onnnne   PPPPPPPPPPPPPPPPPP",
"PPPPPPPPPPPPPPPPPP>>fnnnnnnnnnvhnnnnnn*&PPPPPPPPPPPPPPPPPPP",
"PPPPPPPPPPPPPPPPPP>>xnnnnnnnnnnnnnnnnn8>PPPPPPPPPPPPPPPPPPP",
"PPPPPPPPPPPPPPPPPP>>nnnnnnnnnnnnnnnnnne>PPPPPPPPPPPPPPPPPPP",
"PPPPPPPPPPPPPPPPPP>>nnnnnnnnnnnnnnnnnne4PPPPPPPPPPPPPPPPPPP",
"PPPPPPPPPPPPPPPPPP>>ylbnnbnnnnnnnnnnla>>PPPPPPPPPPPPPPPPPPP",
"PPPPPPPPPPPPPPPPPPP>22>=8800qq0884>>>>>2PPPPPPPPPPPPPPPPPPP",
"PPPPPPPPPPPPPPPPPPPP>2>>>>>>>>>>=>>>>>PPPPPPPPPPPPPPPPPPPPP",
"PPPPPPPPPPPPPPPPPPPPPPPPPPPPPPPPPPPPPPPPPPPPPPPPPPPPPPPPPPP"
};
