/* XPM */
static char *_650217326390[] = {
/* columns rows colors chars-per-pixel */
"59 59 81 1 ",
"  c #5B5B5B",
". c gray36",
"X c #5D5D5D",
"o c gray37",
"O c #606060",
"+ c gray38",
"@ c #626262",
"# c gray39",
"$ c #646464",
"% c #656565",
"& c gray40",
"* c #676767",
"= c DimGray",
"- c gray42",
"; c #6F6F6F",
": c gray44",
"> c #727272",
", c gray45",
"< c #747474",
"1 c #767676",
"2 c #777777",
"3 c gray48",
"4 c #818181",
"5 c #838383",
"6 c #848484",
"7 c gray52",
"8 c gray53",
"9 c #898989",
"0 c gray54",
"q c gray56",
"w c gray57",
"e c gray59",
"r c #989898",
"t c gray60",
"y c #9A9A9A",
"u c #9F9F9F",
"i c #A4A4A4",
"p c #A9A9A9",
"a c #AAAAAA",
"s c #ACACAC",
"d c gray68",
"f c #AFAFAF",
"g c #B4B4B4",
"h c #B9B9B9",
"j c #BBBBBB",
"k c #BCBCBC",
"l c #C0C0C0",
"z c gray76",
"x c gray77",
"c c #CACACA",
"v c gray80",
"b c #CDCDCD",
"n c #D0D0D0",
"m c #D2D2D2",
"M c LightGray",
"N c #D5D5D5",
"B c #D7D7D7",
"V c gray85",
"C c #DADADA",
"Z c gainsboro",
"A c gray87",
"S c #DFDFDF",
"D c #E1E1E1",
"F c gray89",
"G c #E4E4E4",
"H c gray90",
"J c #E9E9E9",
"K c #ECECEC",
"L c #EEEEEE",
"P c #EFEFEF",
"I c gray96",
"U c #F6F6F6",
"Y c gray97",
"T c #F9F9F9",
"R c gray98",
"E c #FBFBFB",
"W c gray99",
"Q c #FDFDFD",
"! c #FEFEFE",
"~ c white",
"^ c None",
/* pixels */
"^^^^^^^^^^^^^^^^^^^^^^^^^^^^^^^^^^^^^^^^^^^^^^^^^^^^^^^^^^^",
"^^^^^^^^^^^^^^^^^^^^^^^^^^^^^^^^^^^^^^^^^^^^^^^^^^^^^^^^^^^",
"^^^^^^^^^^^^^^^^^^^^^^^^^^^^^^^^^^^^^^^^^^^^^^^^^^^^^^^^^^^",
"^^^^^^^^^^^^^^^^^^^^^^^^^^^^^^^^^^^^^^^^^^^^^^^^^^^^^^^^^^^",
"^^^^^^^^^^^^^^^^^^^^^^^^^^^^^^^^^^^^^^^^^^^^^^^^^^^^^^^^^^^",
"^^^^^^^^^^^^^^^^^^^^^^^^^^^^^^^^^^^^^^^^^^^^^^^^^^^^^^^^^^^",
"^^^^^^^^^^^^^^^^^^^^^^^^^^^^^^^^^^^^^^^^^^^^^^^^^^^^^^^^^^^",
"^^^^^^^^^^^^^^^^^^^^^^^^^^^^^^^^^^^^^^^^^^^^^^^^^^^^^^^^^^^",
"^^^^^^^^^^^^^^^^^^^^^^^^^^^^^^^^^^^^^^^^^^^^^^^^^^^^^^^^^^^",
"^^^^^^^^^^^^^^^^^^^^^^^^^^^^^^^^^^^^^^^^^^^^^^^^^^^^^^^^^^^",
"^^^^^^^^^^^^^^^^^^^^^^^^^^^^^^^^^^^^^^^^^^^^^^^^^^^^^^^^^^^",
"^^^^^^^^^^^^^^^^^^^^^^^^^^^^^^^^^^^^^^^^^^^^^^^^^^^^^^^^^^^",
"^^^^^^^^^^^^^^^^^^^^^^^^^^^^^^^^^^^^^^^^^^^^^^^^^^^^^^^^^^^",
"^^^^^^^^^^^^^^^^^^^^^^^^^^^^^^^^^^^^^^^^^^^^^^^^^^^^^^^^^^^",
"^^^^^^^^^^^^^^^^^^^^^^^^^^^^^^^^^^^^^^^^^^^^^^^^^^^^^^^^^^^",
"^^^^^^^^^^^^^^^^^^^^^^^^^^^^^^^^^^^^^^^^^^^^^^^^^^^^^^^^^^^",
"^^^^^^^^^^^^^^^^^^^^^^^^^^^^^^^^^^^^^^^^^^^^^^^^^^^^^^^^^^^",
"^^^^^^^^^^^^^^^^^^^^^^^^^^^^^^^^^^^^^^^^^^^^^^^^^^^^^^^^^^^",
"^^^^^^^^^^^^^^^^^^^^^^^^^^^^^^^^^^^^^^^^^^^^^^^^^^^^^^^^^^^",
"^^^^^^^^^^^^^^^^^^^^^^^^^^^^^^^^^^^^^^^^^^^^^^^^^^^^^^^^^^^",
"^^^^^^^^^^^^^^^^^^^^^^^^^^^^^^^^^^^^^^^^^^^^^^^^^^^^^^^^^^^",
"^^^^^^^^^^^^^^^^^^^^^^^^^^^^^^^^^^^^^^^^^^^^^^^^^^^^^^^^^^^",
"^^^^^^^^^^^^^^^^^^^^^^^^^^^^^^^^^^^^^^^^^^^^^^^^^^^^^^^^^^^",
"^^^^^^^^^^^.^^^^^^^^^^^^^^^^^.^^^^^^^^^^^^^^^^^.^^^^^^^^^^^",
"^^^^^^^^^^^.^^^^^^^^^^^^^^^^^.^^^^^^^^^^^^^^^^^.^^^^^^^^^^^",
"^^^^^^^^^^^..^^^^^^^^^^^^^^^^..^^^^^^^^^^^^^^^..^^^^^^^^^^^",
"^^^^^^^^^^...^^^^^^^^^^^^^^^...^^^^^^^^^^^^^^^...^^^^^^^^^^",
"^^^^^^^^^^...^^^^^^^^^^^^^^^...^^^^^^^^^^^^^^^...^^^^^^^^^^",
"^^^^^^^^^^... ^^^^^^^^^^^^^^....^^^^^^^^^^^^^....^^^^^^^^^^",
"^^^^^^^^^ ....^^^^^^^^^^^^^.....^^^^^^^^^^^^^.....^^^^^^^^^",
"^^^^^^^^^.....^^^^^^^^^^^^^.....^^^^^^^^^^^^^.....^^^^^^^^^",
"^^^^^^^^^......^^^^^^^^^^^^......^^^^^^^^^^^......^^^^^^^^^",
"^^^^^^^^.......^^^^^^^^^^^.......^^^^^^^^^^^.......^^^^^^^^",
"^^^^^^^^.......^^^^^^^^^^^.......^^^^^^^^^^^.......^^^^^^^^",
"^^^^^^^^........^^^^^^^^^^........^^^^^^^^^........^^^^^^^^",
"^^^^^^^.........^^^^^^^^^.........^^^^^^^^^.........^^^^^^^",
"^^^^^^^.........^^^^^^^^^.........^^^^^^^^^.........^^^^^^^",
"^^^^^^^..........^^^^^^^^..........^^^^^^^..........^^^^^^^",
"^^^^^^^..3.......^^^^^^^...+.......^^^^^^^..:.......^^^^^^^",
"^^^^^^...8.......^^^^^^^..8+.......^^^^^^^. f........^^^^^^",
"^^^^^^..w<........^^^^^^..c.........^^^^^...V........^^^^^^",
"^^^^^^..V=........^^^^^...P ........^^^^^..=B........^^^^^^",
"^^^^^...E+........^^^^^..:I ........^^^^^..az.........^^^^^",
"^^^^^..3Q..........^^^^..jG..........^^^...Pf.........^^^^^",
"^^^^^..bU..........^^^ ..UM .........^^^..+Qt  .......^^^^^",
"^^^^...EP..........^^^..&Qz..........^^^..uQ8 .........^^^^",
"^^^^..:QG...........^^..fQf...........^...GQ:..........^^^^",
"^^^^..jQM...........^...JQt...........^...QQ=..........^^^^",
"^^^...PQz ..........^..+QQ8...........^..9QQ............^^^",
"^^^..&QQg..............eQQ<............. MQQ............^^^",
"^^^..iQQt..............SQQ&..............QQU............^^^",
"^^ ..GQQ8..............EQQ .............<QQP.............^^",
"^^..+QQQ:.............4QQQ..............kQQS.............^^",
"^^..wQQQ+.............MQQE..............EQQB.............^^",
"^...DQQQ..............QQQP.............&QQQk..............^",
"^...QQQQ.............<QQQD.............gQQQa..............^",
"^..<SSSV.............iDSSk.............bSSS9..............^",
"........................ ............... .  ...............",
"..........................................................."
};
