/* XPM */
static char *_650217334603[] = {
/* columns rows colors chars-per-pixel */
"59 50 162 2 ",
"   c black",
".  c #010101",
"X  c #020202",
"o  c #040404",
"O  c gray3",
"+  c #090909",
"@  c gray4",
"#  c #0B0B0B",
"$  c gray6",
"%  c #111111",
"&  c gray7",
"*  c #131313",
"=  c gray8",
"-  c #151515",
";  c #161616",
":  c gray9",
">  c gray10",
",  c gray11",
"<  c #232323",
"1  c #272727",
"2  c #282828",
"3  c gray16",
"4  c #2A2A2A",
"5  c gray17",
"6  c #2C2C2C",
"7  c #313131",
"8  c gray20",
"9  c #343434",
"0  c gray21",
"q  c gray22",
"w  c #393939",
"e  c gray23",
"r  c #3C3C3C",
"t  c gray24",
"y  c #3F3D3D",
"u  c #3E3E3E",
"i  c #3F3F3F",
"p  c #541E1E",
"a  c #583C3C",
"s  c #652424",
"d  c #7D3737",
"f  c #7E3838",
"g  c #7D3C3C",
"h  c gray25",
"j  c gray26",
"k  c #434343",
"l  c gray27",
"z  c #464646",
"x  c #484848",
"c  c gray30",
"v  c gray31",
"b  c #535353",
"n  c gray33",
"m  c #555555",
"M  c #585858",
"N  c gray35",
"B  c #5A5A5A",
"V  c #5B5B5B",
"C  c #5D5A5A",
"Z  c #5C5B5B",
"A  c #685656",
"S  c #625959",
"D  c #795050",
"F  c DimGray",
"G  c gray42",
"H  c gray46",
"J  c gray47",
"K  c #7B7B7B",
"L  c #7C7C7C",
"P  c gray49",
"I  c gray50",
"U  c #8E3333",
"Y  c #9C3A3A",
"T  c #9E3B3B",
"R  c #A03939",
"E  c #A23939",
"W  c #C73939",
"Q  c #D13838",
"!  c #E63737",
"~  c #E83737",
"^  c #CA5151",
"/  c #C55F5F",
"(  c #C95959",
")  c #D15353",
"_  c #DA5555",
"`  c #DE5858",
"'  c #E85F5F",
"]  c #C97878",
"[  c #EC6060",
"{  c #EE6161",
"}  c #F86767",
"|  c #FE6C6C",
" . c #FF6D6D",
".. c #838383",
"X. c #888888",
"o. c gray54",
"O. c #8B8B8B",
"+. c #8D8D8D",
"@. c #8E8E8E",
"#. c #909090",
"$. c #959595",
"%. c #989898",
"&. c gray60",
"*. c #9B9B9B",
"=. c gray62",
"-. c #A0A0A0",
";. c #A2A2A2",
":. c #A5A5A5",
">. c gray65",
",. c #A7A7A7",
"<. c #A9A9A9",
"1. c #ACACAC",
"2. c gray68",
"3. c #AEAEAE",
"4. c gray70",
"5. c #B4B4B4",
"6. c #BBBBBB",
"7. c gray75",
"8. c #C58C8C",
"9. c #C49090",
"0. c #C59797",
"q. c #CDACAC",
"w. c #CFAFAF",
"e. c #D0B6B6",
"r. c gray76",
"t. c #C3C3C3",
"y. c #C6C6C6",
"u. c #CECECE",
"i. c #DDCECE",
"p. c #D5D5D5",
"a. c gray84",
"s. c #DDD1D1",
"d. c #DFD1D1",
"f. c #D8D8D8",
"g. c gray85",
"h. c gainsboro",
"j. c #DDDDDD",
"k. c gray87",
"l. c #EECACA",
"z. c #EBCECE",
"x. c #F0CACA",
"c. c #E5DBDB",
"v. c #E9DEDE",
"b. c gray88",
"n. c #E1E1E1",
"m. c gray89",
"M. c #E7E4E4",
"N. c #E6E6E6",
"B. c #E7E7E7",
"V. c #EEE7E7",
"C. c gray91",
"Z. c #E9E9E9",
"A. c gray92",
"S. c #ECECEC",
"D. c #EEEEEE",
"F. c gray94",
"G. c #F1F1F1",
"H. c gray95",
"J. c #F3F2F2",
"K. c #F3F3F3",
"L. c #F4F4F4",
"P. c None",
/* pixels */
"P.P.P.P.P.P.P.P.P.P.P.P.P.P.P.P.P.P.P.P.P.P.P.P.P.P.P.P.P.P.P.P.P.P.P.P.P.P.P.P.P.P.P.P.P.P.P.P.P.P.P.P.P.P.P.P.P.P.P.",
"P.P.P.P.P.P.P.P.P.P.P.P.P.P.P.P.P.P.P.P.P.P.P.P.P.P.P.P.P.P.P.P.P.P.P.P.P.P.P.P.P.P.P.P.P.P.P.P.P.P.P.P.P.P.P.P.P.P.P.",
"P.P.P.P.P.P.P.P.P.P.P.P.P.P.P.P.P.P.P.P.P.P.P.P.P.P.P.P.P.P.P.P.P.P.P.P.P.P.P.P.P.P.P.P.P.P.P.P.P.P.P.P.P.P.P.P.P.P.P.",
"P.P.P.P.P.P.P.P.P.P.P.P.P.P.P.P.P.P.P.P.P.P.P.P.P.P.P.P.P.P.P.P.P.P.P.P.P.P.P.P.P.P.P.P.P.P.P.P.P.P.P.P.P.P.P.P.P.P.P.",
"P.P.P.P.P.P.P.P.P.P.P.P.P.P.P.P.P.P.P.P.P.P.P.P.P.P.P.P.P.P.P.P.P.P.P.P.P.P.P.P.P.P.P.P.P.P.P.P.P.P.P.P.P.P.P.P.P.P.P.",
"P.P.P.P.P.P.P.P.P.P.P.P.P.P.P.P.P.P.P.P.P.P.P.P.P.P.P.P.P.P.P.P.P.P.P.P.P.P.P.P.P.P.P.P.P.P.P.P.P.P.P.P.P.P.P.P.P.P.P.",
"P.P.P.P.P.P.P.P.P.P.P.P.P.P.P.P.P.P.P.P.P.P.P.P.P.P.P.P.P.P.P.P.P.P.P.P.P.P.P.P.P.P.P.P.P.P.P.P.P.P.P.P.P.P.P.P.P.P.P.",
"P.P.P.P.P.P.P.P.P.P.P.P.P.P.P.P.P.P.P.P.P.P.P.P.P.P.P.P.P.P.P.P.P.P.P.P.P.P.P.P.P.P.P.P.P.P.P.P.P.P.P.P.P.P.P.P.P.P.P.",
"P.P.P.P.P.P.P.P.P.P.P.P.P.P.P.P.P.P.P.P.P.P.P.P.P.P.P.P.P.P.P.P.P.P.P.P.P.P.P.P.P.P.P.P.P.P.P.P.P.P.P.P.P.P.P.P.P.P.P.",
"P.P.P.P.P.P.P.P.P.P.P.P.P.P.P.P.P.P.P.P.P.P.P.P.P.P.P.P.P.P.P.P.P.P.P.P.P.P.P.P.P.P.P.P.P.P.P.P.P.P.P.P.P.P.P.P.P.P.P.",
"P.P.P.P.P.P.P.P.P.P.P.P.P.P.P.P.P.P.P.P.P.P.P.P.P.P.P.P.P.P.P.P.P.P.P.P.P.P.P.P.P.P.P.P.P.P.P.P.P.P.P.P.P.P.P.P.P.P.P.",
"P.P.P.P.P.P.P.P.P.P.P.P.P.P.P.P.P.P.P.P.P.P.P.P.P.P.P.P.P.P.P.P.P.P.P.P.P.P.P.P.P.P.P.P.P.P.P.P.P.P.P.P.P.P.P.P.P.P.P.",
"P.P.P.P.P.P.P.P.P.P.P.P.P.P.P.P.P.P.P.P.P.P.P.P.P.P.P.P.P.P.P.P.P.P.P.P.P.P.P.P.P.P.P.P.P.P.P.P.P.P.P.P.P.P.P.P.P.P.P.",
"P.P.P.P.P.P.P.P.P.P.P.P.P.P.P.P.P.P.P.P.P.P.P.P.P.P.P.P.P.P.P.P.P.P.P.P.P.P.P.P.P.P.P.P.P.P.P.P.P.P.P.P.P.P.P.P.P.P.P.",
"P.P.P.P.P.P.P.P.P.P.P.P.P.P.P.P.P.P.P.P.P.P.P.P.P.P.P.P.P.P.P.P.P.P.P.P.P.P.P.P.P.P.P.P.P.P.P.P.P.P.P.P.P.P.P.P.P.P.P.",
"P.P.P.P.P.P.P.P.P.P.P.P.P.P.P.P.P.P.P.P.P.P.P.P.P.P.P.P.P.P.P.P.P.P.P.P.P.P.P.P.P.P.P.P.P.P.P.P.P.P.P.P.P.P.P.P.P.P.P.",
"P.P.P.P.P.P.P.P.P.P.P.P.P.P.P.P.P.P.P.P.P.P.P.P.P.P.P.P.P.P.P.P.P.P.P.P.P.P.P.P.P.P.P.P.P.P.P.P.P.P.P.P.P.P.P.P.P.P.P.",
"P.P.P.P.P.P.P.P.P.P.P.P.P.P.P.P.P.P.P.P.P.P.P.P.P.P.P.P.P.P.P.P.P.P.P.P.P.P.P.P.P.P.P.P.P.P.P.P.P.P.P.P.P.P.P.P.P.P.P.",
"P.P.P.P.P.P.P.P.P.P.P.P.P.P.P.P.P.P.P.P.P.P.P.P.P.P.P.          P.P.P.P.P.P.P.P.P.P.P.P.P.P.P.P.P.P.P.P.P.P.P.P.P.P.P.",
"P.P.P.P.P.P.P.P.P.P.P.P.P.P.P.P.P.P.P.P.P.P.P.P.                      P.P.P.P.P.P.P.P.P.P.P.P.P.P.P.P.P.P.P.P.P.P.P.P.",
"P.P.P.P.P.P.P.P.P.P.P.P.P.P.P.P.P.P.                ; ..&.2.&...;         P.P.P.P.P.P.P.P.P.P.P.P.P.P.P.P.P.P.P.P.P.P.",
"P.P.P.P.P.P.P.P.P.P.P.P.P.P.P.P.                I m.L.L.L.L.L.L.L.C.I               P.P.P.P.P.P.P.P.P.P.P.P.P.P.P.P.P.",
"P.P.P.P.P.P.P.P.P.P.P.P.P.P.P.    o H &.&...u m.L.L.L.L.L.L.L.L.L.L.L.b.8               P.P.P.P.P.P.P.P.P.P.P.P.P.P.P.",
"P.P.P.P.P.P.P.P.P.P.P.P.P.P.P.  @ &.=.=.=.=.=.m.<.=.=.;.b.L.L.L.L.L.L.L.H.c b X.X.G @     P.P.P.P.P.P.P.P.P.P.P.P.P.P.",
"P.P.P.P.P.P.P.P.P.P.P.P.P.P.    I =.=.=.=.=.=.=.=.=.=.=.=.j.L.L.L.L.L.L.L.L.:.=.=.=.&.1     P.P.P.P.P.P.P.P.P.P.P.P.P.",
"P.P.P.P.P.P.P.P.P.P.P.P.P.P.    =.=.=.=.=.=.=.=.=.=.=.=.=.;.L.L.L.L.L.L.L.L.S.=.=.=.=.$.    P.P.P.P.P.P.P.P.P.P.P.P.P.",
"P.P.P.P.P.P.P.P.P.P.P.P.P.P.    =.=.=.=.=.=.=.=.=.=.=.=.=.=.H.L.L.L.L.L.L.L.L.r.=.=.=.=.@   P.P.P.P.P.P.P.P.P.P.P.P.P.",
"P.P.P.P.P.P.P.P.P.P.P.P.P.P.    +.=.=.=.=.=.=.=.=.=.=.=.=.=.H.L.L.L.L.L.L.L.L.H.=.=.=.=.4   P.P.P.P.P.P.P.P.P.P.P.P.P.",
"P.P.P.P.P.P.P.P.P.P.P.P.P.P.    8 =.=.=.=.=.=.=.=.=.=.=.=.:.L.L.L.L.L.L.L.L.L.L.:.=.=.=.    P.P.P.P.P.P.P.P.P.P.P.P.P.",
"P.P.P.P.P.P.P.P.P.P.P.P.P.P.P.    e &.=.=.=.=.=.=.=.=.=.=.m.L.L.L.L.L.L.L.L.L.L.t.=.=.K     P.P.P.P.P.P.P.P.P.P.P.P.P.",
"P.P.P.P.P.P.P.P.P.P.P.P.P.P.P.P.    :.=.=.=.=.=.=.=.=.2.S.L.L.L.L.L.L.L.L.L.L.L.p.=.I     P.P.P.P.P.P.P.P.P.P.P.P.P.P.",
"P.P.P.P.P.P.P.P.P.P.P.              y.;.=.=.=.=.=.=.p.L.L.L.L.L.L.L.L.L.L.L.L.L.j.=.            P.P.P.P.P.P.P.P.P.P.P.",
"P.P.P.P.P.P.P.P.P.P.P.P.            y.C.=.=.=.=.=.4.L.L.L.L.L.L.L.L.L.L.L.L.L.L.j.G             P.P.P.P.P.P.P.P.P.P.P.",
"P.P.P.P.P.P.P.P.P.P.P.P.    1 a Y Q x.L.H.7.:.2.g.L.L.L.L.L.L.L.L.L.L.L.L.L.L.L.z.! ! Q g     P.P.P.P.P.P.P.P.P.P.P.P.",
"P.P.P.P.P.P.P.P.P.P.P.P.P.    u u e u b &.p.H.H.L.L.L.L.L.L.L.0./ L.L.i._ H.L.L.l.~ W a >     P.P.P.P.P.P.P.P.P.P.P.P.",
"P.P.P.P.P.P.P.P.P.P.P.P.P.    1 u e u e u u u l $.p.H.L.L.L.L.` } L.L.]  .d.L.L.l.g u 0     P.P.P.P.P.P.P.P.P.P.P.P.P.",
"P.P.P.P.P.P.P.P.P.P.P.P.P.P.    u u u u r u r u u u u l 4.H.L.[  .v.L.^  .q.L.j.u u u ;     P.P.P.P.P.P.P.P.P.P.P.P.P.",
"P.P.P.P.P.P.P.P.P.P.P.P.P.P.    4 u e u u r u r u u u e u L.L.'  .V.L.(  .e.L.G u u 0     P.P.P.P.P.P.P.P.P.P.P.P.P.P.",
"P.P.P.P.P.P.P.P.P.P.P.P.P.P.P.    u r u r u r u u u u u u 6.H.) [ L.L.8. .c.C.u u r %     P.P.P.P.P.P.P.P.P.P.P.P.P.P.",
"P.P.P.P.P.P.P.P.P.P.P.P.P.P.P.    4 u r u r u r u e e u u l L.d.w.b.C.M.9.L.#.u u 8     P.P.P.P.P.P.P.P.P.P.P.P.P.P.P.",
"P.P.P.P.P.P.P.P.P.P.P.P.P.P.P.P.  o u u r u r u u e e u e u u.L.L.g.C.S.H.H.r u u @   P.P.P.P.P.P.P.P.P.P.P.P.P.P.P.P.",
"P.P.P.P.P.P.P.P.P.P.P.P.P.P.        q u u r u r u u u u u u u n X.X.#.O.J r u r 0     P.P.P.P.P.P.P.P.P.P.P.P.P.P.P.P.",
"P.P.P.P.P.P.P.P.P.P.P.P.        4 u u r r u r u e u u e u h V S R U s Y D V r u u     P.P.P.P.P.P.P.P.P.P.P.P.P.P.P.P.",
"P.P.P.P.P.P.P.P.P.P.        < u r u r u u r u r e u u u u V V V Z d p A V V u u u <     P.P.P.P.P.P.P.P.P.P.P.P.P.P.P.",
"P.P.P.P.P.P.P.P.P.      , e u e u r u r u r u r u u u e V V V V V Z V V V V k u u 0     P.P.P.P.P.P.P.P.P.P.P.P.P.P.P.",
"P.P.P.P.P.P.P.      % 0 u u u u r u r u r u r u u e u n V V V V V R V V V V v u u u @   P.P.P.P.P.P.P.P.P.P.P.P.P.P.P.",
"P.P.P.P.P.      @ 8 u u e u e u u r r u u r u r r u n Z V V V V V Z V V Z V l u u e 4     P.P.P.P.P.P.P.P.P.P.P.P.P.P.",
"P.P.P.          % % % % % % % % % % % % % % % % % ; > > > > > > > > > > ;     % % % $     P.P.P.P.P.P.P.P.P.P.P.P.P.P.",
"P.                                                                                        P.P.P.P.P.P.P.P.P.P.P.P.P.P.",
"P.P.P.P.P.P.P.P.P.P.P.P.P.P.P.P.P.P.P.P.P.P.P.P.P.P.P.P.P.P.P.P.P.P.P.P.P.P.P.P.P.P.P.P.P.P.P.P.P.P.P.P.P.P.P.P.P.P.P."
};
