/* XPM */
static char *_650217349367[] = {
/* columns rows colors chars-per-pixel */
"59 50 167 2 ",
"   c black",
".  c #000001",
"X  c #000004",
"o  c #00000A",
"O  c #00000E",
"+  c #000014",
"@  c #000016",
"#  c #000022",
"$  c #000024",
"%  c #000025",
"&  c #000029",
"*  c #000030",
"=  c #000031",
"-  c #00003C",
";  c #000040",
":  c #000042",
">  c #000045",
",  c #000047",
"<  c #000048",
"1  c #00004B",
"2  c #00004E",
"3  c #000053",
"4  c #000054",
"5  c #000056",
"6  c #000059",
"7  c #00005B",
"8  c #00005C",
"9  c #00005E",
"0  c #000062",
"q  c #000064",
"w  c #000066",
"e  c #000067",
"r  c #00007E",
"t  c #5ABC1A",
"y  c #65B727",
"u  c #62BA22",
"i  c #7DB938",
"p  c #4EC905",
"a  c #4FCD04",
"s  c #52D601",
"d  c #53DA01",
"f  c #53DB01",
"g  c #54C214",
"h  c #57E401",
"j  c #59E901",
"k  c #59EA01",
"l  c #92B546",
"z  c #95B449",
"x  c #9DB44D",
"c  c #B4BA5A",
"v  c #B4BC5A",
"b  c #BCBC5F",
"n  c #D1C66B",
"m  c #D3C66D",
"M  c #D4C86D",
"N  c #DDCD72",
"B  c #E1D074",
"V  c #E9D478",
"C  c #EBD57A",
"Z  c #F1D87E",
"A  c #F3D97F",
"S  c navy",
"D  c #000082",
"F  c #000084",
"G  c #000085",
"H  c #000088",
"J  c #00008B",
"K  c #00008C",
"L  c #00008E",
"P  c #000091",
"I  c #000094",
"U  c #000095",
"Y  c #00009C",
"T  c #00009D",
"R  c #00009E",
"E  c #00009F",
"W  c #0000A1",
"Q  c #0000A2",
"!  c #0000A3",
"~  c #0000A5",
"^  c #0000AD",
"/  c #0000AE",
"(  c #0000B0",
")  c #0000B3",
"_  c #0000B4",
"`  c #0000B5",
"'  c #0000B6",
"]  c #0000B7",
"[  c #0000B8",
"{  c #0000B9",
"}  c #0000BA",
"|  c #0000BD",
" . c #0000BE",
".. c #0000BF",
"X. c #0000C0",
"o. c #0000C2",
"O. c #0000C4",
"+. c #0000C6",
"@. c #0000C9",
"#. c #0000CA",
"$. c #0000CE",
"%. c #0000D0",
"&. c #0000D1",
"*. c #0000D4",
"=. c #0000D5",
"-. c #0000D6",
";. c #0000D7",
":. c #0000D9",
">. c #0000DC",
",. c #0000DF",
"<. c #0000E0",
"1. c #0000E2",
"2. c #0000E3",
"3. c #0000E4",
"4. c #0000E5",
"5. c #0000E6",
"6. c #0000E7",
"7. c #0000E8",
"8. c #0000EB",
"9. c #0000EC",
"0. c #0000EE",
"q. c #0000F0",
"w. c #0000F1",
"e. c #0000F2",
"r. c #0000F3",
"t. c #0000F6",
"y. c #0000F7",
"u. c #0000F8",
"i. c #0000F9",
"p. c #0000FA",
"a. c #0000FB",
"s. c #0000FC",
"d. c #0000FD",
"f. c #0000FE",
"g. c #0101FE",
"h. c #0202FE",
"j. c #0807FD",
"k. c #2622FA",
"l. c #302BF6",
"z. c #312CF7",
"x. c #3630F6",
"c. c #534AEE",
"v. c #4941F4",
"b. c #7467E7",
"n. c #8C7DD6",
"m. c #8D7ED8",
"M. c #8173E3",
"N. c #8678E3",
"B. c #BBA7B4",
"V. c #BEAAB6",
"C. c #CFB9A3",
"Z. c #CEB8AF",
"A. c #D2BCA6",
"S. c #D2BBAA",
"D. c #D1BAAD",
"F. c #D1BBAD",
"G. c #C2AEB0",
"H. c #C8B3B1",
"J. c #D8C197",
"K. c #E7CE8D",
"L. c #E5CC8F",
"P. c #E9D085",
"I. c #F1D780",
"U. c #E2CA91",
"Y. c #9484D2",
"T. c #A291C4",
"R. c None",
/* pixels */
"R.R.R.R.R.R.R.R.R.R.R.R.R.R.R.R.R.R.R.R.R.R.R.R.R.R.R.R.R.R.R.R.R.R.R.R.R.R.R.R.R.R.R.R.R.R.R.R.R.R.R.R.R.R.R.R.R.R.R.",
"R.R.R.R.R.R.R.R.R.R.R.R.R.R.R.R.R.R.R.R.R.R.R.R.R.R.R.R.R.R.R.R.R.R.R.R.R.R.R.R.R.R.R.R.R.R.R.R.R.R.R.R.R.R.R.R.R.R.R.",
"R.R.R.R.R.R.R.R.R.R.R.R.R.R.R.R.R.R.R.R.R.R.R.R.R.R.R.R.R.R.R.R.R.R.R.R.R.R.R.R.R.R.R.R.R.R.R.R.R.R.R.R.R.R.R.R.R.R.R.",
"R.R.R.R.R.R.R.R.R.R.R.R.R.R.R.R.R.R.R.R.R.R.R.R.R.R.R.R.R.R.R.R.R.R.R.R.R.R.R.R.R.R.R.R.R.R.R.R.R.R.R.R.R.R.R.R.R.R.R.",
"R.R.R.R.R.R.R.R.R.R.R.R.R.R.R.R.R.R.R.R.R.R.R.R.R.R.R.R.R.R.R.R.R.R.R.R.R.R.R.R.R.R.R.R.R.R.R.R.R.R.R.R.R.R.R.R.R.R.R.",
"R.R.R.R.R.R.R.R.R.R.R.R.R.R.R.R.R.R.R.R.R.R.R.R.R.R.R.R.R.R.R.R.R.R.R.R.R.R.R.R.R.R.R.R.R.R.R.R.R.R.R.R.R.R.R.R.R.R.R.",
"R.R.R.R.R.R.R.R.R.R.R.R.R.R.R.R.R.R.R.R.R.R.R.R.R.R.R.R.R.R.R.R.R.R.R.R.R.R.R.R.R.R.R.R.R.R.R.R.R.R.R.R.R.R.R.R.R.R.R.",
"R.R.R.R.R.R.R.R.R.R.R.R.R.R.R.R.R.R.R.R.R.R.R.R.R.R.R.R.R.R.R.R.R.R.R.R.R.R.R.R.R.R.R.R.R.R.R.R.R.R.R.R.R.R.R.R.R.R.R.",
"R.R.R.R.R.R.R.R.R.R.R.R.R.R.R.R.R.R.R.R.R.R.R.R.R.R.R.R.R.R.R.R.R.R.R.R.R.R.R.R.R.R.R.R.R.R.R.R.R.R.R.R.R.R.R.R.R.R.R.",
"R.R.R.R.R.R.R.R.R.R.R.R.R.R.R.R.R.R.R.R.R.R.R.R.R.R.R.R.R.R.R.R.R.R.R.R.R.R.R.R.R.R.R.R.R.R.R.R.R.R.R.R.R.R.R.R.R.R.R.",
"R.R.R.R.R.R.R.R.R.R.R.R.R.R.R.R.R.R.R.R.R.R.R.R.R.R.  R.R.R.R.R.R.R.R.R.R.R.R.R.R.R.R.R.R.R.R.R.R.R.R.R.R.R.R.R.R.R.R.",
"R.R.R.R.R.R.R.R.R.R.R.R.R.R.R.R.R.R.R.R.R.R.R.R.R.    R.R.R.R.R.R.R.R.R.R.R.R.R.R.R.R.R.R.R.R.R.R.R.R.R.R.R.R.R.R.R.R.",
"R.R.R.R.R.R.R.R.R.R.R.R.R.R.R.R.R.R.R.R.R.R.R.R.R.    R.R.R.R.R.R.R.R.R.R.R.R.R.R.R.R.R.R.R.R.R.R.R.R.R.R.R.R.R.R.R.R.",
"R.R.R.R.R.R.R.R.R.R.R.R.R.R.R.R.R.R.R.R.R.R.R.R.      R.R.R.R.R.R.R.R.R.R.R.R.R.R.R.R.R.R.R.R.R.R.R.R.R.R.R.R.R.R.R.R.",
"R.R.R.R.R.R.R.R.R.R.R.R.R.R.R.R.R.R.R.R.R.R.R.        R.R.R.R.R.R.R.R.R.R.R.R.R.R.R.R.R.R.R.R.R.R.R.R.R.R.R.R.R.R.R.R.",
"R.R.R.R.R.R.R.R.R.R.R.R.R.R.R.R.R.R.R.R.R.R.R.        R.R.R.R.R.R.R.R.R.R.R.R.R.R.R.R.R.R.R.R.R.R.R.R.R.R.R.R.R.R.R.R.",
"R.R.R.R.R.R.R.R.R.R.R.R.R.R.R.R.R.R.R.R.R.R.    K     R.R.R.R.R.R.R.R.R.R.R.R.R.R.R.R.R.R.R.R.R.R.R.R.R.R.R.R.R.R.R.R.",
"R.R.R.R.R.R.R.R.R.R.R.R.R.R.R.R.R.R.R.R.R.    % f.    R.R.R.R.R.R.R.R.R.R.R.R.R.R.R.R.R.R.R.R.R.R.R.R.R.R.R.R.R.R.R.R.",
"R.R.R.R.R.R.R.R.R.R.R.R.R.R.R.R.R.R.R.R.R.    2.f.    R.R.R.R.R.R.R.R.R.R.R.R.R.R.R.R.R.R.R.R.R.R.R.R.R.R.R.R.R.R.R.R.",
"R.R.R.R.R.R.R.R.R.R.R.R.R.R.R.R.R.R.R.R.    U f.f.        R.R.R.R.R.R.R.R.R.R.R.R.R.R.R.R.R.R.R.R.R.R.R.R.R.R.R.R.R.R.",
"R.R.R.R.R.R.R.R.R.R.R.R.R.R.R.R.R.R.R.    & f.f.f.,.q         R.R.R.R.R.R.R.R.R.R.R.R.R.R.R.R.R.R.R.R.R.R.R.R.R.R.R.R.",
"R.R.R.R.R.R.R.R.R.R.R.R.R.R.R.R.R.R.R.    4.f.f.f.f.f.y.Y           R.R.R.R.R.R.R.R.R.R.R.R.R.R.R.R.R.R.R.R.R.R.R.R.R.",
"R.R.R.R.R.R.R.R.R.R.R.R.R.R.R.R.R.R.    Y f.f.f.f.f.f.f.f.f.!           R.R.R.R.R.R.R.R.R.R.R.R.R.R.R.R.R.R.R.R.R.R.R.",
"R.R.R.R.R.R.R.R.R.R.R.R.R.R.R.R.R.      y.f.f.f.f.f.f.f.f.i.#.#.Y 3         R.R.R.R.R.R.R.R.R.R.R.R.R.R.R.R.R.R.R.R.R.",
"R.R.R.R.R.R.R.R.R.R.R.R.R.R.R.R.R.R.    < f.f.f.f.f.f.f.f.f.f.f.f.f.i.Y       R.R.R.R.R.R.R.R.R.R.R.R.R.R.R.R.R.R.R.R.",
"R.R.R.R.R.R.R.R.R.R.R.R.R.R.R.R.R.R.R.    H U K 4.f.f.f.f.f.f.f.f.f.f.f.9.O                               R.R.R.R.R.R.",
"R.R.R.R.R.R.R.R.R.R.R.R.R.R.R.R.R.R.R.R.    + q.f.f.f.f.f.f.f.f.f.f.f.f.f.q.X                                 R.R.R.R.",
"R.R.R.R.R.R.R.R.R.R.R.R.R.R.R.R.R.R.R.R.    q.f.f.f.f.f.f.f.f.f.f.f.f.f.f.f.-.^ ,.4.f.f.f.f.f.i.y.q.9.-.D       R.R.R.",
"R.R.R.R.R.R.R.R.R.R.R.R.R.R.R.R.R.R.R.    ~ f.f.f.f.f.f.f.f.f.f.f.f.f.f.f.f.f.q.4.$.+._ _ _ _ } _ _ _ _ _ ) =     R.R.",
"R.R.R.R.R.R.R.R.R.R.R.R.R.R.R.R.R.R.R.    f.f.f.f.f.f.f.f.f.f.f.f.f.9.-.X._ _ _ _ _ _ _ } _ _ _ _ _ } _ _ _ 9     R.R.",
"R.R.R.R.R.R.R.R.R.R.R.R.R.R.R.R.R.R.    q f.f.f.f.f.f.f.f.i.2.+.} _ _ _ _ _ _ _ _ _ _ _ _ _ _ _ _ } _ _ _ F     R.R.R.",
"R.R.R.R.R.R.R.R.R.R.R.R.R.R.R.R.        Y f.f.f.f.f.4.+._ _ _ _ _ _ _ } _ _ } _ _ _ } _ _ _ } _ _ _ _ ) 2       R.R.R.",
"R.R.R.R.R.R.R.R.R.R.R.R.R.R.        - X.f.f.q.*._ _ _ } *.8.i.f.f.f.f.f.f.2.} _ _ _ _ } _ _ _ } _ ^ q         R.R.R.R.",
"R.R.R.R.R.R.R.R.R.R.R.R.        D 9.f.q.#._ _ _ } -.i.f.l.T.J.Z A A A A P.G.x.-._ _ _ _ _ _ _ ~ 5         R.R.R.R.R.R.",
"R.R.R.R.R.R.R.R.R.R.        ! i.y.$._ _ _ _ _ 2.f.f.j.C.A A A x y A A n p I.I.v.} _ _ _ ) F #         R.R.R.R.R.R.R.R.",
"R.R.R.R.R.R.R.R.R.      K i.4.} _ _ } _ _ X.f.f.f.f.L.A A A A a h A A i k M I.G.-._ I ;           R.R.R.R.R.R.R.R.R.R.",
"R.R.R.R.R.R.R.R.    = 8.:._ } _ _ _ _ _ X.f.f.f.f.b.A A A A A d k B A t k v A A.+.          R.R.R.R.R.R.R.R.R.R.R.R.R.",
"R.R.R.R.R.R.R.    q 2._ _ _ _ _ _ _ } _ i.f.f.f.f.N.A A A A A s k V I.u k b A S.$.    R.R.R.R.R.R.R.R.R.R.R.R.R.R.R.R.",
"R.R.R.R.R.R.    < .._ _ _ _ _ _ _ } _ } f.f.f.f.f.k.A A A A A g d A A l k N A Y.$.    R.R.R.R.R.R.R.R.R.R.R.R.R.R.R.R.",
"R.R.R.R.R.R.    ! _ _ } _ _ _ } _ _ _ _ f.f.f.f.f.f.n.A A A A M v A A V z A K.f.$.    R.R.R.R.R.R.R.R.R.R.R.R.R.R.R.R.",
"R.R.R.R.R.R.    r _ _ _ _ _ _ _ _ } _ _ f.f.f.f.f.f.f.c.U.A A A A A A A A V.h.f.$.    R.R.R.R.R.R.R.R.R.R.R.R.R.R.R.R.",
"R.R.R.R.R.R.        % 7 9 9 9 < +     o f.f.f.f.f.f.f.f.f.z.m.Z.D.D.H.M.f.f.f.f.$.    R.R.R.R.R.R.R.R.R.R.R.R.R.R.R.R.",
"R.R.R.R.R.R.R.                        o f.f.f.f.f.f.f.f.f.f.f.f.f.f.f.f.f.f.f.f.$.    R.R.R.R.R.R.R.R.R.R.R.R.R.R.R.R.",
"R.R.R.R.R.R.R.R.R.R.R.R.R.R.R.R.R.    _ f.f.f.f.f.f.f.f.f.f.f.f.f.f.f.f.f.f.f.f.$.    R.R.R.R.R.R.R.R.R.R.R.R.R.R.R.R.",
"R.R.R.R.R.R.R.R.R.R.R.R.R.R.R.R.    < f.f.f.f.f.f.f.f.f.f.f.f.f.f.f.f.f.f.f.f.f.X.    R.R.R.R.R.R.R.R.R.R.R.R.R.R.R.R.",
"R.R.R.R.R.R.R.R.R.R.R.R.R.R.R.R.    q.f.f.f.f.f.f.f.f.f.f.f.f.f.f.f.f.f.f.f.f.f.5     R.R.R.R.R.R.R.R.R.R.R.R.R.R.R.R.",
"R.R.R.R.R.R.R.R.R.R.R.R.R.R.R.    ^ f.f.f.f.f.f.f.f.f.f.f.f.f.f.f.f.f.f.f.f.f.Y     R.R.R.R.R.R.R.R.R.R.R.R.R.R.R.R.R.",
"R.R.R.R.R.R.R.R.R.R.R.R.R.R.      < < < < < < < < < < < < < < < < < < < < ;       R.R.R.R.R.R.R.R.R.R.R.R.R.R.R.R.R.R.",
"R.R.R.R.R.R.R.R.R.R.R.R.R.R.                                                    R.R.R.R.R.R.R.R.R.R.R.R.R.R.R.R.R.R.R.",
"R.R.R.R.R.R.R.R.R.R.R.R.R.R.R.R.R.R.R.R.R.R.R.R.R.R.R.R.R.R.R.R.R.R.R.R.R.R.R.R.R.R.R.R.R.R.R.R.R.R.R.R.R.R.R.R.R.R.R."
};
